<svg width="1920" height="270" viewBox="0 0 1920 270" fill="none" xmlns="http://www.w3.org/2000/svg">
<g opacity="0.5">
<path d="M-14 263.571V256.821L17.5523 243.964L110.599 0H115.751L203.647 252L233.267 256.821V263.571H138.61V256.821L165.011 252.643L137.644 176.464H52.0023L25.9233 243.964L54.9 256.821V263.571H-14ZM54.578 169.714H135.391L96.7551 56.5714L54.578 169.714Z" fill="url(#paint0_linear)"/>
<path d="M405.437 266.786L309.492 18V243.964L340.4 256.821V263.571H271.5V256.821L301.765 243.964V18L272.144 13.5V6.42858H343.298L424.11 212.786L506.533 6.42858H571.569V13.5L541.949 18V252L571.569 256.821V263.571H476.912V256.821L506.533 252V27.6429L411.232 266.786H405.437Z" fill="url(#paint1_linear)"/>
<path d="M607.538 263.571V256.821L639.091 243.964L732.138 0H737.289L825.185 252L854.806 256.821V263.571H760.149V256.821L786.55 252.643L759.183 176.464H673.541L647.462 243.964L676.438 256.821V263.571H607.538ZM676.116 169.714H756.929L718.293 56.5714L676.116 169.714Z" fill="url(#paint2_linear)"/>
<path d="M893.039 256.821L922.659 252V18L893.039 13.5V6.42858H1016.35C1039.96 6.42858 1060.89 11.7857 1079.13 22.5C1097.59 33 1111.97 48 1122.28 67.5C1132.58 86.7857 1137.73 109.286 1137.73 135C1137.73 160.714 1132.58 183.321 1122.28 202.821C1111.97 222.107 1097.59 237.107 1079.13 247.821C1060.67 258.321 1039.75 263.571 1016.35 263.571H893.039V256.821ZM1016.35 255.857C1032.02 255.857 1045.86 252.214 1057.88 244.929C1070.12 237.643 1079.67 226.821 1086.54 212.464C1093.41 197.893 1096.84 180.321 1096.84 159.75V110.25C1096.84 89.6786 1093.41 72.2143 1086.54 57.8571C1079.67 43.5 1070.12 32.6786 1057.88 25.3929C1045.86 18.1071 1032.02 14.4643 1016.35 14.4643H958.075V255.857H1016.35Z" fill="url(#paint3_linear)"/>
<path d="M1200.03 263.571V256.821L1229.66 252V18L1200.03 13.5V6.42858H1393.86V80.0357H1385.16L1360.37 14.4643H1265.07V130.179H1306.93L1325.92 83.5714H1334.29V185.143H1325.92L1306.6 137.893H1265.07V255.857H1366.17L1392.57 185.143H1400.94V263.571H1200.03Z" fill="url(#paint4_linear)"/>
<path d="M1580.82 270C1549.27 270 1526.19 263.036 1511.6 249.107C1497 234.964 1489.71 216.321 1489.71 193.179V18L1460.08 13.5V6.42858H1554.74V13.5L1525.12 18V193.179C1525.12 214.179 1531.02 230.357 1542.83 241.714C1554.63 252.857 1572.56 258.429 1596.6 258.429C1642.1 258.429 1664.85 236.679 1664.85 193.179V26.0357L1634.91 13.5V6.42858H1703.49V13.5L1672.58 26.0357V193.179C1672.58 218.893 1665.39 238.179 1651.01 251.036C1636.63 263.679 1613.23 270 1580.82 270Z" fill="url(#paint5_linear)"/>
<path d="M1858.87 270C1838.9 270 1819.26 264.321 1799.95 252.964L1772.58 266.786H1765.5V184.179H1772.58L1800.27 243.964C1818.08 256.607 1838.47 262.929 1861.44 262.929C1880.33 262.929 1895.89 258 1908.13 248.143C1920.57 238.071 1926.8 224.036 1926.8 206.036C1926.8 192.964 1922.83 182.679 1914.89 175.179C1906.95 167.464 1894.07 161.357 1876.25 156.857L1822.81 143.036C1804.13 138.107 1790.07 129.75 1780.63 117.964C1771.18 105.964 1766.46 91.8214 1766.46 75.5357C1766.46 60.75 1769.36 47.6786 1775.16 36.3214C1781.17 24.75 1789.86 15.8571 1801.23 9.64287C1812.61 3.21429 1826.13 0 1841.8 0C1861.33 0 1878.83 3.32143 1894.28 9.96429L1917.78 0H1924.87V65.5714H1917.78L1894.6 18.6429C1878.51 10.9286 1861.01 7.07143 1842.12 7.07143C1823.45 7.07143 1808.75 11.8929 1798.01 21.5357C1787.28 30.9643 1781.92 43.5 1781.92 59.1429C1781.92 70.7143 1785.67 79.8214 1793.18 86.4643C1800.91 93.1071 1812.18 98.3571 1826.99 102.214L1884.62 117.321C1903.3 122.036 1917.14 130.179 1926.16 141.75C1935.39 153.107 1940 170.464 1940 193.821C1940 217.607 1932.59 236.25 1917.78 249.75C1903.19 263.25 1883.55 270 1858.87 270Z" fill="url(#paint6_linear)"/>
</g>
<defs>
<linearGradient id="paint0_linear" x1="963" y1="-35" x2="963" y2="379" gradientUnits="userSpaceOnUse">
<stop stop-color="#DCDADB"/>
<stop offset="1" stop-color="#DCDADB" stop-opacity="0"/>
</linearGradient>
<linearGradient id="paint1_linear" x1="963" y1="-35" x2="963" y2="379" gradientUnits="userSpaceOnUse">
<stop stop-color="#DCDADB"/>
<stop offset="1" stop-color="#DCDADB" stop-opacity="0"/>
</linearGradient>
<linearGradient id="paint2_linear" x1="963" y1="-35" x2="963" y2="379" gradientUnits="userSpaceOnUse">
<stop stop-color="#DCDADB"/>
<stop offset="1" stop-color="#DCDADB" stop-opacity="0"/>
</linearGradient>
<linearGradient id="paint3_linear" x1="963" y1="-35" x2="963" y2="379" gradientUnits="userSpaceOnUse">
<stop stop-color="#DCDADB"/>
<stop offset="1" stop-color="#DCDADB" stop-opacity="0"/>
</linearGradient>
<linearGradient id="paint4_linear" x1="963" y1="-35" x2="963" y2="379" gradientUnits="userSpaceOnUse">
<stop stop-color="#DCDADB"/>
<stop offset="1" stop-color="#DCDADB" stop-opacity="0"/>
</linearGradient>
<linearGradient id="paint5_linear" x1="963" y1="-35" x2="963" y2="379" gradientUnits="userSpaceOnUse">
<stop stop-color="#DCDADB"/>
<stop offset="1" stop-color="#DCDADB" stop-opacity="0"/>
</linearGradient>
<linearGradient id="paint6_linear" x1="963" y1="-35" x2="963" y2="379" gradientUnits="userSpaceOnUse">
<stop stop-color="#DCDADB"/>
<stop offset="1" stop-color="#DCDADB" stop-opacity="0"/>
</linearGradient>
</defs>
</svg>
