<svg width="1910" height="351" viewBox="0 0 1910 351" xmlns="http://www.w3.org/2000/svg"><g opacity="0.3"><path d="M-10.9004 346.283V337.428L30.7242 320.56L153.474 0.499969L160.27 0.499969L276.224 331.102L315.3 337.428V346.283H190.427V337.428L225.255 331.946L189.152 232.006L76.1714 232.006L41.7674 320.56L79.9941 337.428V346.283H-10.9004ZM79.5694 223.151H186.179L135.21 74.7168L79.5694 223.151Z M317.743 337.849L347.474 333.632L347.474 140.5L317.743 136.283V127.849L389.949 127.849V166.645C400.142 153.432 411.61 143.03 424.353 135.44C437.378 127.849 451.394 124.054 466.402 124.054C483.675 124.054 497.691 127.849 508.451 135.44C519.494 142.749 526.432 153.853 529.263 168.753C539.457 154.978 551.067 144.155 564.092 136.283C577.118 128.13 591.417 124.054 606.991 124.054C627.095 124.054 642.669 129.114 653.712 139.235C665.039 149.074 670.702 164.114 670.702 184.355V333.632L700.434 337.849V346.283H602.744V337.849L628.228 333.632V185.199C628.228 170.299 625.538 158.914 620.158 151.042C614.778 143.171 606 139.235 593.824 139.235C582.214 139.235 570.888 143.171 559.845 151.042C549.085 158.914 539.316 169.034 530.538 181.404V333.632L556.022 337.849V346.283L462.154 346.283V337.849L487.639 333.632V185.199C487.639 170.299 484.949 158.914 479.569 151.042C474.189 143.171 465.411 139.235 453.235 139.235C441.625 139.235 430.299 143.171 419.256 151.042C408.496 158.914 398.726 169.034 389.949 181.404V333.632L415.433 337.849V346.283H317.743V337.849Z M789.752 350.5C771.63 350.5 756.764 345.861 745.154 336.584C733.545 327.026 727.74 312.97 727.74 294.416C727.74 267.99 738.925 249.295 761.295 238.331C783.664 227.086 809.573 221.464 839.022 221.464H867.48V188.994C867.48 174.375 865.781 163.13 862.383 155.259C859.268 147.106 854.313 141.484 847.517 138.392C840.721 135.018 831.518 133.331 819.909 133.331C806.6 133.331 796.69 136.002 790.177 141.343C783.664 146.404 780.408 153.291 780.408 162.006C780.408 170.159 784.372 175.5 792.301 178.03C792.301 185.058 789.611 191.243 784.231 196.584C778.851 201.926 772.479 204.596 765.117 204.596C757.189 204.596 750.818 202.488 746.004 198.271C741.19 193.773 738.783 187.026 738.783 178.03C738.783 161.725 746.995 148.653 763.418 138.813C779.842 128.974 800.371 124.054 825.006 124.054C881.638 124.054 909.954 148.512 909.954 197.428V318.03C909.954 324.215 911.228 328.994 913.776 332.367C916.608 335.46 920.572 337.006 925.669 337.006C930.483 337.006 934.306 335.46 937.137 332.367C939.969 328.994 941.385 324.496 941.385 318.873H950.304C950.304 328.713 947.048 336.444 940.535 342.066C934.306 347.689 925.528 350.5 914.201 350.5C901.176 350.5 890.133 346.845 881.071 339.536C872.293 331.946 867.763 320.279 867.48 304.536C860.684 318.873 850.207 330.118 836.049 338.271C822.174 346.424 806.742 350.5 789.752 350.5ZM813.113 331.946C820.758 331.946 828.545 329.697 836.474 325.199C844.685 320.701 851.623 314.235 857.286 305.801C862.949 297.086 866.347 286.685 867.48 274.596V230.741H839.022C815.803 230.741 798.389 235.942 786.779 246.343C775.453 256.464 769.789 270.801 769.789 289.355C769.789 304.817 773.47 315.781 780.833 322.247C788.195 328.713 798.955 331.946 813.113 331.946Z M1068.97 350.5C1048.86 350.5 1031.17 345.861 1015.88 336.584C1000.59 327.026 988.693 313.813 980.199 296.946C971.704 279.797 967.456 259.837 967.456 237.066C967.456 214.295 971.704 194.476 980.199 177.608C988.693 160.46 1000.59 147.247 1015.88 137.97C1031.17 128.693 1048.86 124.054 1068.97 124.054C1085.39 124.054 1099.69 128.412 1111.87 137.126C1124.04 145.56 1133.67 157.227 1140.75 172.126V21.5843L1111.02 17.3674V8.93372L1183.22 8.93372V333.632L1212.96 337.849V346.283H1140.75V302.428C1133.67 317.327 1124.04 329.135 1111.87 337.849C1099.69 346.283 1085.39 350.5 1068.97 350.5ZM1073.22 339.958C1085.68 339.958 1096.86 336.444 1106.77 329.416C1116.97 322.106 1125.04 312.548 1130.98 300.741C1137.21 288.653 1140.47 275.58 1140.75 261.524V213.03C1140.47 198.974 1137.21 186.042 1130.98 174.235C1125.04 162.147 1116.97 152.588 1106.77 145.56C1096.86 138.251 1085.68 134.596 1073.22 134.596C1033.86 134.596 1014.18 161.725 1014.18 215.982V258.151C1014.18 312.689 1033.86 339.958 1073.22 339.958Z M1352.1 350.5C1331.15 350.5 1312.18 345.861 1295.19 336.584C1278.2 327.026 1264.75 313.673 1254.84 296.524C1244.93 279.375 1239.97 259.556 1239.97 237.066C1239.97 214.576 1244.78 194.898 1254.41 178.03C1264.32 160.881 1277.49 147.669 1293.91 138.392C1310.62 128.833 1329.17 124.054 1349.55 124.054C1367.39 124.054 1383.39 127.99 1397.55 135.861C1411.71 143.733 1422.75 154.697 1430.68 168.753C1438.61 182.528 1442.71 198.412 1443 216.404L1286.69 216.404V258.151C1286.69 282.89 1292.21 302.99 1303.26 318.452C1314.58 333.633 1330.87 341.223 1352.1 341.223C1371.64 341.223 1388.91 335.741 1403.92 324.777C1418.93 313.813 1428.13 299.616 1431.53 282.187H1441.3C1437.33 302.99 1427.28 319.576 1411.14 331.946C1395 344.315 1375.32 350.5 1352.1 350.5ZM1396.28 205.861C1396.28 181.404 1392.45 163.271 1384.81 151.464C1377.16 139.375 1365.27 133.331 1349.13 133.331C1330.16 133.331 1315.43 139.938 1304.96 153.151C1294.48 166.363 1288.53 183.934 1287.12 205.861L1396.28 205.861Z M1562.58 350.5C1542.19 350.5 1526.05 345.44 1514.16 335.319C1502.55 325.199 1496.75 310.159 1496.75 290.199V140.5L1467.01 136.283V127.849L1539.22 127.849V289.355C1539.22 303.693 1542.19 314.938 1548.14 323.09C1554.09 331.243 1563.29 335.319 1575.75 335.319C1588.77 335.319 1601.23 331.102 1613.13 322.669C1625.3 313.954 1636.06 303.271 1645.41 290.62V140.5L1615.67 136.283V127.849L1687.88 127.849V333.632L1717.61 337.849V346.283H1645.41V305.801C1635.21 319.857 1622.89 330.821 1608.45 338.693C1594.29 346.564 1579 350.5 1562.58 350.5Z  	M1830.1 350.5C1806.88 350.5 1787.48 345.58 1771.91 335.741C1756.33 325.902 1748.55 313.11 1748.55 297.367C1748.55 289.215 1750.67 282.89 1754.92 278.392C1759.45 273.612 1765.4 271.223 1772.76 271.223C1778.42 271.223 1783.23 272.628 1787.2 275.44C1791.16 278.251 1793.99 282.187 1795.69 287.247C1789.46 293.994 1786.35 301.163 1786.35 308.753C1786.35 317.468 1790.31 325.058 1798.24 331.524C1806.17 337.99 1816.79 341.223 1830.1 341.223C1847.94 341.223 1862.52 337.287 1873.85 329.416C1885.17 321.263 1890.84 310.44 1890.84 296.946C1890.84 289.074 1888.43 283.171 1883.62 279.235C1878.8 275.299 1869.46 270.801 1855.58 265.741L1791.45 242.548C1766.25 233.552 1753.64 216.825 1753.64 192.367C1753.64 172.408 1760.58 156.102 1774.46 143.452C1788.33 130.52 1807.44 124.054 1831.8 124.054C1851.9 124.054 1869.03 128.693 1883.19 137.97C1897.63 146.966 1904.85 159.898 1904.85 176.765C1904.85 183.512 1903.01 188.994 1899.33 193.211C1895.65 197.147 1890.84 199.114 1884.89 199.114C1878.94 199.114 1873.99 197.568 1870.02 194.476C1866.34 191.102 1864.5 186.604 1864.5 180.982C1868.18 178.171 1870.73 175.219 1872.15 172.126C1873.56 168.753 1874.27 164.817 1874.27 160.319C1874.27 152.448 1870.73 145.982 1863.65 140.922C1856.86 135.861 1846.24 133.331 1831.8 133.331C1819.34 133.331 1808.58 135.299 1799.52 139.235C1790.74 142.89 1784.08 147.809 1779.55 153.994C1775.02 160.179 1772.76 166.504 1772.76 172.97C1772.76 179.717 1775.16 185.058 1779.98 188.994C1785.08 192.93 1794.28 197.287 1807.59 202.066L1867.05 223.151C1880.93 228.211 1891.4 235.239 1898.48 244.235C1905.56 253.231 1909.1 264.898 1909.1 279.235C1909.1 299.757 1902.59 316.765 1889.56 330.259C1876.54 343.753 1856.71 350.5 1830.1 350.5Z" fill="url(#linearGradient)"/></g><defs><linearGradient id="linearGradient" x1="965.903" y1="-72.427" x2="965.903" y2="499.083" gradientUnits="userSpaceOnUse"><stop stop-color="#DEC7AC"/><stop offset="1" stop-color="#DEC7AC" stop-opacity="0"/></linearGradient></defs></svg>