<svg width="70" height="90" viewBox="0 0 70 90" xmlns="http://www.w3.org/2000/svg"><path d="M17.711 36.4717C17.711 46.283 25.4501 54.283 34.9823 54.283C44.5144 54.283 52.2536 46.283 52.2536 36.4717C52.2536 26.6604 44.4961 18.6604 34.9823 18.6604C25.4684 18.6604 17.711 26.6604 17.711 36.4717Z" fill="#8F2229"/><path fill-rule="evenodd" clip-rule="evenodd" d="M0 36.0755C0 16.1887 15.6979 0 34.9817 0C54.2656 0 69.9634 16.1887 70 36.0755C70 38.3396 69.7804 40.6226 69.3779 42.8491C69.3596 42.9811 69.2865 43.3774 69.1401 44.0566C68.6095 46.5094 67.8228 48.8868 66.7982 51.1698C63.0293 60.3208 54.723 74.3774 36.5552 89.434C36.0978 89.8113 35.5489 90 35 90C34.4511 90 33.9022 89.8113 33.4449 89.434C15.2588 74.3774 6.97073 60.3208 3.20178 51.1698C2.17721 48.8868 1.39049 46.4906 0.859906 44.0566C0.713539 43.3774 0.640355 42.9811 0.622059 42.8491C0.201254 40.6226 0 38.3396 0 36.0755ZM12.7711 36.4717C12.7711 23.8491 22.7423 13.5661 34.9823 13.5661C47.2222 13.5661 57.1935 23.8491 57.1935 36.4717C57.1935 49.0944 47.2222 59.3774 34.9823 59.3774C22.7423 59.3774 12.7711 49.0944 12.7711 36.4717Z" fill="#8F2229"/></svg>