<?xml version="1.0" encoding="utf-8"?><svg xmlns="http://www.w3.org/2000/svg" xmlns:xlink="http://www.w3.org/1999/xlink"><symbol viewBox="0 0 30 12" id="arrow-enter" xmlns="http://www.w3.org/2000/svg"><path d="M25.13 11.447l4.657-4.93a.807.807 0 0 0 0-1.093h-.001L25.129.493a.704.704 0 0 0-1.035 0 .807.807 0 0 0 0 1.096l3.408 3.606H.732c-.404 0-.732.347-.732.775 0 .428.328.774.732.774h26.77l-3.408 3.607a.807.807 0 0 0 0 1.095.698.698 0 0 0 1.035 0z"/></symbol><symbol viewBox="0 0 38 39" id="cabinet-basket" xmlns="http://www.w3.org/2000/svg"><path d="M37.99 33.015L35.272 8.513c-.058-.544-.631-.956-1.301-.956h-5.592C28.3 3.47 24.126.167 19 .167c-5.126 0-9.301 3.303-9.379 7.39H4.03c-.68 0-1.243.412-1.3.956L.008 33.015c0 .03-.009.062-.009.093 0 2.79 3.194 5.059 7.126 5.059h23.748c3.932 0 7.126-2.27 7.126-5.059 0-.031 0-.062-.01-.093zM19 2.265c3.68 0 6.68 2.362 6.757 5.292H12.243C12.32 4.627 15.32 2.265 19 2.265zM30.874 36.07H7.126c-2.466 0-4.466-1.306-4.505-2.914L5.223 9.663h4.389v3.186c0 .583.582 1.05 1.31 1.05.728 0 1.311-.467 1.311-1.05V9.663h13.524v3.186c0 .583.583 1.05 1.311 1.05s1.31-.467 1.31-1.05V9.663h4.389l2.612 23.492c-.04 1.608-2.049 2.914-4.505 2.914z"/></symbol><symbol viewBox="0 0 38 38" id="cabinet-home" xmlns="http://www.w3.org/2000/svg"><path d="M37.65 17.145L19.766.386a.506.506 0 0 0-.102-.082 1.022 1.022 0 0 0-1.43-.024L.352 17.039a1.15 1.15 0 0 0-.086 1.564 1.027 1.027 0 0 0 1.493.09l3.22-3.022v19.544C4.98 36.747 6.167 38 7.637 38h5.643c1.375 0 2.493-1.171 2.493-2.613v-9.936c0-.221.172-.401.383-.401h5.698c.21 0 .383.18.383.401v9.936c0 1.442 1.117 2.613 2.493 2.613h5.643c1.485 0 2.657-1.532 2.657-3.49V15.778l3.22 3.023a1.027 1.027 0 0 0 1.493-.09 1.167 1.167 0 0 0-.094-1.565zm-6.738 17.35c0 .794-.375 1.277-.547 1.277h-5.643a.393.393 0 0 1-.383-.401v-9.92c0-1.442-1.118-2.613-2.493-2.613h-5.698c-1.376 0-2.493 1.171-2.493 2.613v9.936a.393.393 0 0 1-.383.401H7.629a.562.562 0 0 1-.547-.573V13.689L18.946 2.58l11.966 11.214v20.7z"/></symbol><symbol viewBox="0 0 38 39" id="cabinet-order" xmlns="http://www.w3.org/2000/svg"><path d="M25.811 6.813H3.751C1.681 6.813 0 8.159 0 9.817v25.346c0 1.658 1.681 3.004 3.751 3.004h22.06c2.07 0 3.752-1.346 3.752-3.004V9.817c-.01-1.658-1.691-3.004-3.752-3.004zm1.118 28.342c0 .498-.505.903-1.127.903H3.742c-.622 0-1.128-.405-1.128-.903V9.817c0-.498.506-.903 1.127-.903h22.06c.623 0 1.128.405 1.128.903v25.338zM34.249.167h-22.06c-2.07 0-3.752 1.346-3.752 3.004 0 .583.583 1.05 1.312 1.05.729 0 1.312-.467 1.312-1.05 0-.498.505-.903 1.127-.903h22.06c.623 0 1.128.405 1.128.903v25.346c0 .498-.505.903-1.127.903-.73 0-1.312.467-1.312 1.05 0 .584.583 1.051 1.312 1.051 2.07 0 3.75-1.346 3.75-3.004V3.171C38 1.513 36.32.167 34.25.167z"/></symbol><symbol viewBox="0 0 38 39" id="cabinet-profile" xmlns="http://www.w3.org/2000/svg"><path d="M18.84 20.642h.295c2.71-.039 4.903-.85 6.522-2.4 3.562-3.415 2.97-9.27 2.905-9.828-.231-4.195-2.562-6.201-4.487-7.138-1.433-.7-3.108-1.078-4.977-1.11h-.157c-1.027 0-3.044.143-4.977 1.079-1.943.936-4.311 2.943-4.543 7.169-.064.558-.656 6.413 2.905 9.828 1.61 1.55 3.803 2.361 6.513 2.4zM11.891 8.61c0-.023.009-.047.009-.063.305-5.642 5.014-6.248 7.03-6.248h.114c2.498.048 6.744.913 7.03 6.248 0 .024 0 .048.01.063.01.056.657 5.407-2.285 8.224-1.166 1.117-2.72 1.668-4.764 1.684h-.093c-2.035-.016-3.599-.567-4.755-1.684-2.933-2.802-2.304-8.176-2.294-8.224zm26.105 21.743v-.024c0-.063-.009-.126-.009-.197-.055-1.558-.176-5.201-4.19-6.366-.028-.007-.065-.015-.093-.023-4.172-.905-7.642-2.951-7.679-2.975-.564-.338-1.341-.22-1.739.26-.398.48-.259 1.14.305 1.48.158.094 3.84 2.274 8.447 3.28 2.155.654 2.396 2.613 2.46 4.407 0 .071 0 .134.01.197.01.708-.046 1.802-.194 2.432-1.5.724-7.374 3.226-16.31 3.226-8.9 0-14.812-2.51-16.32-3.234-.148-.63-.212-1.724-.194-2.432 0-.063.01-.126.01-.196.064-1.795.305-3.754 2.46-4.407 4.607-1.007 8.29-3.195 8.447-3.282.564-.338.703-.999.305-1.479-.398-.48-1.175-.598-1.74-.26-.036.024-3.487 2.07-7.678 2.975a1.321 1.321 0 0 0-.092.024C.188 24.93.067 28.574.012 30.125c0 .07 0 .133-.01.196v.024c-.009.41-.018 2.51.472 3.565.093.204.26.377.481.495.278.158 6.93 3.762 18.059 3.762 11.13 0 17.78-3.612 18.058-3.762.213-.118.389-.29.481-.495.463-1.047.454-3.148.444-3.557z"/></symbol><symbol viewBox="0 0 17 20" id="contacts-address" xmlns="http://www.w3.org/2000/svg"><path d="M8.017 0C3.597 0 0 3.597 0 8.017A7.89 7.89 0 0 0 .197 9.79c.122.541.302 1.074.537 1.581.863 2.034 2.763 5.157 6.93 8.503a.57.57 0 0 0 .713 0c4.164-3.346 6.067-6.47 6.931-8.503a7.81 7.81 0 0 0 .591-1.849 8.248 8.248 0 0 0 .143-1.505C16.033 3.597 12.436 0 8.017 0zm6.759 9.325c0 .008-.005.017-.005.025a6.544 6.544 0 0 1-.037.18v.009a6.66 6.66 0 0 1-.466 1.367c-.004.004-.004.012-.008.016-.784 1.858-2.503 4.692-6.243 7.782-3.74-3.09-5.46-5.924-6.243-7.782-.005-.004-.005-.012-.009-.016A7.101 7.101 0 0 1 1.3 9.539V9.53c-.025-.096-.034-.159-.038-.18 0-.008-.004-.017-.004-.03a6.847 6.847 0 0 1-.126-1.307c0-3.795 3.09-6.885 6.885-6.885 3.794 0 6.885 3.09 6.885 6.885 0 .444-.042.884-.126 1.312zm-6.76-6.31a5.098 5.098 0 0 0-5.09 5.09 5.098 5.098 0 0 0 5.09 5.09 5.098 5.098 0 0 0 5.09-5.09 5.098 5.098 0 0 0-5.09-5.09zm0 9.048A3.963 3.963 0 0 1 4.06 8.105a3.965 3.965 0 0 1 3.958-3.958 3.965 3.965 0 0 1 3.958 3.958 3.963 3.963 0 0 1-3.958 3.958z"/></symbol><symbol viewBox="0 0 20 20" id="contacts-clock" xmlns="http://www.w3.org/2000/svg"><path d="M18.976 7.9l-1.403-.238a7.923 7.923 0 0 0-.564-1.362l.827-1.157a1.232 1.232 0 0 0-.134-1.592l-1.245-1.245a1.227 1.227 0 0 0-1.588-.133L13.708 3a7.848 7.848 0 0 0-1.412-.581l-.234-1.387A1.234 1.234 0 0 0 10.842 0h-1.76c-.605 0-1.119.435-1.219 1.032l-.242 1.42a7.731 7.731 0 0 0-1.358.573l-1.15-.827a1.226 1.226 0 0 0-.718-.23c-.33 0-.643.13-.873.363l-1.25 1.245a1.237 1.237 0 0 0-.133 1.592l.836 1.174c-.23.439-.414.894-.556 1.366l-1.387.234C.435 8.042 0 8.557 0 9.162v1.76c0 .605.435 1.119 1.032 1.22l1.42.242c.147.467.339.923.573 1.357l-.823 1.145a1.232 1.232 0 0 0 .133 1.592l1.246 1.245a1.226 1.226 0 0 0 1.587.134l1.174-.836c.422.221.865.401 1.32.543l.234 1.404c.1.598.615 1.032 1.22 1.032h1.764c.605 0 1.12-.434 1.22-1.032l.238-1.404A7.923 7.923 0 0 0 13.7 17l1.157.827a1.231 1.231 0 0 0 1.592-.133l1.245-1.245a1.237 1.237 0 0 0 .134-1.592L17 13.695c.23-.438.422-.894.564-1.362l1.404-.234A1.234 1.234 0 0 0 20 10.88V9.122a1.22 1.22 0 0 0-1.024-1.22zm-.096 2.98c0 .054-.037.1-.092.108l-1.754.293a.56.56 0 0 0-.452.413 6.69 6.69 0 0 1-.727 1.75.565.565 0 0 0 .025.615l1.033 1.454a.114.114 0 0 1-.013.142L15.655 16.9a.106.106 0 0 1-.08.033.103.103 0 0 1-.062-.02l-1.45-1.033a.565.565 0 0 0-.614-.025 6.69 6.69 0 0 1-1.75.727.555.555 0 0 0-.414.452l-.297 1.754a.108.108 0 0 1-.108.092H9.12a.108.108 0 0 1-.108-.092l-.293-1.754a.56.56 0 0 0-.413-.452 6.944 6.944 0 0 1-1.713-.702.579.579 0 0 0-.284-.075.55.55 0 0 0-.326.105L4.52 16.95a.125.125 0 0 1-.063.021.112.112 0 0 1-.08-.034l-1.245-1.245a.113.113 0 0 1-.012-.142l1.028-1.441a.572.572 0 0 0 .025-.618 6.624 6.624 0 0 1-.736-1.747.572.572 0 0 0-.45-.413L1.22 11.03a.108.108 0 0 1-.092-.109V9.162c0-.054.038-.1.092-.108l1.742-.293a.565.565 0 0 0 .456-.418 6.682 6.682 0 0 1 .714-1.754.558.558 0 0 0-.03-.61l-1.04-1.463a.114.114 0 0 1 .013-.142L4.32 3.13a.106.106 0 0 1 .08-.033c.024 0 .045.008.062.02l1.441 1.029c.184.13.427.137.619.025a6.625 6.625 0 0 1 1.746-.736.572.572 0 0 0 .414-.45l.3-1.768a.108.108 0 0 1 .11-.092h1.758c.055 0 .1.037.109.092l.292 1.742c.038.221.2.401.418.455.631.16 1.233.406 1.792.736.193.113.43.104.615-.025l1.441-1.036a.124.124 0 0 1 .063-.021c.016 0 .05.004.08.033l1.244 1.245a.113.113 0 0 1 .013.142l-1.032 1.45a.565.565 0 0 0-.025.614c.326.547.568 1.136.727 1.75.054.218.234.38.45.414l1.756.297a.108.108 0 0 1 .091.109v1.758h-.004zm-8.878-5.198a4.319 4.319 0 0 0-4.316 4.316 4.319 4.319 0 0 0 4.316 4.316 4.319 4.319 0 0 0 4.316-4.316 4.319 4.319 0 0 0-4.316-4.316zm0 7.504a3.19 3.19 0 0 1-3.188-3.188 3.19 3.19 0 0 1 3.188-3.188 3.19 3.19 0 0 1 3.188 3.188 3.19 3.19 0 0 1-3.188 3.188z"/></symbol><symbol viewBox="0 0 14 14" id="contacts-email" xmlns="http://www.w3.org/2000/svg"><path d="M7 4.17c1.56 0 2.83 1.27 2.83 2.83a.408.408 0 0 0 .815 0A3.65 3.65 0 0 0 7 3.355 3.65 3.65 0 0 0 3.355 7 3.65 3.65 0 0 0 7 10.645a3.66 3.66 0 0 0 3.15-1.808.408.408 0 0 0-.705-.412A2.842 2.842 0 0 1 7 9.83C5.44 9.83 4.17 8.56 4.17 7S5.44 4.17 7 4.17zm6.98 2.29C13.725 3.058 10.967.29 7.567.022A7.009 7.009 0 0 0 2.05 2.05 7.01 7.01 0 0 0 .022 7.567c.267 3.388 3.023 6.144 6.411 6.411a7.004 7.004 0 0 0 5.517-2.028.408.408 0 0 0-.577-.577 6.195 6.195 0 0 1-4.876 1.792c-2.992-.236-5.426-2.67-5.662-5.662a6.195 6.195 0 0 1 1.792-4.876A6.194 6.194 0 0 1 7.503.835c3.003.237 5.438 2.681 5.664 5.686.03.412.022.825-.027 1.23a1.3 1.3 0 0 1-.694 1 1.125 1.125 0 0 1-1.067-.003.407.407 0 1 0-.39.717 1.93 1.93 0 0 0 1.831.01 2.114 2.114 0 0 0 1.13-1.627c.055-.456.065-.923.03-1.388z"/></symbol><symbol viewBox="0 0 20 20" id="contacts-tel" xmlns="http://www.w3.org/2000/svg"><path d="M15.792 12.39c-.41-.427-.904-.655-1.427-.655-.52 0-1.017.224-1.444.65l-1.333 1.33c-.11-.06-.22-.114-.325-.17a5.389 5.389 0 0 1-.418-.223c-1.25-.793-2.385-1.828-3.474-3.166-.528-.667-.883-1.228-1.14-1.798.346-.316.667-.646.98-.962l.354-.36c.886-.886.886-2.034 0-2.92L6.412 2.963a17.57 17.57 0 0 1-.392-.4 19.93 19.93 0 0 0-.794-.786c-.41-.405-.899-.62-1.414-.62-.515 0-1.013.215-1.435.62l-.008.009L.933 3.234a3.088 3.088 0 0 0-.916 1.962c-.1 1.233.262 2.381.54 3.133.684 1.844 1.706 3.554 3.23 5.386a19.864 19.864 0 0 0 6.614 5.18c.971.46 2.267 1.004 3.715 1.097.089.004.181.008.266.008.975 0 1.794-.35 2.435-1.047.005-.008.013-.012.017-.02.22-.267.473-.508.74-.765.18-.173.366-.354.548-.544.418-.435.637-.942.637-1.461 0-.523-.224-1.026-.65-1.448l-2.317-2.326zm1.51 4.444c-.003.004-.003 0 0 0-.164.177-.332.338-.514.515a11.31 11.31 0 0 0-.815.844c-.426.456-.928.671-1.587.671-.063 0-.13 0-.194-.004-1.254-.08-2.419-.57-3.293-.987a18.751 18.751 0 0 1-6.23-4.88c-1.44-1.735-2.402-3.339-3.04-5.061-.392-1.051-.535-1.87-.472-2.643.042-.494.232-.903.583-1.253l1.439-1.44c.207-.194.426-.3.642-.3.266 0 .48.161.616.296l.013.013c.257.24.502.49.76.755.13.135.265.27.4.41l1.153 1.152c.447.448.447.861 0 1.309-.123.122-.24.244-.363.363-.355.363-.693.7-1.06 1.03-.008.008-.017.012-.02.02-.364.364-.296.718-.22.959l.012.038c.3.726.722 1.41 1.364 2.225l.004.004c1.165 1.435 2.393 2.554 3.748 3.41.173.11.35.199.52.283.152.076.295.148.417.224.017.008.034.021.051.03a.915.915 0 0 0 .418.105c.35 0 .57-.22.642-.291l1.443-1.444c.144-.143.372-.316.638-.316.261 0 .477.164.607.308l.009.008 2.326 2.326c.434.43.434.874.004 1.321zM10.795 4.757c1.106.186 2.11.71 2.912 1.512a5.381 5.381 0 0 1 1.512 2.912.566.566 0 0 0 .561.473c.034 0 .063-.004.097-.008a.57.57 0 0 0 .469-.659 6.51 6.51 0 0 0-1.828-3.525 6.51 6.51 0 0 0-3.525-1.827.573.573 0 0 0-.658.464.564.564 0 0 0 .46.658zm9.169 4.065a10.711 10.711 0 0 0-3.01-5.804A10.711 10.711 0 0 0 11.15.008a.568.568 0 0 0-.654.465.573.573 0 0 0 .468.659 9.59 9.59 0 0 1 5.188 2.688 9.563 9.563 0 0 1 2.689 5.188.566.566 0 0 0 .561.473.56.56 0 0 0 .561-.659z"/></symbol><symbol viewBox="0 0 18 20" id="contacts-user" xmlns="http://www.w3.org/2000/svg"><path d="M8.434 10.777h.132c1.214-.021 2.195-.448 2.92-1.264 1.594-1.797 1.33-4.878 1.3-5.173-.103-2.207-1.147-3.263-2.008-3.756C10.136.215 9.386.017 8.549 0h-.07c-.46 0-1.363.075-2.228.567-.87.493-1.93 1.55-2.034 3.773-.029.295-.294 3.376 1.3 5.173.721.816 1.703 1.243 2.917 1.264zm-3.11-6.333c0-.012.003-.025.003-.033.137-2.97 2.245-3.289 3.148-3.289h.05c1.118.025 3.019.48 3.147 3.289 0 .012 0 .025.004.033.005.029.294 2.845-1.023 4.328-.521.588-1.217.878-2.133.886h-.04c-.912-.008-1.612-.298-2.13-.886-1.313-1.474-1.03-4.303-1.027-4.328zM17.01 15.887v-.012c0-.033-.004-.066-.004-.104-.025-.82-.079-2.737-1.876-3.35-.013-.004-.03-.008-.042-.013-1.868-.476-3.42-1.553-3.437-1.565a.559.559 0 1 0-.642.915c.07.05 1.718 1.197 3.78 1.727.966.344 1.074 1.375 1.103 2.32 0 .037 0 .07.004.103.004.373-.02.949-.087 1.28-.671.38-3.301 1.698-7.302 1.698-3.984 0-6.63-1.321-7.306-1.702-.066-.332-.095-.907-.087-1.28 0-.033.004-.066.004-.104.03-.944.137-1.975 1.102-2.319 2.063-.53 3.711-1.681 3.781-1.727a.558.558 0 1 0-.642-.915c-.016.012-1.561 1.089-3.437 1.565a.264.264 0 0 0-.042.013c-1.797.617-1.85 2.534-1.876 3.35 0 .038 0 .07-.004.104v.012c-.004.216-.008 1.321.211 1.876a.531.531 0 0 0 .216.261C.552 18.103 3.53 20 8.512 20c4.983 0 7.96-1.901 8.085-1.98a.554.554 0 0 0 .215-.26c.207-.552.203-1.657.199-1.873z"/></symbol><symbol viewBox="0 0 80 80" id="delivery-cash" xmlns="http://www.w3.org/2000/svg"><circle opacity=".3" cx="40" cy="40" r="40" fill="#D0CCC7"/><path d="M37.767 29.329a3.938 3.938 0 0 0-3.933 3.933v2.776a3.938 3.938 0 0 0 3.933 3.933 3.937 3.937 0 0 0 3.933-3.933v-2.776a3.938 3.938 0 0 0-3.933-3.933zm0 9.254a2.548 2.548 0 0 1-2.534-2.317 3.91 3.91 0 0 0 2.534.929c.965 0 1.85-.35 2.534-.929a2.548 2.548 0 0 1-2.534 2.317zm0-2.776a2.548 2.548 0 0 1-2.545-2.545 2.548 2.548 0 0 1 2.545-2.545 2.548 2.548 0 0 1 2.545 2.545 2.548 2.548 0 0 1-2.545 2.545zm0-4.165a.694.694 0 0 0-.695.694v1.851a.694.694 0 1 0 1.388 0v-1.85a.694.694 0 0 0-.694-.695zM50.26 21a6.254 6.254 0 0 0-6.246 6.247v2.776a6.254 6.254 0 0 0 6.246 6.246c3.44 0 6.24-2.796 6.246-6.235v-2.787A6.254 6.254 0 0 0 50.26 21zm0 13.881c-2.2 0-4.061-1.47-4.657-3.478a6.232 6.232 0 0 0 9.314 0 4.866 4.866 0 0 1-4.657 3.478zm0-2.776a4.864 4.864 0 0 1-4.858-4.858 4.864 4.864 0 0 1 4.858-4.859 4.864 4.864 0 0 1 4.858 4.859 4.864 4.864 0 0 1-4.858 4.858zm0-7.403a.694.694 0 0 0-.695.693v3.703a.694.694 0 0 0 1.388 0v-3.702a.694.694 0 0 0-.694-.694zm12.709 19.784a3.476 3.476 0 0 0-4.719-1.282c-.3.148-4.14 2.035-7.305 3.367a.694.694 0 0 0 .539 1.28c3.317-1.397 7.36-3.392 7.4-3.411a2.086 2.086 0 0 1 2.883.741c.665 1.15-.373 2.412-.881 2.927-3.446 2.78-12.981 9.908-16.186 9.908-3.553 0-13.522-2.112-15.96-2.64V44.039c4.834-.71 7.395.18 12.762 2.05a221.95 221.95 0 0 0 5.73 1.933c.335.146 1.265.669.91 1.852-.215.719-.91 1.405-1.926 1.215-1.367-.256-9.408-1.347-9.75-1.393a.694.694 0 1 0-.186 1.375c.083.011 8.348 1.132 9.68 1.382.206.04.407.057.601.057 1.474 0 2.557-1.057 2.911-2.238.372-1.242-.014-2.816-1.715-3.535a.165.165 0 0 0-.007-.004l-.006-.002-.029-.01-.028-.011a220.304 220.304 0 0 1-5.728-1.931c-5.352-1.865-8.172-2.846-13.218-2.142v-.58a.694.694 0 0 0-.694-.694h-2.082v-.694a.694.694 0 0 0-.694-.694h-8.577a.694.694 0 0 0-.694.694v15.265a.694.694 0 1 0 1.388 0v-14.57h7.189v16.652H23.19v-.694a.694.694 0 0 0-1.389 0v.694h-5.107a.694.694 0 1 0 0 1.388h8.577c.383 0 .694-.31.694-.694v-.729h2.082c.383 0 .694-.31.694-.694v-.49c2.904.627 12.355 2.607 15.959 2.607 1.897 0 5.26-1.69 10.282-5.166a130.612 130.612 0 0 0 6.806-5.074.717.717 0 0 0 .055-.05c1.507-1.51 1.928-3.24 1.126-4.627zM27.352 55.923v.67h-1.387V42.751h1.387v13.172z"/></symbol><symbol viewBox="0 0 80 80" id="delivery-invoice" xmlns="http://www.w3.org/2000/svg"><circle opacity=".3" cx="40" cy="40" r="40" fill="#D0CCC7"/><path d="M26.98 60h25.08a1.99 1.99 0 0 0 1.98-2V26.667h2.64c.729 0 1.32-.597 1.32-1.334v-2c-.002-1.84-1.479-3.33-3.3-3.333H26.98A1.99 1.99 0 0 0 25 22v36c0 1.105.886 2 1.98 2zM54.7 21.333a1.99 1.99 0 0 1 1.98 2v2h-26.4v-2a3.32 3.32 0 0 0-.677-2H54.7zM26.32 22c0-.368.296-.667.66-.667a1.99 1.99 0 0 1 1.98 2v2c0 .737.59 1.334 1.32 1.334h22.44V58a.663.663 0 0 1-.66.667H26.98a.663.663 0 0 1-.66-.667V22zm3.96 14.667h3.96c.729 0 1.32-.597 1.32-1.334v-.666A.664.664 0 0 0 34.9 34a.664.664 0 0 0-.66.667v.666h-3.96v-4h1.98c.364 0 .66-.298.66-.666a.663.663 0 0 0-.66-.667h-1.98c-.73 0-1.32.597-1.32 1.333v4c0 .737.59 1.334 1.32 1.334zm0 9.333h3.96c.729 0 1.32-.597 1.32-1.333v-4c0-.737-.591-1.334-1.32-1.334h-3.96c-.73 0-1.32.597-1.32 1.334v4c0 .736.59 1.333 1.32 1.333zm0-5.333h3.96v4h-3.96v-4zm0 14.666h3.96c.729 0 1.32-.597 1.32-1.333v-4c0-.736-.591-1.333-1.32-1.333h-3.96c-.73 0-1.32.597-1.32 1.333v4c0 .736.59 1.333 1.32 1.333zm0-5.333h3.96v4h-3.96v-4zm7.92-17.333h3.3c.364 0 .66-.299.66-.667a.663.663 0 0 0-.66-.667h-3.3a.663.663 0 0 0-.66.667c0 .368.295.667.66.667zm5.94 0h6.6c.364 0 .66-.299.66-.667a.663.663 0 0 0-.66-.667h-6.6a.663.663 0 0 0-.66.667c0 .368.295.667.66.667zm-5.94 2.666h6.6c.364 0 .66-.298.66-.666A.664.664 0 0 0 44.8 34h-6.6a.663.663 0 0 0-.66.667c0 .368.295.666.66.666zM50.74 34h-3.3a.663.663 0 0 0-.66.667c0 .368.295.666.66.666h3.3c.364 0 .66-.298.66-.666a.663.663 0 0 0-.66-.667zM38.2 42h3.3c.364 0 .66-.298.66-.667a.663.663 0 0 0-.66-.666h-3.3a.663.663 0 0 0-.66.666c0 .369.295.667.66.667zm12.54-1.333h-6.6a.663.663 0 0 0-.66.666c0 .369.295.667.66.667h6.6c.364 0 .66-.298.66-.667a.663.663 0 0 0-.66-.666zm-12.54 4h6.6c.364 0 .66-.299.66-.667a.664.664 0 0 0-.66-.667h-6.6a.663.663 0 0 0-.66.667c0 .368.295.667.66.667zm12.54-1.334h-3.3a.663.663 0 0 0-.66.667c0 .368.295.667.66.667h3.3c.364 0 .66-.299.66-.667a.663.663 0 0 0-.66-.667zm-12.54 8h3.3c.364 0 .66-.298.66-.666A.663.663 0 0 0 41.5 50h-3.3a.663.663 0 0 0-.66.667c0 .368.295.666.66.666zM50.74 50h-6.6a.663.663 0 0 0-.66.667c0 .368.295.666.66.666h6.6c.364 0 .66-.298.66-.666a.663.663 0 0 0-.66-.667zM38.2 54h6.6c.364 0 .66-.298.66-.667a.664.664 0 0 0-.66-.666h-6.6a.663.663 0 0 0-.66.666c0 .369.295.667.66.667zm12.54-1.333h-3.3a.663.663 0 0 0-.66.666c0 .369.295.667.66.667h3.3c.364 0 .66-.298.66-.667a.663.663 0 0 0-.66-.666zM32.067 32.195a.656.656 0 0 0-.926.008.672.672 0 0 0-.008.935l1.32 1.333a.657.657 0 0 0 .467.196h.055a.659.659 0 0 0 .482-.278l3.3-4.666a.671.671 0 0 0 .064-.664.657.657 0 1 0-1.138-.111l-2.847 4.026-.77-.779z"/></symbol><symbol viewBox="0 0 80 80" id="delivery-online" xmlns="http://www.w3.org/2000/svg"><circle opacity=".3" cx="40" cy="40" r="40" fill="#D0CCC7"/><path d="M28.239 36.13a.646.646 0 0 1-.646-.646h-1.29c0 .84.541 1.55 1.29 1.817v1.409h1.29V37.3a1.933 1.933 0 0 0 1.291-1.816 1.938 1.938 0 0 0-1.935-1.936.646.646 0 1 1 .645-.645h1.29c0-.84-.541-1.55-1.29-1.816v-1.41h-1.29v1.41a1.93 1.93 0 0 0 .645 3.752.646.646 0 0 1 0 1.29zM52.755 20H35.981a3.23 3.23 0 0 0-3.226 3.226v5.497a7.064 7.064 0 0 0-4.516-1.626c-3.913 0-7.097 3.184-7.097 7.096 0 1.715.61 3.289 1.627 4.517H21l1.237 6.185a1.94 1.94 0 0 0 1.898 1.557h11.2a.646.646 0 0 1 0 1.29H23.724a2.583 2.583 0 0 0-2.58 2.58 2.583 2.583 0 0 0 2.58 2.581 2.583 2.583 0 0 0 2.58-2.58c0-.473-.137-.91-.358-1.29h4.588a2.55 2.55 0 0 0-.359 1.29 2.583 2.583 0 0 0 2.581 2.58v3.871A3.23 3.23 0 0 0 35.981 60h16.774a3.23 3.23 0 0 0 3.226-3.226V23.226A3.23 3.23 0 0 0 52.755 20zm-16.774 1.29h16.774c1.067 0 1.935.869 1.935 1.936v.645H34.046v-.645c0-1.067.868-1.936 1.936-1.936zm-7.742 7.097a5.813 5.813 0 0 1 5.806 5.806A5.813 5.813 0 0 1 28.24 40a5.813 5.813 0 0 1-5.807-5.806 5.813 5.813 0 0 1 5.807-5.807zm-4.736 16.255L22.574 40h1.598a7.052 7.052 0 0 0 8.135 0h3.343l-.86 5.161H24.135a.647.647 0 0 1-.633-.519zm1.51 5.68a1.292 1.292 0 0 1-2.58 0 1.292 1.292 0 0 1 2.58 0zm6.452 0a1.291 1.291 0 0 1 2.58 0 1.29 1.29 0 0 1-2.58 0zm3.87 0c0-.472-.136-.909-.358-1.29h.359a1.938 1.938 0 0 0 1.935-1.935c0-.807-.496-1.498-1.199-1.788l1.96-11.76h3.755a1.938 1.938 0 0 0 1.936-1.936 1.938 1.938 0 0 0-1.936-1.936H37.37l-1.505 9.033h-2.156a7.065 7.065 0 0 0 1.627-4.517c0-1.513-.48-2.914-1.29-4.067V25.16H54.69v28.387H34.044v-1.004a2.572 2.572 0 0 0 1.29-2.221zm2.913-18.064l.215-1.29h3.324a.646.646 0 0 1 0 1.29h-3.54zM52.755 58.71H35.981a1.938 1.938 0 0 1-1.936-1.936V54.84H54.69v1.935a1.938 1.938 0 0 1-1.935 1.936zm-10.323-2.58h3.871v1.29h-3.87v-1.29zM53.4 26.451H35.337v2.594h1.29v-1.304H52.11v23.226H36.626v1.29h16.775V26.452z"/></symbol><symbol viewBox="0 0 80 80" id="delivery-pickup" xmlns="http://www.w3.org/2000/svg"><circle opacity=".3" cx="40" cy="40" r="40" fill="#D0CCC7"/><path d="M21.624 23.247h4.685a3.039 3.039 0 0 1 3.036 3.036v22.904a4.423 4.423 0 1 0 4.908 5.06h23.92a.624.624 0 1 0 0-1.247H34.264a4.432 4.432 0 0 0-3.673-3.789V26.284A4.289 4.289 0 0 0 26.31 22h-4.685a.624.624 0 1 0 0 1.247zm11.433 30.33a3.176 3.176 0 1 1-6.352 0 3.176 3.176 0 0 1 6.352 0zm4.432-2.067h14.632a2.606 2.606 0 0 0 2.603-2.603v-10.01h.774c.344 0 .624-.28.624-.624V35.51a2.606 2.606 0 0 0-2.603-2.602h-1.947l.185-.19a2.476 2.476 0 1 0-3.503-3.503l-3.395 3.396-2.49-2.49a2.477 2.477 0 0 0-4 2.787h-2.277a2.606 2.606 0 0 0-2.604 2.603v2.762c0 .345.28.624.624.624h.774v10.01a2.606 2.606 0 0 0 2.603 2.603zm-1.355-2.603v-10.01h5.594v11.366H37.49a1.357 1.357 0 0 1-1.355-1.356zm8.673-14.752h1.953v3.494h-3.784v-3.494h1.831zm1.953 4.742v11.366h-3.784V38.897h3.784zm6.717 10.01a1.358 1.358 0 0 1-1.356 1.356h-4.113V38.897h5.469v10.01zm1.397-13.397v2.14h-6.866v-3.495h5.511c.748 0 1.355.607 1.355 1.355zm-5.738-5.412a1.23 1.23 0 0 1 1.732 1.744l-1.038 1.066h-2.338a.597.597 0 0 0-.217 0h-.948l2.809-2.81zm-9.386 2.644a1.229 1.229 0 1 1 1.738-1.738l1.904 1.903h-.932a.597.597 0 0 0-.216 0h-2.33l-.164-.165zm-5.014 2.768a1.357 1.357 0 0 1 1.356-1.355h5.636v3.494h-6.992V35.51z"/></symbol><symbol viewBox="0 0 80 80" id="delivery-post" xmlns="http://www.w3.org/2000/svg"><circle opacity=".3" cx="40" cy="40" r="40" fill="#D0CCC7"/><path d="M57.348 27.938a.652.652 0 0 0-.228-.212l-11.945-6.644a.648.648 0 0 0-.886.264.67.67 0 0 0 .26.901l9.764 5.432h-27.3l9.764-5.432a.67.67 0 0 0 .26-.901.648.648 0 0 0-.887-.264l-11.884 6.61c-1.286.134-2.264 1.235-2.266 2.55v24.59c.002 1.197.955 2.167 2.13 2.168h32.505c1.176-.001 2.13-.97 2.131-2.167v-24.59a2.57 2.57 0 0 0-1.418-2.305zm-21.657 1.07h9.39a.673.673 0 0 0-.103.356v7.8l-.62-.672a.649.649 0 0 0-.952 0l-1.273 1.381-1.273-1.38a.649.649 0 0 0-.953 0l-1.274 1.38-1.273-1.38a.649.649 0 0 0-.953 0l-.62.672v-7.812a.67.67 0 0 0-.096-.345zM57.46 54.833a.833.833 0 0 1-.825.838H24.131a.832.832 0 0 1-.825-.838v-24.59a1.226 1.226 0 0 1 1.213-1.235h10.057a.67.67 0 0 0-.096.345v9.492c0 .273.164.518.414.618.249.1.533.036.716-.163l1.274-1.382 1.273 1.381a.648.648 0 0 0 .953 0l1.274-1.381 1.273 1.381a.648.648 0 0 0 .953 0l1.272-1.38 1.273 1.38a.646.646 0 0 0 .717.164c.25-.1.413-.345.413-.618v-9.48a.667.667 0 0 0-.102-.357h10.063c.67.001 1.213.553 1.214 1.234v24.59zm-25.475-9.034h-5.6a.659.659 0 0 0-.652.665v3.227c0 .367.292.664.653.664h5.599c.36 0 .653-.297.653-.664v-3.227a.659.659 0 0 0-.653-.665zm-.654 3.228H27.04v-1.899h4.292v1.899zm12.318-3.228h-8.492a.659.659 0 0 0-.653.665c0 .367.293.664.653.664h8.492c.36 0 .653-.297.653-.664a.659.659 0 0 0-.653-.665zm-4.2 2.468h-4.292a.659.659 0 0 0-.653.665.66.66 0 0 0 .653.664h4.293a.66.66 0 0 0 .653-.664.659.659 0 0 0-.653-.665z"/></symbol><symbol viewBox="0 0 80 80" id="delivery-transport" xmlns="http://www.w3.org/2000/svg"><circle opacity=".3" cx="40" cy="40" r="40" fill="#D0CCC7"/><path d="M21.038 54.071h2.092A4.72 4.72 0 0 0 27.788 58a4.72 4.72 0 0 0 4.658-3.929h14.31A4.72 4.72 0 0 0 51.412 58a4.72 4.72 0 0 0 4.658-3.929h2.092a3.037 3.037 0 0 0 3.037-3.03V40.968l-.003-.043a.547.547 0 0 0-.01-.075l-.007-.037a.569.569 0 0 0-.035-.11.588.588 0 0 0-.014-.036l-.017-.034a1.028 1.028 0 0 0-.082-.129.535.535 0 0 0-.027-.033l-.013-.015-5.795-6.3a3.05 3.05 0 0 0-2.238-.98H42.467V25.03A3.038 3.038 0 0 0 39.429 22H21.037A3.037 3.037 0 0 0 18 25.03v26.01a3.037 3.037 0 0 0 3.038 3.031zm6.75 2.357a3.146 3.146 0 0 1-3.15-3.142 3.147 3.147 0 0 1 3.15-3.143c1.74 0 3.15 1.407 3.15 3.142a3.15 3.15 0 0 1-3.15 3.143zm23.625 0a3.146 3.146 0 0 1-3.15-3.142 3.147 3.147 0 0 1 3.15-3.143c1.74 0 3.15 1.407 3.15 3.142a3.15 3.15 0 0 1-3.15 3.143zm8.212-5.387c0 .806-.655 1.458-1.462 1.459H56.07a4.72 4.72 0 0 0-4.658-3.929 4.72 4.72 0 0 0-4.658 3.929h-4.287V41.773h17.158v9.268zm-6.666-16.294c.41 0 .8.172 1.077.473l4.585 4.983H42.466v-5.456h10.493zm-33.384-9.716c0-.806.655-1.459 1.463-1.46h18.391a1.464 1.464 0 0 1 1.463 1.46V52.5h-8.446a4.721 4.721 0 0 0-4.658-3.929 4.721 4.721 0 0 0-4.659 3.929h-2.091a1.462 1.462 0 0 1-1.463-1.46V25.03zm10.658 14.744c2.016 0 3.655-1.67 3.655-3.724 0-2.053-1.64-3.724-3.655-3.724-2.015 0-3.655 1.67-3.655 3.724 0 2.053 1.64 3.724 3.655 3.724zm0-5.876c1.148 0 2.08.965 2.08 2.152 0 1.187-.933 2.152-2.08 2.152s-2.08-.965-2.08-2.152c0-1.187.933-2.152 2.08-2.152zm-5.365 7.943l4.791 5.091a.788.788 0 0 0 1.148 0l4.79-5.091a7.943 7.943 0 0 0 1.71-2.71 7.398 7.398 0 0 0 .448-3.052 7.833 7.833 0 0 0-2.27-5.014 7.426 7.426 0 0 0-10.504 0 7.83 7.83 0 0 0-2.27 5.014 7.396 7.396 0 0 0 .449 3.053 7.925 7.925 0 0 0 1.708 2.709zm-.585-5.658a6.263 6.263 0 0 1 1.814-4.01 5.848 5.848 0 0 1 8.273 0 6.263 6.263 0 0 1 1.813 4.01c.052.819-.07 1.64-.356 2.41a6.384 6.384 0 0 1-1.377 2.172l-4.217 4.481-4.216-4.48a6.382 6.382 0 0 1-1.378-2.173 5.84 5.84 0 0 1-.356-2.41z"/></symbol><symbol viewBox="0 0 12 12" id="icon-add" xmlns="http://www.w3.org/2000/svg"><path d="M6.375.375a.375.375 0 1 0-.75 0v5.25H.375a.375.375 0 1 0 0 .75h5.25v5.25a.375.375 0 0 0 .75 0v-5.25h5.25a.375.375 0 0 0 0-.75h-5.25V.375z"/></symbol><symbol fill="none" viewBox="0 0 80 80" id="icon-adv1" xmlns="http://www.w3.org/2000/svg"><ellipse opacity=".5" cx="41.559" cy="40" rx="33.643" ry="34" fill="#D0CCC7"/><path d="M42.635 54.054L25.672 36.909a1.323 1.323 0 0 0-1.869.017 1.357 1.357 0 0 0-.016 1.888l16.964 17.145c.523.51 1.354.503 1.868-.017s.521-1.36.016-1.888zM20.022 42.626a1.325 1.325 0 0 0-1.296-.368c-.466.124-.83.491-.952.962s.017.971.364 1.31l16.96 17.142c.334.35.829.49 1.295.367a1.34 1.34 0 0 0 .952-.962 1.355 1.355 0 0 0-.364-1.31l-16.959-17.14z" fill="#8F2229"/><path d="M78.727 51.573a1.335 1.335 0 0 0-1.48 1.18c-.876 7.38-7.486 12.66-14.794 11.818-4.304-.506-8.09-3.109-10.137-6.97l17.772-17.958a4.063 4.063 0 0 0 1.168-2.996l-.434-12.74c5.628-1.375 9.482-6.617 9.16-12.46C79.658 5.606 75.251.83 69.506.098 63.762-.638 58.32 2.882 56.57 8.46l-13.672-.475a3.922 3.922 0 0 0-2.967 1.18L1.17 48.338a4.077 4.077 0 0 0 0 5.715l24.503 24.763a3.969 3.969 0 0 0 5.653 0l19.028-19.23c3.544 5.897 10.402 8.869 17.072 7.398s11.678-7.06 12.469-13.913a1.357 1.357 0 0 0-.276-.994 1.328 1.328 0 0 0-.891-.505zM68.002 2.698c4.613.01 8.525 3.425 9.207 8.035.681 4.61-2.073 9.032-6.482 10.404l-.288-8.427c-.077-2.12-1.759-3.82-3.856-3.9l-7.212-.25c1.435-3.542 4.844-5.857 8.63-5.862zM29.44 76.913a1.324 1.324 0 0 1-1.885 0L3.055 52.15a1.353 1.353 0 0 1 0-1.907L41.817 11.07a1.34 1.34 0 0 1 .989-.393l13.25.46c-.027.328-.049.655-.049.99 0 1.12.156 2.234.46 3.311-.226.155-.44.33-.638.52a5.428 5.428 0 0 0 0 7.62 5.291 5.291 0 0 0 7.54 0 5.428 5.428 0 0 0-.001-7.62 5.32 5.32 0 0 0-4.37-1.472 9.536 9.536 0 0 1-.325-2.36c0-.302.016-.6.044-.896l7.773.27a1.34 1.34 0 0 1 1.287 1.3l.816 23.938c.013.374-.128.736-.39 1L29.44 76.912zm28.108-58.847c.294.531.628 1.039.997 1.52a1.327 1.327 0 0 0 2.314-.306 1.358 1.358 0 0 0-.214-1.351c-.197-.257-.352-.54-.521-.808a2.675 2.675 0 0 1 2.025 1.862 2.71 2.71 0 0 1-.667 2.683 2.708 2.708 0 0 1-3.77 0 2.687 2.687 0 0 1-.164-3.606v.006z" fill="#8F2229"/></symbol><symbol fill="none" viewBox="0 0 80 80" id="icon-adv2" xmlns="http://www.w3.org/2000/svg"><circle opacity=".5" cx="35" cy="40" r="34" fill="#D0CCC7"/><path d="M61.301 35.324a4.598 4.598 0 0 0-4.593-4.593h-8.44c2.05-2.305 3.39-4.93 3.65-7.285.157-1.438-.287-2.866-1.22-3.917a4.403 4.403 0 0 0-3.285-1.508h-.044a4.568 4.568 0 0 0-3.238 1.33 4.536 4.536 0 0 0-1.352 3.224c-.045.267-.515 1.189-1.666 2.283-.942.897-2.57 2.129-4.973 2.909-.942.306-1.803.87-2.559 1.674-.397.422-.99 1.005-1.726 1.59a2.57 2.57 0 0 0-1.208-.3h-8.016a2.592 2.592 0 0 0-2.59 2.589v21.378a2.592 2.592 0 0 0 2.59 2.588h8.016a2.59 2.59 0 0 0 2.264-1.336h20.457a3.93 3.93 0 0 0 3.925-3.925 3.9 3.9 0 0 0-.546-1.994 3.926 3.926 0 0 0 1.336-5.345 3.926 3.926 0 0 0 1.199-5.56 4.593 4.593 0 0 0 2.02-3.802zm-4.593 2.087h-.668a1.253 1.253 0 0 0 0 2.505c.783 0 1.42.637 1.42 1.42 0 .783-.637 1.42-1.42 1.42h-1.336a1.253 1.253 0 0 0 0 2.505c.783 0 1.42.637 1.42 1.42 0 .783-.637 1.42-1.42 1.42h-1.336a1.253 1.253 0 0 0 0 2.505c.783 0 1.42.637 1.42 1.42 0 .782-.637 1.42-1.42 1.42H33.236v-12.11a1.253 1.253 0 0 0-2.505 0v13.362a.083.083 0 0 1-.084.083h-8.016a.083.083 0 0 1-.084-.083V33.319c0-.046.037-.083.084-.083h8.016c.046 0 .084.037.084.083v2.673a1.253 1.253 0 1 0 2.505 0v-2.673c0-.06-.005-.12-.01-.18a19.021 19.021 0 0 0 2.181-1.983c.464-.494.97-.833 1.507-1.006 2.948-.958 4.932-2.499 6.077-3.623 1.436-1.41 2.292-2.879 2.292-3.93 0-.556.217-1.077.61-1.467a2.1 2.1 0 0 1 1.497-.604 1.908 1.908 0 0 1 1.434.666c.457.515.682 1.255.603 1.98-.274 2.49-2.264 5.566-5.071 7.838a1.253 1.253 0 0 0 .788 2.226h11.564a2.09 2.09 0 0 1 2.087 2.088 2.09 2.09 0 0 1-2.087 2.087z" fill="#8F2229"/><path d="M26.639 49.423c-.692 0-1.26.567-1.26 1.26 0 .69.568 1.258 1.26 1.258.692 0 1.26-.567 1.26-1.259s-.568-1.26-1.26-1.26z" fill="#8F2229"/><path d="M77.767 40l2.152-5.694c.157-.414.083-.88-.194-1.226l-3.806-4.751.287-6.08a1.253 1.253 0 0 0-.564-1.106L70.554 17.8l-1.606-5.872a1.253 1.253 0 0 0-.877-.878l-5.872-1.606-3.342-5.087a1.254 1.254 0 0 0-1.106-.564l-6.08.287L46.92.275a1.253 1.253 0 0 0-1.227-.194L40 2.233 34.306.08a1.252 1.252 0 0 0-1.226.194L28.33 4.08l-6.081-.287a1.25 1.25 0 0 0-1.106.564L17.8 9.446l-5.872 1.606c-.427.117-.76.45-.877.877l-1.606 5.872-5.088 3.342c-.37.243-.584.663-.563 1.106l.286 6.08-3.806 4.75c-.277.346-.35.813-.194 1.227L2.233 40 .08 45.694c-.157.414-.083.88.194 1.226l3.806 4.75-.287 6.081c-.02.442.194.863.564 1.106L9.446 62.2l1.606 5.872c.117.427.45.76.877.877l5.872 1.606 3.342 5.088c.243.37.664.583 1.106.564l6.08-.287 4.75 3.806c.346.277.813.35 1.227.194L40 77.767l5.694 2.152a1.253 1.253 0 0 0 1.226-.194l4.75-3.806 6.081.287c.444.02.863-.194 1.106-.564l3.342-5.088 5.872-1.606c.427-.116.76-.45.877-.877l1.606-5.872 5.088-3.342c.37-.243.585-.664.564-1.106l-.287-6.08 3.806-4.75c.277-.346.35-.813.194-1.227L77.767 40zm-2.51.443l2.066 5.468-3.655 4.563a1.252 1.252 0 0 0-.274.842l.276 5.84-4.886 3.209c-.255.167-.44.422-.521.716l-1.543 5.64-5.638 1.542c-.295.08-.55.265-.717.52l-3.21 4.886-5.839-.275a1.253 1.253 0 0 0-.842.274l-4.563 3.655-5.468-2.067a1.25 1.25 0 0 0-.886 0l-5.468 2.067-4.563-3.655a1.254 1.254 0 0 0-.842-.274l-5.84.275-3.209-4.886a1.252 1.252 0 0 0-.716-.52l-5.64-1.543-1.542-5.639a1.253 1.253 0 0 0-.52-.716l-4.886-3.21.275-5.84a1.252 1.252 0 0 0-.274-.841L2.677 45.91l2.067-5.468c.108-.286.108-.6 0-.886L2.677 34.09l3.655-4.563c.191-.238.289-.537.274-.842l-.275-5.84 4.886-3.21c.255-.166.44-.421.52-.716l1.543-5.638 5.639-1.543a1.25 1.25 0 0 0 .716-.52l3.21-4.887 5.84.276c.303.014.603-.083.841-.274l4.563-3.655 5.468 2.067c.286.107.6.107.886 0l5.468-2.067 4.563 3.655c.238.191.538.288.842.274l5.84-.276 3.21 4.886c.166.255.421.44.716.521l5.639 1.543 1.542 5.638c.08.295.265.55.52.717l4.887 3.21-.276 5.839c-.014.305.083.604.274.842l3.655 4.563-2.067 5.468c-.107.286-.107.6 0 .886z" fill="#8F2229"/><path d="M63.537 18.37a32.822 32.822 0 0 0-1.965-1.964 1.253 1.253 0 1 0-1.694 1.846 30.47 30.47 0 0 1 1.813 1.813 1.25 1.25 0 0 0 1.77.075c.51-.467.543-1.26.076-1.77zm-6.413-5.382C51.084 9.14 43.81 7.43 36.646 8.171a32.054 32.054 0 0 0-19.302 9.197A31.888 31.888 0 0 0 8.003 38.68c-.324 8 2.325 15.766 7.46 21.868a1.25 1.25 0 0 0 1.765.152c.53-.445.597-1.236.152-1.765a29.377 29.377 0 0 1-6.874-20.153 29.388 29.388 0 0 1 8.61-19.644 29.54 29.54 0 0 1 17.788-8.476c6.605-.684 13.308.892 18.873 4.438a1.252 1.252 0 1 0 1.347-2.113zm9.831 9.832a1.253 1.253 0 1 0-2.113 1.345c3.546 5.566 5.122 12.269 4.438 18.874a29.542 29.542 0 0 1-8.476 17.789 29.39 29.39 0 0 1-19.644 8.61 29.375 29.375 0 0 1-20.153-6.875 1.252 1.252 0 1 0-1.613 1.917 31.86 31.86 0 0 0 21.868 7.46 31.887 31.887 0 0 0 21.314-9.34 32.051 32.051 0 0 0 9.196-19.303c.742-7.165-.969-14.437-4.817-20.478z" fill="#8F2229"/></symbol><symbol fill="none" viewBox="0 0 80 80" id="icon-adv3" xmlns="http://www.w3.org/2000/svg"><circle opacity=".5" cx="40" cy="40" r="34" fill="#D0CCC7"/><path d="M77.311 59.152H73.63V55.43h2.165a2.692 2.692 0 0 0 2.688-2.689v-3.033a2.692 2.692 0 0 0-2.689-2.689H73.63v-4.936h2.165a2.692 2.692 0 0 0 2.688-2.689V26.956a2.692 2.692 0 0 0-2.689-2.688h-2.26c-.56-3.437-3.55-6.067-7.143-6.067h-.345v-2.493a2.737 2.737 0 0 0 1.517-2.448V7.285c0-1.071-.619-2-1.517-2.448V1.93c0-1.064-.866-1.93-1.93-1.93h-4.55c-1.065 0-1.93.866-1.93 1.93v2.907a2.737 2.737 0 0 0-1.517 2.448v5.975c0 1.07.618 2 1.517 2.448v2.493h-5.24V7.997a3.45 3.45 0 0 0-3.447-3.447 3.45 3.45 0 0 0-3.447 3.447v10.204H22.06v-2.165a2.692 2.692 0 0 0-2.689-2.689H16.34a2.692 2.692 0 0 0-2.688 2.689V18.2h-.345c-3.992 0-7.24 3.247-7.24 7.238v16.684a4.21 4.21 0 0 0 4.206 4.206h3.378v2.165a2.692 2.692 0 0 0 2.69 2.688h.344v1.903h-.345a1.172 1.172 0 0 0 0 2.344h.345v1.6H5.182a2.736 2.736 0 0 0-2.668 2.129A2.692 2.692 0 0 0 0 61.84v10.541a2.692 2.692 0 0 0 2.689 2.689h7.928v2.24A2.692 2.692 0 0 0 13.306 80h7.887a2.692 2.692 0 0 0 2.688-2.689v-2.24H56.12v2.24A2.692 2.692 0 0 0 58.807 80h7.887a2.692 2.692 0 0 0 2.689-2.689v-2.24h7.928A2.692 2.692 0 0 0 80 72.382V61.841a2.692 2.692 0 0 0-2.689-2.689zm-3.681-32.54h2.165c.19 0 .344.154.344.344v12.437c0 .19-.154.345-.344.345H73.63V26.611zm0 22.75h2.165c.19 0 .344.155.344.345v3.033c0 .19-.154.345-.344.345H73.63v-3.723zM59.98 2.344h3.722V4.55H59.98V2.344zm-1.517 9.1h3.378a1.172 1.172 0 0 0 0-2.344h-3.379V7.285c0-.216.176-.391.391-.391h5.975a.39.39 0 0 1 .391.39v5.976a.39.39 0 0 1-.39.39h-5.976a.391.391 0 0 1-.39-.39v-1.816zm5.24 4.55v2.207h-3.724v-2.207h3.723zm-14.754-9.1c.608 0 1.103.495 1.103 1.103v10.204h-2.206V7.997c0-.608.494-1.103 1.103-1.103zm-32.955 9.142c0-.19.155-.345.345-.345h3.034c.19 0 .344.155.344.345V18.2h-3.723v-2.165zm4.482 14.712a2.623 2.623 0 0 1-2.62 2.62 2.623 2.623 0 0 1-2.62-2.62 2.623 2.623 0 0 1 2.62-2.62 2.623 2.623 0 0 1 2.62 2.62zM10.272 43.985a1.864 1.864 0 0 1-1.861-1.862V25.44a4.9 4.9 0 0 1 4.895-4.896h3.378v5.38a4.973 4.973 0 0 0-3.792 4.824 4.973 4.973 0 0 0 3.792 4.824v5.035a1.172 1.172 0 0 0 2.344 0v-5.035a4.973 4.973 0 0 0 3.792-4.824 4.973 4.973 0 0 0-3.792-4.824v-5.38H66.39a4.9 4.9 0 0 1 4.895 4.895v33.637H42.992V42.123a4.21 4.21 0 0 0-4.205-4.205h-12.68a4.217 4.217 0 0 0-4.124 3.38l-.239 1.19a1.867 1.867 0 0 1-1.825 1.497h-9.647zm6.067 4.853a.345.345 0 0 1-.345-.344v-2.165h3.723v2.165c0 .19-.154.344-.345.344H16.34zm5.199 28.473c0 .19-.155.345-.345.345h-7.887a.345.345 0 0 1-.345-.345v-2.24h8.577v2.24zm45.501 0c0 .19-.154.345-.345.345h-7.887a.345.345 0 0 1-.345-.345v-2.24h8.577v2.24zM77.656 65.22h-19a1.172 1.172 0 0 0 0 2.344h19v4.819c0 .19-.154.345-.345.345H2.69a.345.345 0 0 1-.345-.345V61.841c0-.19.154-.345.345-.345h.372c.26.32.594.58.98.758l12.674 5.813a2.734 2.734 0 0 0 2.282 0l12.673-5.813a2.73 2.73 0 0 0 1.497-1.758 2.736 2.736 0 0 0-2.638-3.466h-8.313a1.172 1.172 0 0 0 0 2.343h8.313a.393.393 0 0 1 .164.75L18.02 65.937a.392.392 0 0 1-.328 0L5.018 60.123a.388.388 0 0 1-.214-.252.393.393 0 0 1 .379-.498h11.501v.951a1.172 1.172 0 1 0 2.344 0v-9.142h.345a2.692 2.692 0 0 0 2.688-2.688v-2.755a4.21 4.21 0 0 0 1.982-2.79l.238-1.19a1.867 1.867 0 0 1 1.825-1.497h12.68c1.027 0 1.862.835 1.862 1.861v17.03h-4.92a1.172 1.172 0 0 0 0 2.343h41.583c.19 0 .345.155.345.345v3.378z" fill="#8F2229"/><path d="M57.29 53.912c4.828 0 8.756-3.927 8.756-8.755 0-4.828-3.928-8.756-8.755-8.756-4.828 0-8.756 3.928-8.756 8.756s3.928 8.755 8.756 8.755zm0-15.167a6.419 6.419 0 0 1 6.412 6.412 6.419 6.419 0 0 1-6.411 6.412 6.419 6.419 0 0 1-6.412-6.412 6.419 6.419 0 0 1 6.412-6.412zm-4.504-7.583h10.526a2.738 2.738 0 0 0 2.734-2.735v-1.425a2.738 2.738 0 0 0-2.734-2.734H52.786a2.738 2.738 0 0 0-2.734 2.734v1.425a2.738 2.738 0 0 0 2.734 2.735zm-.39-4.16a.39.39 0 0 1 .39-.39h10.526a.39.39 0 0 1 .39.39v1.425a.39.39 0 0 1-.39.39H52.786a.391.391 0 0 1-.39-.39v-1.425z" fill="#8F2229"/><path d="M57.29 49.362a4.21 4.21 0 0 0 4.206-4.205 4.21 4.21 0 0 0-4.205-4.205 4.21 4.21 0 0 0-4.206 4.205 4.21 4.21 0 0 0 4.206 4.205zm0-6.067c1.027 0 1.862.836 1.862 1.862a1.864 1.864 0 0 1-1.861 1.862 1.864 1.864 0 0 1-1.862-1.862c0-1.026.835-1.862 1.862-1.862zm-2.957 21.924H29.99a1.172 1.172 0 0 0 0 2.344h24.343a1.172 1.172 0 0 0 0-2.344z" fill="#8F2229"/></symbol><symbol fill="none" viewBox="0 0 80 80" id="icon-adv4" xmlns="http://www.w3.org/2000/svg"><circle opacity=".5" cx="40" cy="42" r="34" fill="#D0CCC7"/><path d="M63.42 45.507a40.94 40.94 0 0 0-.314-.651c-1.419-2.886-3.077-5.46-4.913-7.665a1.186 1.186 0 0 0-.191-.23c-2.566-3.024-5.473-5.328-8.564-6.748a16.069 16.069 0 0 1 .003-6.265l.69-3.465a1.171 1.171 0 1 0-2.298-.457l-.69 3.463a18.44 18.44 0 0 0-.227 5.772 17.86 17.86 0 0 0-4.917-.744h-.028a2.638 2.638 0 0 0-.336 0 17.9 17.9 0 0 0-4.911.743 18.322 18.322 0 0 0-.23-5.77L34.38 12.873a.083.083 0 0 1 .047-.092l3.704-1.653a4.78 4.78 0 0 0 2.774-3.74l.075-.583h1.678l.074.585a4.788 4.788 0 0 0 2.776 3.738l3.703 1.653a.082.082 0 0 1 .047.09l-.535 2.687a1.171 1.171 0 1 0 2.298.458l.535-2.686a2.412 2.412 0 0 0-1.39-2.69l-3.701-1.652a2.426 2.426 0 0 1-1.408-1.895l-.175-1.378a1.432 1.432 0 0 0-.254-.647v-3.31A1.76 1.76 0 0 0 42.87 0h-2.102a1.76 1.76 0 0 0-1.758 1.758v3.31a1.426 1.426 0 0 0-.254.647l-.176 1.379a2.422 2.422 0 0 1-1.406 1.894l-3.704 1.653a2.416 2.416 0 0 0-1.389 2.687l2.115 10.62a15.97 15.97 0 0 1 .005 6.264c-3.091 1.419-5.998 3.723-8.563 6.747a1.18 1.18 0 0 0-.197.234c-1.835 2.204-3.49 4.777-4.908 7.66C16.912 52.216 15 61.043 15 70.377c0 .648.525 1.172 1.172 1.172h24.474v1.648h-1.738a5.493 5.493 0 0 0-5.487 5.487v.144c0 .648.524 1.172 1.172 1.172h14.45c.648 0 1.172-.524 1.172-1.172v-.144a5.493 5.493 0 0 0-5.487-5.487h-1.739v-1.648h24.476c.647 0 1.172-.524 1.172-1.172 0-9.06-1.803-17.64-5.218-24.87zM41.352 2.344h.93v2.118h-.93V2.344zM47.7 77.656H35.937a3.15 3.15 0 0 1 2.971-2.115h5.82a3.15 3.15 0 0 1 2.971 2.115zm8.627-8.45h-7.394a276.322 276.322 0 0 0-.084-5.796h7.254c.127 1.9.202 3.836.224 5.795zM27.534 63.41h.85a1.171 1.171 0 1 0 0-2.344h-.664c.18-1.98.417-3.918.709-5.794h6.692c-.109 1.88-.197 3.815-.264 5.794h-2.06a1.172 1.172 0 0 0 0 2.344h1.99a280.514 280.514 0 0 0-.082 5.795H27.31a104 104 0 0 1 .223-5.795zm-8.336-8.138h6.862a93.572 93.572 0 0 0-.693 5.794h-7.341a56.78 56.78 0 0 1 1.172-5.794zm2.85-8.138h5.68a74.256 74.256 0 0 0-1.279 5.794H19.86a48.632 48.632 0 0 1 2.187-5.794zm4.943-8.14h3.552a43.276 43.276 0 0 0-.91 2.187 53.674 53.674 0 0 0-1.24 3.609h-5.197c1.137-2.148 2.412-4.09 3.795-5.797zm19.597 30.211h-9.54c.008-1.956.037-3.892.085-5.795h9.37c.048 1.903.077 3.839.085 5.795zm-9.386-8.139c.069-1.979.158-3.915.268-5.794h8.696c.11 1.88.2 3.816.268 5.794h-9.232zm.419-8.138c.14-2.015.306-3.953.495-5.794h7.404c.19 1.84.355 3.78.495 5.794h-8.394zm-4.49-13.934h3.712a92.96 92.96 0 0 0-.388 2.44 119.067 119.067 0 0 0-.44 3.356h-5.167c.306-.955.63-1.878.972-2.766a38.94 38.94 0 0 1 1.311-3.03zm18.685 3.03c.342.888.666 1.811.972 2.766h-5.167a121.764 121.764 0 0 0-.44-3.357 96.333 96.333 0 0 0-.388-2.44h3.712c.456.938.894 1.949 1.31 3.03zm-12.593-3.03h5.19c.195 1.088.39 2.32.582 3.715.092.675.18 1.37.266 2.081h-6.886c.085-.712.174-1.406.266-2.08.191-1.397.387-2.628.582-3.717zm.466-2.344c.97-4.385 1.857-5.494 2.13-5.744.271.25 1.157 1.359 2.128 5.744H39.69zm6.658 0c-.43-2.042-.874-3.582-1.322-4.74 1.468.961 2.894 2.566 4.21 4.74h-2.888zm-9.058 0h-2.888c1.316-2.174 2.741-3.779 4.21-4.74-.448 1.158-.892 2.698-1.322 4.74zm-1.53 10.484a180.986 180.986 0 0 0-.49 5.794H28.83a70.182 70.182 0 0 1 1.322-5.794h5.607zm12.118 0h5.607a70.674 70.674 0 0 1 1.322 5.794h-6.44c-.139-2.012-.303-3.95-.49-5.794zm8.032 0h5.68a48.63 48.63 0 0 1 2.187 5.794h-6.59a74.643 74.643 0 0 0-1.277-5.794zm-.667-2.344a53.674 53.674 0 0 0-1.24-3.609 43.138 43.138 0 0 0-.91-2.188h3.553c1.383 1.706 2.658 3.649 3.794 5.797h-5.197zm-3.307-8.14c-.798-1.472-1.645-2.756-2.534-3.841 1.793.953 3.514 2.248 5.126 3.84h-2.592zm-20.234 0h-2.592c1.612-1.593 3.334-2.889 5.127-3.842-.89 1.085-1.737 2.369-2.535 3.842zm17.078 24.416a235.7 235.7 0 0 0-.265-5.794h6.693a90.93 90.93 0 0 1 .71 5.794h-7.138zm8.797-5.794h6.863a56.901 56.901 0 0 1 1.173 5.794h-7.343a94.03 94.03 0 0 0-.693-5.794zM17.722 63.41h7.464a106.538 106.538 0 0 0-.219 5.795h-7.613c.035-1.961.16-3.896.368-5.795zm40.947 5.795c-.02-1.958-.095-3.893-.22-5.795h7.466c.209 1.9.333 3.834.368 5.795h-7.614z" fill="#8F2229"/></symbol><symbol viewBox="0 0 24 24" id="icon-basket" xmlns="http://www.w3.org/2000/svg"><path d="M19.985 19.288L18.839 6.393a.551.551 0 0 0-.548-.503h-2.356A3.954 3.954 0 0 0 11.985 2a3.954 3.954 0 0 0-3.951 3.89H5.678a.548.548 0 0 0-.548.503L3.985 19.288c0 .017-.005.033-.005.05C3.98 20.805 5.326 22 6.983 22h10.004c1.656 0 3.002-1.194 3.002-2.663 0-.016 0-.032-.004-.049zm-8-16.184A2.85 2.85 0 0 1 14.83 5.89H9.138a2.85 2.85 0 0 1 2.847-2.786zm5.002 17.792H6.983c-1.04 0-1.882-.687-1.898-1.534L6.18 6.998h1.85v1.677a.55.55 0 0 0 .552.552.55.55 0 0 0 .552-.552V6.998h5.697v1.677a.55.55 0 0 0 .552.552.55.55 0 0 0 .553-.552V6.998h1.848l1.1 12.364c-.016.847-.863 1.534-1.897 1.534z"/></symbol><symbol viewBox="0 0 12 12" id="icon-del" xmlns="http://www.w3.org/2000/svg"><path d="M11.626 1.727H8.818V1.32C8.818.592 8.153 0 7.334 0H4.666c-.819 0-1.484.592-1.484 1.32v.407H.374c-.208 0-.374.148-.374.333 0 .185.166.333.374.333h.677v7.826c0 .982.9 1.781 2.003 1.781h5.892c1.104 0 2.003-.8 2.003-1.781V2.393h.677c.208 0 .374-.148.374-.333 0-.185-.166-.333-.374-.333zM3.93 1.32c0-.36.33-.654.735-.654h2.668c.405 0 .735.294.735.654v.407H3.931V1.32zm6.269 8.899c0 .614-.563 1.115-1.254 1.115H3.054c-.69 0-1.254-.5-1.254-1.115V2.393h8.402v7.826H10.2zm-4.2-.08c.208 0 .374-.147.374-.332V3.92c0-.185-.166-.333-.374-.333s-.375.148-.375.333v5.884c0 .185.167.336.375.336zm-2.444-.367c.208 0 .375-.148.375-.333V4.285c0-.185-.167-.333-.375-.333s-.374.148-.374.333V9.44c0 .185.169.333.374.333zm4.888 0c.208 0 .374-.148.374-.333V4.285c0-.185-.166-.333-.374-.333s-.375.148-.375.333V9.44c0 .185.167.333.375.333z"/></symbol><symbol viewBox="0 0 13 12" id="icon-edit" xmlns="http://www.w3.org/2000/svg"><path d="M11.224.777a2.647 2.647 0 0 0-3.746 0L.609 7.643a.343.343 0 0 0-.097.197l-.509 3.769a.343.343 0 0 0 .098.289.349.349 0 0 0 .242.102c.016 0 .031 0 .046-.002l2.271-.307a.346.346 0 0 0-.092-.686l-1.82.246.355-2.629 2.767 2.767a.339.339 0 0 0 .486 0l6.868-6.866a2.633 2.633 0 0 0 .777-1.874 2.62 2.62 0 0 0-.777-1.872zm-3.613.844l1.153 1.153L2.497 9.04 1.343 7.888l6.268-6.267zm-3.496 9.037L2.988 9.53l6.267-6.268 1.128 1.128-6.268 6.268zm6.748-6.762L8.104 1.137C8.454.848 8.892.69 9.352.69a1.954 1.954 0 0 1 1.959 1.959c0 .462-.159.897-.447 1.247z"/></symbol><symbol viewBox="0 0 12 10" id="icon-exit" xmlns="http://www.w3.org/2000/svg"><path d="M11.88 4.322L6.58.073A.34.34 0 0 0 6.228.03a.322.322 0 0 0-.19.292v2.239c-2.572.09-4.34.974-5.26 2.626-.79 1.426-.783 3.115-.776 4.233v.258A.326.326 0 0 0 .333 10a.33.33 0 0 0 .288-.163C2.416 6.76 3.894 6.611 6.036 6.603v2.232c0 .124.074.24.192.292a.345.345 0 0 0 .354-.043L11.88 4.82a.322.322 0 0 0 .12-.248.327.327 0 0 0-.12-.251zM6.703 8.149V6.28a.309.309 0 0 0-.099-.228.34.34 0 0 0-.233-.095c-1.338 0-2.364.035-3.36.488-.86.39-1.605 1.052-2.34 2.093.029-.95.157-2.084.69-3.043.846-1.521 2.484-2.275 5.01-2.296a.329.329 0 0 0 .33-.323v-1.87l4.443 3.566-4.441 3.576z"/></symbol><symbol viewBox="0 0 47 23" id="icon-next" xmlns="http://www.w3.org/2000/svg"><circle cx="35.5" cy="11.5" r="11.5"/><path d="M34.343 4.298l6.365 6.483c.39.397.39 1.04 0 1.438v.001l-6.365 6.482a.987.987 0 0 1-1.414 0 1.032 1.032 0 0 1 0-1.44l4.657-4.744H1c-.552 0-1-.456-1-1.018a1.01 1.01 0 0 1 1-1.018h36.586l-4.657-4.743a1.032 1.032 0 0 1 .157-1.571.986.986 0 0 1 1.257.13z" fill="#8F2229"/></symbol><symbol viewBox="0 0 47 23" id="icon-prev" xmlns="http://www.w3.org/2000/svg"><circle cx="11.5" cy="11.5" r="11.5" transform="rotate(-180 11.5 11.5)"/><path d="M12.657 18.702l-6.365-6.483a1.032 1.032 0 0 1 0-1.438v-.001l6.365-6.482a.987.987 0 0 1 1.414 0c.39.398.39 1.043 0 1.44l-4.657 4.744H46c.552 0 1 .456 1 1.018a1.01 1.01 0 0 1-1 1.018H9.414l4.657 4.743a1.032 1.032 0 0 1-.157 1.571.986.986 0 0 1-1.257-.13z" fill="#8F2229"/></symbol><symbol viewBox="0 0 17 19" id="icon-reset" xmlns="http://www.w3.org/2000/svg"><circle cx="9" cy="10" r="7" fill="#D0CCC7"/><path d="M3.506 3.827a7.37 7.37 0 0 1 9.76-.264l-2.235.087a.525.525 0 0 0-.5.551.527.527 0 0 0 .52.513h.019l3.43-.13c.28-.012.5-.245.5-.532v-.064L14.873.513A.525.525 0 0 0 14.335 0a.525.525 0 0 0-.5.552l.08 2.18A8.33 8.33 0 0 0 8.964.788a8.345 8.345 0 0 0-6.153 2.25C.487 5.194-.497 8.473.241 11.594a.52.52 0 0 0 .627.39.534.534 0 0 0 .38-.642c-.645-2.743.216-5.624 2.258-7.515zM16.76 7.406a.517.517 0 0 0-.625-.39.534.534 0 0 0-.38.642c.648 2.743-.214 5.624-2.249 7.515a7.333 7.333 0 0 1-5.008 1.983 7.338 7.338 0 0 1-4.779-1.77l2.253-.209a.527.527 0 0 0 .468-.579.518.518 0 0 0-.563-.48l-3.407.314a.527.527 0 0 0-.468.58l.307 3.503a.522.522 0 0 0 .513.485c.016 0 .031 0 .046-.004a.528.528 0 0 0 .468-.58l-.184-2.131a8.317 8.317 0 0 0 5.35 1.939c2.111 0 4.119-.796 5.698-2.263 2.314-2.155 3.295-5.43 2.56-8.555z"/></symbol><symbol viewBox="0 0 27 44" id="icon-scroll" xmlns="http://www.w3.org/2000/svg"><path fill-rule="evenodd" clip-rule="evenodd" d="M13.5 0C8.814 0 5.17 1.423 2.76 4.306.353 7.187 0 10.55 0 12.283v19.435c0 1.732.352 5.095 2.76 7.976C5.17 42.577 8.815 44 13.5 44s8.33-1.423 10.74-4.306C26.648 36.813 27 33.45 27 31.718V12.282c0-1.731-.352-5.095-2.76-7.976C21.83 1.423 18.185 0 13.5 0zM2.36 12.283c0-.813.131-3.212 1.498-5.437 1.298-2.113 3.75-4.133 8.462-4.422v4.094a3.645 3.645 0 0 0-2.402 3.44v3.766a3.645 3.645 0 0 0 2.402 3.44v5.325c0 .65.519 1.193 1.18 1.193.661 0 1.18-.543 1.18-1.193v-5.325a3.645 3.645 0 0 0 2.402-3.44V9.959a3.645 3.645 0 0 0-2.402-3.44V2.423c4.713.29 7.163 2.309 8.462 4.422 1.367 2.225 1.498 4.624 1.498 5.437v19.435c0 .83-.137 3.315-1.586 5.579-1.425 2.225-4.17 4.316-9.554 4.316-5.385 0-8.129-2.091-9.554-4.316-1.45-2.264-1.586-4.749-1.586-5.58V12.284zm9.918-2.324c0-.703.558-1.257 1.222-1.257.664 0 1.222.554 1.222 1.257v3.765c0 .702-.558 1.257-1.222 1.257-.664 0-1.222-.555-1.222-1.257V9.959z"/></symbol><symbol viewBox="0 0 20 20" id="icon-search" xmlns="http://www.w3.org/2000/svg"><path d="M19.823 18.98l-4.86-4.86a8.493 8.493 0 0 0 2.092-5.592C17.055 3.823 13.228 0 8.528 0 3.823 0 0 3.827 0 8.528c0 4.7 3.827 8.527 8.528 8.527a8.493 8.493 0 0 0 5.592-2.093l4.86 4.86a.584.584 0 0 0 .843 0 .6.6 0 0 0 0-.842zM1.193 8.528c0-4.045 3.29-7.33 7.33-7.33 4.045 0 7.33 3.29 7.33 7.33s-3.285 7.335-7.33 7.335c-4.04 0-7.33-3.29-7.33-7.335z"/></symbol><symbol viewBox="0 0 8 9" id="icon-sort" xmlns="http://www.w3.org/2000/svg"><path d="M4.036 8.354l3.182-3.182a.5.5 0 1 0-.708-.708L4.182 6.793V.5a.5.5 0 0 0-1 0v6.293L.854 4.464a.5.5 0 1 0-.708.708l3.182 3.182a.5.5 0 0 0 .708 0z"/></symbol><symbol viewBox="0 0 150 60" id="logotip" xmlns="http://www.w3.org/2000/svg"><path d="M112.389 42.639c.347 0 .598.019.752.048a.56.56 0 0 1 .366.26c.077.144.125.375.125.702a.27.27 0 0 1-.144.23 1.05 1.05 0 0 1-.347.154c-.145.03-.289.058-.434.077-.154.02-.27.03-.347.048-.019 0-.164.039-.453.106-.279.067-.52.116-.732.144a7.262 7.262 0 0 1-.81.077c-.675.02-1.176.048-1.523.097-.405.048-.81.096-1.234.134-.395.02-.973.077-1.725.164-.434 2.068-.646 3.087-.646 3.058 0 .01 0 .02.019.03.02 0 .039.009.058.009.029 0 .048.01.068.01h.53c.221-.03.578-.135 1.089-.318.501-.173.964-.317 1.378-.423a7.73 7.73 0 0 1 1.899-.24c.559 0 1.051.076 1.475.22.414.145.723.328.935.559.202.22.308.452.308.702 0 .163-.106.307-.318.442-.221.125-.414.192-.588.192a.445.445 0 0 1-.221-.057 1.668 1.668 0 0 1-.299-.183 1.707 1.707 0 0 0-.318-.202.656.656 0 0 0-.261-.067c-.472 0-1.513.134-3.132.394-.762.125-1.311.24-1.668.366a6.492 6.492 0 0 1-.896.23c0 .318 0 .558-.019.703-.02.154-.049.288-.078.413a1.105 1.105 0 0 0-.048.298c0 .058.02.135.068.24a.901.901 0 0 1 .067.25c0 .087-.048.366-.135.847-.019.106-.029.26-.029.472 0 .173.01.452.029.817.01.28.048.462.087.568a.498.498 0 0 0 .193.24c.087.058.144.106.173.173.039.058.058.183.058.375 0 .25-.087.481-.25.683-.174.202-.405.308-.723.308-.232 0-.463-.115-.675-.327a1.344 1.344 0 0 1-.395-.693v-1.01a6.209 6.209 0 0 1-.097-.865c0-.058.039-.116.116-.192.087-.077.125-.135.125-.193 0-.163 0-.288-.009-.375a2.949 2.949 0 0 1-.058-.567c0-.193.019-.404.058-.616 0-.087.029-.25.057-.49a3.89 3.89 0 0 0 .058-.607c0-.067-.019-.23-.038-.47a3.21 3.21 0 0 1-1.032.182c-.057 0-.135 0-.241-.01-.096 0-.173-.01-.231-.01h-.867c-.309-.009-.521-.057-.646-.153-.116-.087-.183-.26-.183-.52 0-.384.067-.644.192-.77.126-.134.386-.201.772-.201.096 0 .231.02.395.067.173.048.289.068.376.068.703 0 1.204-.03 1.513-.087.135-1.24.231-2.04.279-2.414a5.41 5.41 0 0 1 .203-.904c-.395.038-1.041.057-1.947.057-.472 0-.868-.105-1.186-.317-.308-.212-.462-.52-.462-.914 0-.385.241-.577.722-.577.107 0 .241.01.425.029.173.02.289.029.356.029.183 0 .791.038 1.812.115 1.012.087 1.678.125 1.996.125.568 0 1.32-.029 2.274-.086.955-.068 1.629-.154 2.034-.28.858-.25 1.533-.374 2.005-.374zm4.357 4.684c.202 0 .376.029.501.086.125.049.251.135.386.26.125.116.212.193.269.231a.91.91 0 0 0 .145.106.45.45 0 0 1 .174.144.487.487 0 0 1 .038.23c0 .174.019.26.048.26.039 0 .135-.028.289-.086a1.03 1.03 0 0 1 .396-.096c.212 0 .385.202.501.596.125.404.183.818.183 1.231v.299c-.01.134-.01.23-.01.298 0 .038.029.125.078.24.057.116.086.27.086.471v.395c.097.337.193.577.28.702a.63.63 0 0 0 .144.154.62.62 0 0 1 .155.173.574.574 0 0 1 .048.25c0 .317-.019.539-.077.664-.049.134-.174.192-.386.192-.125 0-.222-.01-.299-.02a.499.499 0 0 1-.192-.067c-.058-.038-.106-.086-.174-.144l-.125-.125a3.682 3.682 0 0 1-.328-.356c-.029-.029-.039-.096-.039-.22a.582.582 0 0 0-.096-.328c-.01-.029-.029-.067-.038-.106-.01-.048-.029-.105-.039-.173-.01-.077-.019-.115-.019-.125-.01-.029-.039-.086-.077-.173a.7.7 0 0 1-.087-.221v-.558a.157.157 0 0 0-.087-.029c-.01 0-.048.02-.116.048-.086.048-.25.067-.482.067-.134 0-.212.02-.25.058-.039.039-.087.154-.154.356a1.079 1.079 0 0 1-.203.366 4.982 4.982 0 0 1-.395.336 5.037 5.037 0 0 0-.54.462c-.202.173-.356.288-.491.327-.126.048-.29.067-.502.067-.385 0-.694-.134-.935-.413-.25-.28-.366-.558-.366-.837 0-.096.029-.27.097-.5a4.27 4.27 0 0 0 .163-.654c.078-.376.126-.693.164-.962.039-.27.087-.443.126-.539.048-.086.135-.27.269-.538.251-.5.531-.924.829-1.27.309-.346.685-.53 1.138-.53zm-.077 1.404c-.203 0-.347.068-.453.221a2.58 2.58 0 0 0-.309.683c-.106.308-.183.52-.25.645-.087.173-.164.442-.212.827a6.78 6.78 0 0 0-.087 1.01c0 .048.009.067.019.067.125 0 .337-.163.646-.51.299-.336.588-.711.858-1.115s.405-.674.405-.79a.949.949 0 0 0-.078-.25 2.692 2.692 0 0 1-.096-.384.579.579 0 0 0-.202-.308c-.097-.067-.174-.096-.241-.096zm5.523.78c.241 0 .434.057.559.163.135.115.212.25.241.404.038.154.058.336.058.538 0 .212 0 .337.009.395.01.048.039.105.068.163a.533.533 0 0 1 .048.221c.029.231.048.347.067.347.02 0 .039-.02.058-.058.029-.038.068-.106.126-.212.057-.105.115-.192.163-.288a3.183 3.183 0 0 1 .887-.962c.106-.077.203-.154.299-.221.029-.02.135-.096.299-.231.173-.125.299-.221.376-.279.086-.048.192-.106.327-.163a.983.983 0 0 1 .608-.049c.453.164.742.327.877.49a.878.878 0 0 1 .202.578v.212c0 .115.02.23.048.346.01.029.039.077.087.163a.78.78 0 0 1 .077.231c.02.048.02.125.029.221.01.097.01.145.029.145.058 0 .203-.154.424-.452.222-.308.473-.577.742-.808.28-.231.627-.385 1.061-.452.192-.02.308-.039.337-.039.665 0 1.022.375 1.06 1.126v.519c0 .394.058.664.183.827.029.039.087.096.184.173.096.087.173.164.212.231a.646.646 0 0 1 .067.289c0 .115-.087.26-.27.452-.173.192-.318.288-.424.288-.212 0-.385-.029-.52-.096a1.489 1.489 0 0 1-.367-.27 1.815 1.815 0 0 0-.231-.22c-.125-.077-.212-.125-.27-.164a.337.337 0 0 1-.144-.163c-.039-.077-.049-.193-.049-.356 0-.058.029-.145.097-.231a.46.46 0 0 0 .096-.212c0-.038 0-.106-.009-.202 0-.096-.01-.183-.01-.26 0-.028.01-.086.019-.153.01-.068.019-.116.019-.145 0-.038-.009-.067-.038-.067-.039 0-.154.115-.357.346-.193.221-.289.347-.299.347-.086.096-.26.288-.51.586-.241.298-.444.51-.598.635a.737.737 0 0 1-.492.202c-.347 0-.607-.087-.78-.26a1.202 1.202 0 0 1-.328-.577 4.392 4.392 0 0 1-.077-.779c-.019-.298-.039-.471-.068-.529a.792.792 0 0 0-.125-.144.802.802 0 0 1-.154-.25.587.587 0 0 1-.039-.116.387.387 0 0 0-.029-.086c-.019-.029-.038-.048-.067-.048-.029 0-.068.029-.106.067-.029.048-.068.106-.106.183-.048.077-.068.125-.077.134-.068.058-.135.116-.203.164a.768.768 0 0 0-.202.192c-.01.02-.039.058-.087.135a2.662 2.662 0 0 1-.183.23 3.58 3.58 0 0 0-.347.463c-.231.375-.415.663-.569.865-.318.433-.636.645-.935.645-.318 0-.559-.077-.713-.24a1.002 1.002 0 0 1-.289-.52 14.321 14.321 0 0 1-.183-1.058 2.383 2.383 0 0 1-.029-.327c-.01-.077-.019-.154-.029-.221a2.56 2.56 0 0 0-.096-.308c-.145-.346-.213-.645-.213-.895 0-.404.193-.606.579-.606zm12.723-.857c.357 0 .569.202.646.606v.625l-.029.366a4.5 4.5 0 0 0-.019.337v.75c0 .942-.039 1.587-.116 1.943-.077.356-.26.538-.54.538-.559 0-.838-.115-.838-.346 0-.25.019-.558.057-.904.029-.144.049-.308.058-.481.01-.173.029-.356.049-.558 0-.02.009-.077.019-.183a1.54 1.54 0 0 0 .029-.26c0-.144-.01-.21-.02-.21-.009 0-.086.057-.241.172a.683.683 0 0 1-.453.183.547.547 0 0 1-.433-.202c-.116-.135-.174-.308-.174-.539a.41.41 0 0 1 .097-.279c.067-.086.183-.182.327-.307.135-.125.251-.231.338-.318.135-.154.26-.298.385-.433.126-.144.26-.26.405-.355a.791.791 0 0 1 .453-.145zm.299-2.645c.135 0 .308.077.53.24.222.174.357.328.424.462a.755.755 0 0 1 .087.327c0 .221-.116.395-.347.52a1.463 1.463 0 0 1-.704.192c-.193 0-.385-.067-.588-.183-.202-.125-.308-.25-.308-.404 0-.25.096-.51.279-.77.174-.259.386-.384.627-.384zm3.48-3.463c.53 0 .8.318.8.953a2.9 2.9 0 0 1-.029.404c-.02.134-.039.317-.077.548-.039.24-.058.423-.078.567-.019.106-.077.645-.192 1.626-.116.981-.232 2.03-.357 3.145-.125 1.126-.231 2.116-.328 2.992-.086.875-.135 1.385-.135 1.529 0 .067.02.163.058.298.039.125.058.221.058.279 0 .192-.096.327-.27.414a1.374 1.374 0 0 1-.588.125c-.202 0-.405-.173-.588-.539-.183-.356-.27-.664-.27-.923a.83.83 0 0 1 .058-.356.64.64 0 0 1 .174-.193.94.94 0 0 0 .192-.202.947.947 0 0 0 .068-.346c0-.096 0-.183-.01-.26v-.154c0-.163.048-.615.164-1.356.087-.558.164-1.125.231-1.702.068-.577.116-1.135.164-1.654.048-.52.097-1.068.145-1.636.048-.567.077-.942.106-1.144a5 5 0 0 0 .029-.452c0-.135-.01-.318-.019-.549a6.413 6.413 0 0 1-.029-.49c0-.308.048-.539.154-.693.096-.154.289-.23.569-.23zm4.404 5.07c.107 0 .222.057.347.163.116.106.184.212.184.308 0 .125-.029.23-.087.346a8.369 8.369 0 0 1-.309.567c-.163.28-.289.51-.385.722-.28.654-.424 1-.424 1.029 0 .029.019.038.058.038.231 0 .539-.124.925-.365.183-.106.424-.317.704-.625.289-.318.501-.53.645-.664a.826.826 0 0 1 .54-.192c.26 0 .395.288.395.846 0 .058-.009.135-.009.231-.01.096-.01.163-.01.192 0 .097-.01.231-.029.414-.01.173-.019.317-.019.414 0 .134.009.336.038.615.029.28.039.49.039.635 0 .394-.019.846-.068 1.356-.048.52-.115 1.03-.192 1.558-.087.52-.183 1-.299 1.453-.106.442-.212.808-.328 1.077-.328.78-.675 1.356-1.041 1.722-.366.365-.819.548-1.369.548-.298 0-.616-.067-.973-.221a3.404 3.404 0 0 1-.954-.625 1.945 1.945 0 0 1-.579-.876 1.261 1.261 0 0 0-.26-.461 1.247 1.247 0 0 1-.279-.414c-.029-.058-.068-.23-.135-.529a.51.51 0 0 0-.174-.317c-.087-.068-.144-.126-.173-.154-.02-.039-.029-.154-.029-.356 0-.24.038-.462.125-.645.087-.192.212-.288.366-.288.212 0 .434.086.685.27.25.172.366.422.366.74v.279c-.01.125-.01.211-.01.269 0 .058.01.115.049.164.038.048.086.105.154.163.067.058.106.106.144.144.058.077.164.25.309.51.395.693.809 1.03 1.253 1.03.26 0 .54-.135.829-.414.299-.28.549-.654.761-1.135.212-.49.328-1.02.357-1.607.019-.394.058-.933.125-1.616a19.7 19.7 0 0 0 .087-1.48c0-.097-.01-.222-.029-.376-.01-.154-.019-.27-.019-.346 0-.039.009-.087.029-.144a.432.432 0 0 0 .038-.173c0-.078-.019-.116-.048-.116-.077 0-.174.058-.289.164a3.161 3.161 0 0 1-.241.22.816.816 0 0 1-.328.107c-.154.01-.231.019-.231.019-.077.02-.164.057-.28.115a1.72 1.72 0 0 1-.327.125c-.106.03-.27.039-.482.039-.338 0-.627-.087-.868-.28-.231-.182-.347-.374-.347-.567 0-.144.029-.308.106-.48.077-.183.183-.424.328-.741.144-.308.222-.49.222-.558h-.039a.357.357 0 0 0-.164.048c-.048.029-.125.067-.212.115-.038.02-.096.039-.154.058-.058.01-.106.029-.154.039-.02.01-.077.038-.183.096a.596.596 0 0 1-.251.086.73.73 0 0 1-.54-.23c-.144-.164-.222-.318-.222-.481 0-.125.078-.231.222-.318.154-.086.366-.173.636-.27.28-.086.453-.153.511-.182a73.954 73.954 0 0 1 1.398-.654 1.56 1.56 0 0 1 .568-.135z" fill="#E31E24"/><path d="M53.977 19.747l3.943 11.042h.25l3.904-11.042h5.63v1.298h-.646c-.598 0-.897.25-.897.75 0 .097-.01.183-.01.28l-.048 12.234c0 .683.26 1.116.501 1.299.241.182.743.279 1.495.279v1.23h-7.307v-1.23c.636 0 .916-.039 1.05-.087.31-.106.358-.596.358-.818l.163-11.06h-.289L57.64 36.78h-1.88l-4.616-12.86h-.25L51.009 34c0 .346 0 .693.029 1.04.058.653.337.846.993.846h.578v1.23H46.69v-1.23h.587c.646 0 1.08-.164 1.282-.481.212-.318.463-.78.453-1.405l-.01-10.695c0-.568.01-.905-.018-1.674-.01-.394-.492-.587-1.485-.587h-.395v-1.298h6.873zm24.608-.337l.415.923 4.8 12.976c.212.846.55 1.539 1.032 2.068.221.211.433.356.636.413.202.068.5.096.915.096v1.232H79.79v-1.232h.781c.26 0 .415-.086.453-.26v-.192c-.029 0-.067-.173-.144-.51l-1.09-3.048h-6.15l-1.011 2.722c-.03.192-.126.49-.28.894v.193c.087.134.299.201.646.201h.646v1.232h-5.118v-1.232c.703-.038 1.166-.134 1.388-.278.221-.145.472-.414.751-.818.126-.221.232-.443.309-.673.087-.231.125-.347.135-.366l3.904-10.388c.212-.394.308-.76.308-1.096 0-.395-.299-.587-.896-.587h-.309v-.78c.54-.037.983-.105 1.32-.191a3.97 3.97 0 0 0 .974-.433c.309-.193.694-.49 1.138-.866h1.04zm-2.081 4.655l-2.333 6.272h4.964l-2.323-6.272h-.308zm10.824-4.318h8.145c2.024 0 3.72.26 5.099.788 1.369.53 2.429 1.212 3.171 2.059.752.837 1.272 1.731 1.561 2.693.29.952.434 1.933.434 2.924a9.304 9.304 0 0 1-1.012 4.242c-.675 1.356-1.725 2.472-3.161 3.347-1.446.875-3.23 1.318-5.36 1.318h-8.877v-1.232h.453c.53 0 .916-.105 1.147-.298.222-.192.337-.548.337-1.048V22.325c0-.5-.115-.847-.337-1.02-.222-.173-.607-.26-1.147-.26h-.453v-1.298zm6.005 2.828v11.734c0 .568.125.933.376 1.087.24.154.597.23 1.06.23h.752c2.313-.086 3.856-.865 4.627-2.317.771-1.462 1.156-3.078 1.156-4.848v-1.183a8.896 8.896 0 0 0-.511-2.732c-.308-.875-.877-1.625-1.706-2.25-.829-.616-1.966-.953-3.421-1h-.964c-.444 0-.781.076-1.012.22-.241.145-.357.5-.357 1.059zm25.331-2.828l.79 4.203h-.848c-.26-.692-.713-1.308-1.34-1.847-.636-.538-1.513-.808-2.612-.808h-1.879c-.55 0-.916.077-1.128.24-.203.164-.309.51-.309 1.04v4.51h1.745c.974 0 1.668-.047 2.092-.134.424-.096.684-.212.79-.356.096-.144.202-.404.289-.77l.029-.182a1.37 1.37 0 0 1 .058-.231h.781v4.838h-.781c-.029-.115-.039-.212-.048-.279-.01-.077-.029-.144-.039-.221a1.41 1.41 0 0 0-.53-.846c-.279-.222-.829-.328-1.658-.328h-2.728v5.733c0 .49.106.837.309 1.03.212.192.578.288 1.128.288h2.178a7.92 7.92 0 0 0 1.542-.145c.492-.105 1.022-.365 1.581-.769.559-.413 1.051-1.039 1.484-1.856h.849l-.897 4.26h-14.188v-1.23h.511c.954 0 1.436-.385 1.436-1.155V22.325c0-.433-.077-.75-.241-.962-.154-.212-.55-.318-1.195-.318h-.511v-1.298h13.34zm3.306 12.388v-9.81c0-.5-.116-.847-.337-1.02-.222-.173-.608-.26-1.147-.26h-.453v-1.298h7.952v1.298h-.511c-.55 0-.935.077-1.138.25-.192.173-.298.52-.298 1.03v9.224c0 2.962 1.359 4.443 4.077 4.443 1.166 0 2.092-.192 2.737-.577.656-.384 1.109-.952 1.369-1.712s.386-1.75.386-2.972v-8.349c0-.365-.049-.635-.135-.817-.097-.174-.27-.308-.53-.376-.27-.076-.694-.125-1.273-.144v-1.298h5.417v1.298h-.511c-.539 0-.906.077-1.118.25-.202.183-.308.52-.308 1.03v8.57c0 1.539-.203 2.78-.607 3.741-.405.962-1.08 1.674-2.025 2.145-.954.462-2.226.702-3.826.702-2.275 0-3.991-.356-5.138-1.048-1.147-.702-1.87-1.433-2.149-2.203-.289-.77-.434-1.471-.434-2.097zm26.478-8.127h-.839a4.816 4.816 0 0 0-1.31-1.78 5.713 5.713 0 0 0-1.764-1.02c-.617-.21-1.176-.307-1.668-.307-.665 0-1.176.202-1.532.625-.367.423-.55.885-.55 1.385 0 .625.193 1.116.578 1.472.396.356.926.702 1.591 1.058 1.802.923 3.21 1.731 4.212 2.433 1.003.693 1.725 1.395 2.169 2.088.443.702.665 1.5.665 2.423a4.3 4.3 0 0 1-.925 2.713c-.617.779-1.437 1.366-2.449 1.77a8.458 8.458 0 0 1-3.229.615c-1.6 0-3.518-.404-5.744-1.212l-.454-3.664h.81a6.4 6.4 0 0 0 1.658 1.914c.665.51 1.349.885 2.024 1.125.694.23 1.292.346 1.822.346.858 0 1.523-.202 1.976-.606.463-.404.684-.942.684-1.635 0-.692-.308-1.289-.925-1.818-.627-.51-1.668-1.163-3.142-1.943-1.128-.596-2.024-1.125-2.69-1.596a5.579 5.579 0 0 1-1.609-1.683c-.415-.655-.608-1.453-.608-2.395 0-1.414.502-2.588 1.533-3.52 1.022-.924 2.477-1.386 4.386-1.386.79 0 1.667.116 2.631.356.954.23 1.783.548 2.477.943l.222 3.299z" fill="#2B2A29"/><path fill-rule="evenodd" clip-rule="evenodd" d="M0 35.733c3.354-3.03 6.805-5.021 10.208-7.435a61.225 61.225 0 0 1 5.417-3.444l6.188-16.476c.434-.856.655-1.626.655-2.328 0-.827-.636-1.24-1.908-1.24h-.646V3.144c1.147-.077 2.072-.221 2.785-.404a7.86 7.86 0 0 0 2.063-.913c.665-.414 1.465-1.03 2.41-1.828h2.198l.896 1.962 5.465 14.784c26.517-7.378 63.906-7.59 109.353.875-20.926-4.117-72.185-7.377-108.505 1.414l3.846 10.398c.444 1.808 1.176 3.27 2.198 4.386.463.452.916.75 1.34.884.424.125 1.07.193 1.928.193v2.606H31.934v-2.606h1.648c.569 0 .887-.183.964-.539v-.423c-.048 0-.145-.356-.309-1.077-2.805-7.84-3.2-8.753-4.453-11.985-3.634 1.106-7.065 2.357-10.236 3.76-.637 1.732-1.417 3.858-2.786 7.522-.067.424-.26 1.049-.598 1.905v.414c.183.279.646.423 1.37.423h1.377v2.606H8.077v-2.606c1.475-.087 2.458-.289 2.93-.596.482-.29 1.003-.876 1.591-1.722.27-.472.482-.943.665-1.424.174-.49.26-.75.29-.779l1.29-3.443c-.346.183-.693.365-1.02.558C9.927 29.702 4.115 32.636 0 35.733zm20.357-13.341c2.709-1.29 5.59-2.462 8.646-3.54A798.977 798.977 0 0 1 25.63 9.85h-.665c-2.7 7.272-3.711 10.07-4.608 12.543z" fill="#E31E24"/></symbol><symbol viewBox="0 0 14 14" id="modal-close" xmlns="http://www.w3.org/2000/svg"><path d="M13.744.256a.867.867 0 0 0-1.23 0L7 5.769 1.486.256a.867.867 0 0 0-1.23 0 .867.867 0 0 0 0 1.23L5.77 7 .256 12.512a.867.867 0 0 0 0 1.23.875.875 0 0 0 .612.258.848.848 0 0 0 .612-.258L6.994 8.23l5.513 5.513a.876.876 0 0 0 .612.258.838.838 0 0 0 .612-.258.867.867 0 0 0 0-1.23L8.231 7l5.513-5.513a.867.867 0 0 0 0-1.23z"/></symbol><symbol viewBox="0 0 7 4" id="navbar-dropdown" xmlns="http://www.w3.org/2000/svg"><path d="M3.5 4a.488.488 0 0 1-.347-.144L.143.84a.492.492 0 0 1 0-.695.49.49 0 0 1 .694 0L3.5 2.814 6.163.144a.49.49 0 0 1 .693 0 .492.492 0 0 1 0 .695l-3.01 3.017A.488.488 0 0 1 3.5 4z"/></symbol><symbol viewBox="0 0 11 17" id="pagin-next" xmlns="http://www.w3.org/2000/svg"><path fill-rule="evenodd" clip-rule="evenodd" d="M.9.98A1.5 1.5 0 0 0 .98 3.1l5.816 5.4-5.817 5.4a1.5 1.5 0 0 0 2.042 2.2l7-6.5a1.5 1.5 0 0 0 0-2.2l-7-6.5A1.5 1.5 0 0 0 .9.98z"/></symbol><symbol viewBox="0 0 11 17" id="pagin-prev" xmlns="http://www.w3.org/2000/svg"><path fill-rule="evenodd" clip-rule="evenodd" d="M10.1.98a1.5 1.5 0 0 1-.08 2.12L4.205 8.5l5.817 5.4a1.5 1.5 0 0 1-2.042 2.2l-7-6.5a1.5 1.5 0 0 1 0-2.2l7-6.5a1.5 1.5 0 0 1 2.12.08z"/></symbol><symbol viewBox="0 0 26 26" id="pass-hide" xmlns="http://www.w3.org/2000/svg"><path d="M19.164 18.586a1.016 1.016 0 1 0 0-2.031 1.016 1.016 0 0 0 0 2.03zm4.57-.203c.561 0 1.016-.455 1.016-1.016V13.61a4.067 4.067 0 0 0-4.063-4.062h-1.22V5.965c0-3.29-2.734-5.965-6.094-5.965-3.36 0-6.094 2.676-6.094 5.965v3.582H6.063A4.067 4.067 0 0 0 2 13.609v8.329A4.067 4.067 0 0 0 6.063 26h14.625a4.067 4.067 0 0 0 4.062-4.063 1.016 1.016 0 0 0-2.031 0c0 1.12-.912 2.032-2.032 2.032H6.063a2.034 2.034 0 0 1-2.03-2.032V13.61c0-1.12.91-2.03 2.03-2.03h14.625c1.12 0 2.032.91 2.032 2.03v3.758c0 .561.454 1.016 1.015 1.016zm-6.298-8.836H9.31V5.965c0-2.169 1.822-3.934 4.062-3.934s4.063 1.765 4.063 3.934v3.582zm-5.94 9.039a1.016 1.016 0 1 0 0-2.031 1.016 1.016 0 0 0 0 2.03zm-3.809 0a1.016 1.016 0 1 0 0-2.031 1.016 1.016 0 0 0 0 2.03zm7.618 0a1.016 1.016 0 1 0 0-2.031 1.016 1.016 0 0 0 0 2.03z"/></symbol><symbol viewBox="0 0 26 26" id="pass-view" xmlns="http://www.w3.org/2000/svg"><path d="M10.395 23.969H5.063a2.034 2.034 0 0 1-2.032-2.032V13.61c0-1.12.911-2.03 2.031-2.03h14.625c1.12 0 2.032.91 2.032 2.03v1.067a1.016 1.016 0 1 0 2.031 0V13.61a4.067 4.067 0 0 0-4.063-4.062h-1.22V5.965c0-3.29-2.734-5.965-6.094-5.965C9.013 0 6.28 2.676 6.28 5.965v3.582H5.063A4.067 4.067 0 0 0 1 13.609v8.329A4.067 4.067 0 0 0 5.063 26h5.332a1.016 1.016 0 1 0 0-2.031zM8.31 5.965c0-2.169 1.822-3.934 4.062-3.934s4.063 1.765 4.063 3.934v3.582H8.31V5.965zm2.185 12.62a1.016 1.016 0 1 0 0-2.03 1.016 1.016 0 0 0 0 2.03zM25.14 20.49a8.535 8.535 0 0 0-.235-.32c-.34-.427-1.136-1.429-2.244-2.313-1.42-1.134-2.882-1.709-4.345-1.709-1.462 0-2.924.575-4.344 1.709-1.108.884-1.904 1.886-2.244 2.313-.076.096-.199.27-.235.32-.246.35-.246.818 0 1.168.036.05.159.224.235.32.34.428 1.136 1.43 2.244 2.313C15.392 25.425 16.854 26 18.316 26c1.463 0 2.925-.575 4.345-1.708 1.108-.885 1.904-1.886 2.244-2.314.076-.096.199-.27.235-.32.246-.35.246-.817 0-1.168zm-6.824 3.479c-1.508 0-3.09-.973-4.704-2.895 1.615-1.921 3.196-2.894 4.704-2.894 1.509 0 3.09.973 4.705 2.894-1.615 1.921-3.196 2.895-4.705 2.895zM6.688 18.586a1.016 1.016 0 1 0 0-2.031 1.016 1.016 0 0 0 0 2.03zm11.68 4.418a1.93 1.93 0 1 0 0-3.86 1.93 1.93 0 0 0 0 3.86z"/></symbol><symbol viewBox="0 0 26 15" id="pass-view1" xmlns="http://www.w3.org/2000/svg"><path d="M22.426 3.916c-5.222-5.221-13.717-5.221-18.938 0L0 7.403l3.574 3.574a13.35 13.35 0 0 0 9.47 3.917c3.43 0 6.858-1.306 9.469-3.917L26 7.49l-3.574-3.574zm-.535 6.44c-4.879 4.879-12.817 4.879-17.696 0L1.242 7.403l2.867-2.866c4.879-4.879 12.817-4.879 17.696 0l2.953 2.953-2.867 2.866zM12.548 3.92a3.078 3.078 0 0 0-3.074 3.074.44.44 0 0 0 .878 0 2.2 2.2 0 0 1 2.196-2.196.44.44 0 0 0 0-.878zm.44-2.196a5.716 5.716 0 0 0-5.71 5.71 5.716 5.716 0 0 0 5.71 5.71 5.716 5.716 0 0 0 5.709-5.71c0-3.149-2.56-5.71-5.71-5.71zm0 10.54a4.837 4.837 0 0 1-4.832-4.83 4.837 4.837 0 0 1 4.832-4.831 4.837 4.837 0 0 1 4.83 4.83 4.836 4.836 0 0 1-4.83 4.832z"/></symbol><symbol viewBox="0 0 40 40" id="soc-fb" xmlns="http://www.w3.org/2000/svg"><path fill-rule="evenodd" clip-rule="evenodd" d="M3 0a3 3 0 0 0-3 3v34a3 3 0 0 0 3 3h34a3 3 0 0 0 3-3V3a3 3 0 0 0-3-3H3zm14.809 30h3.203a.97.97 0 0 0 .97-.97v-7.224h2.284c.535 0 .97-.436.97-.97l.001-3.096a.974.974 0 0 0-.979-.97h-2.276v-1.225c0-.399.054-.543.099-.595.027-.03.155-.131.656-.131h1.645c.535 0 .97-.436.97-.97v-2.875a.972.972 0 0 0-.969-.97L21.941 10c-1.508 0-2.79.497-3.707 1.438-.913.937-1.395 2.245-1.395 3.782v1.55H14.97a.971.971 0 0 0-.97.97v3.096c0 .534.435.97.97.97h1.869v7.224c0 .535.435.97.97.97zm3-1.172h-2.798V21.28a.648.648 0 0 0-.647-.648h-2.192v-2.69h2.192a.648.648 0 0 0 .647-.648V15.22c0-2.497 1.506-4.048 3.929-4.048l2.24.004v2.47h-1.443c-.46 0-1.117.055-1.535.528-.346.392-.393.913-.393 1.371v1.75c0 .357.29.647.648.647h2.608l-.001 2.691h-2.607a.648.648 0 0 0-.648.648v7.547z"/></symbol><symbol viewBox="0 0 40 40" id="soc-inst" xmlns="http://www.w3.org/2000/svg"><path fill-rule="evenodd" clip-rule="evenodd" d="M3 0a3 3 0 0 0-3 3v34a3 3 0 0 0 3 3h34a3 3 0 0 0 3-3V3a3 3 0 0 0-3-3H3zm9.93 30A2.933 2.933 0 0 1 10 27.07V12.93A2.933 2.933 0 0 1 12.93 10h14.14A2.933 2.933 0 0 1 30 12.93v14.14A2.933 2.933 0 0 1 27.07 30H12.93zm0-18.828a1.76 1.76 0 0 0-1.758 1.758v14.14c0 .97.788 1.758 1.758 1.758h14.14a1.76 1.76 0 0 0 1.758-1.758V12.93a1.76 1.76 0 0 0-1.758-1.758H12.93zM20 25.273A5.28 5.28 0 0 0 25.273 20 5.28 5.28 0 0 0 20 14.727 5.28 5.28 0 0 0 14.727 20 5.28 5.28 0 0 0 20 25.273zm0-9.375A4.106 4.106 0 0 1 24.102 20 4.106 4.106 0 0 1 20 24.102 4.106 4.106 0 0 1 15.898 20 4.106 4.106 0 0 1 20 15.898zm7.617-1.757a1.76 1.76 0 0 1-1.758 1.757 1.76 1.76 0 0 1-1.757-1.757c0-.97.788-1.758 1.757-1.758.97 0 1.758.788 1.758 1.758zm-1.172 0a.587.587 0 1 0-1.173.001.587.587 0 0 0 1.173-.001z"/></symbol><symbol viewBox="0 0 40 40" id="soc-ok" xmlns="http://www.w3.org/2000/svg"><path fill-rule="evenodd" clip-rule="evenodd" d="M3 0a3 3 0 0 0-3 3v34a3 3 0 0 0 3 3h34a3 3 0 0 0 3-3V3a3 3 0 0 0-3-3H3zm11.487 15c0-2.758 2.433-5 5.425-5s5.426 2.242 5.426 5-2.434 5-5.426 5-5.425-2.242-5.425-5zm1.356 0c0 2.067 1.826 3.75 4.07 3.75 2.243 0 4.068-1.683 4.068-3.75 0-2.068-1.825-3.75-4.069-3.75-2.243 0-4.069 1.682-4.069 3.75zm2.829 8.67c-2.003-.241-3.938-1.07-5.474-2.484a.591.591 0 0 1 0-.884.72.72 0 0 1 .96 0c3.172 2.925 8.333 2.925 11.508 0a.72.72 0 0 1 .96 0 .591.591 0 0 1 0 .884c-1.535 1.414-3.469 2.242-5.47 2.484l4.06 5.346a.593.593 0 0 1-.165.87.717.717 0 0 1-.39.114.694.694 0 0 1-.555-.266l-4.193-5.519-4.191 5.519a.714.714 0 0 1-.944.152.594.594 0 0 1-.167-.87l4.06-5.346z"/></symbol><symbol viewBox="0 0 32 32" id="soc-tg" xmlns="http://www.w3.org/2000/svg"><path fill-rule="evenodd" clip-rule="evenodd" d="M0 3a3 3 0 0 1 3-3h26a3 3 0 0 1 3 3v26a3 3 0 0 1-3 3H3a3 3 0 0 1-3-3V3zm20.848 8.78l-7.896 4.864a1.18 1.18 0 0 0-.515 1.324l.854 3a.581.581 0 0 0 .607.424.581.581 0 0 0 .538-.506l.222-1.645a.972.972 0 0 1 .3-.58l6.516-6.057a.519.519 0 1 0-.627-.824zm-6.41 6.321a1.743 1.743 0 0 0-.538 1.037l-.107.798-.62-2.177a.414.414 0 0 1 .18-.464l5.784-3.563-4.7 4.37zm9.961-9.64a.882.882 0 0 1 1.183 1.003l-3.129 15.049a.88.88 0 0 1-.865.703.88.88 0 0 1-.519-.169l-4.27-3.1a.324.324 0 0 0-.395.01l-2.368 1.93a.881.881 0 0 1-1.4-.421l-1.59-5.109-4.071-1.52a.878.878 0 0 1-.574-.823.877.877 0 0 1 .565-.828L24.399 8.46zm-2.695 15.896L24.833 9.31a.114.114 0 0 0-.04-.115.114.114 0 0 0-.118-.02L7.24 15.9a.11.11 0 0 0-.075.111.11.11 0 0 0 .077.111l4.247 1.585a.384.384 0 0 1 .232.245l1.644 5.288a.116.116 0 0 0 .079.078.115.115 0 0 0 .108-.022l2.368-1.93a1.088 1.088 0 0 1 1.327-.037l4.271 3.1c.045.033.09.024.112.015a.115.115 0 0 0 .073-.086zm.727-7.693a.382.382 0 0 0-.455.292l-.058.268a.382.382 0 0 0 .747.163l.058-.268a.383.383 0 0 0-.292-.455zm-.838 2.054a.382.382 0 1 1 .748.163l-.88 4.052a.383.383 0 0 1-.748-.163l.88-4.052z"/></symbol><symbol viewBox="0 0 32 32" id="soc-viber" xmlns="http://www.w3.org/2000/svg"><path fill-rule="evenodd" clip-rule="evenodd" d="M0 3a3 3 0 0 1 3-3h26a3 3 0 0 1 3 3v26a3 3 0 0 1-3 3H3a3 3 0 0 1-3-3V3zm21.539 12.042c.021-2.479-2.081-4.75-4.686-5.062l-.528-.065a.338.338 0 0 0-.041-.002c-.54 0-.915.316-1.004.844-.062.37.051.621.158.766.25.341.653.396.918.433h.009c.058.009.112.016.15.025 2.067.462 2.69 1.11 3.029 3.155.005.036.009.095.013.152v.001c.009.15.024.398.137.627.157.318.452.492.831.492.066 0 .135-.005.206-.016.353-.054.612-.254.73-.563.085-.223.08-.45.075-.59l.003-.194v-.003zm-.683.212c.012.364-.049.439-.228.466a.703.703 0 0 1-.103.008c-.177 0-.263-.047-.29-.48v-.002a2.591 2.591 0 0 0-.02-.221c-.202-1.215-.516-1.97-1.049-2.526-.532-.555-1.28-.909-2.502-1.181a2.546 2.546 0 0 0-.208-.035h-.002l-.005-.001c-.18-.025-.383-.052-.463-.162-.016-.02-.063-.085-.036-.25.04-.233.173-.274.315-.277l.507.062c2.271.273 4.104 2.237 4.087 4.38l-.004.202v.017zm3.216-.095v.005c.013.278.032.698-.266 1.009-.177.185-.424.283-.715.283h-.024c-.406-.008-.713-.2-.865-.543-.11-.247-.115-.516-.117-.676a1.94 1.94 0 0 0-.008-.18c-.441-3.49-1.962-5.057-5.425-5.59a2.205 2.205 0 0 0-.15-.014c-.153-.011-.409-.03-.638-.145-.326-.163-.494-.466-.472-.851.036-.611.44-.99 1.056-.99h.009l.41.01c1.858.063 3.707.923 5.079 2.36 1.371 1.436 2.145 3.324 2.122 5.18 0 .038.002.088.004.14v.002zm-.979.617c.152 0 .204-.055.222-.073.096-.101.087-.317.078-.508v-.005a3.17 3.17 0 0 1-.005-.182c.044-3.53-3.013-6.732-6.54-6.851l-.403-.01c-.213 0-.357.06-.374.349-.008.15.01.245.48.279.069.005.14.01.204.02 1.918.295 3.26.895 4.225 1.889.964.993 1.527 2.356 1.772 4.288.01.08.011.168.013.253.007.47.098.547.313.55h.015zm-.646 3.654a11.626 11.626 0 0 1-.236-.183l-1.466-1.065-.005-.003c-.576-.405-1.106-.602-1.618-.602-.713 0-1.325.378-1.818 1.125-.159.24-.3.273-.417.273a1.08 1.08 0 0 1-.423-.112c-1.593-.722-2.729-1.826-3.376-3.281-.297-.668-.138-.946.238-1.2.357-.244 1.102-.749 1.048-1.738-.04-.725-.938-2.002-1.213-2.377-.275-.375-1.224-1.616-1.899-1.865a1.973 1.973 0 0 0-1.34-.006c-1.06.356-1.824.99-2.21 1.833-.375.818-.362 1.769.037 2.75 1.068 2.62 2.57 4.907 4.464 6.794 2.223 2.214 4.443 3.686 6.787 4.502.233.08.7.222.964.256l.044.003c.665 0 1.398-.279 2.064-.786.659-.502 1.154-1.15 1.394-1.828.477-1.347-.423-2.035-1.019-2.49zm.378 2.263c-.398 1.123-1.724 2.147-2.794 2.161-.2-.03-.59-.146-.807-.222-2.246-.78-4.382-2.2-6.53-4.34-1.83-1.824-3.282-4.034-4.315-6.57-.327-.803-.344-1.567-.05-2.21.307-.668.932-1.177 1.809-1.471.154-.052.306-.078.455-.078.148 0 .293.026.434.078.258.094.864.644 1.586 1.628.722.985 1.067 1.733 1.082 2.011.03.56-.354.87-.751 1.139-.716.486-.872 1.153-.478 2.039.718 1.612 1.968 2.831 3.717 3.625.252.114.489.171.704.171.4 0 .731-.194.984-.577.365-.552.774-.82 1.251-.82.367 0 .768.156 1.226.477l1.457 1.058c.075.06.154.12.224.175l.005.004c.666.509 1.08.903.79 1.722zm-4.583-8.375c.563.572.896 1.302.891 1.954.03 1.013-.61 1.199-.887 1.232a.982.982 0 0 1-.116.006c-.512 0-.924-.408-.98-.972-.07-.69-.37-1.015-1.04-1.123-.285-.046-.639-.142-.841-.48-.098-.163-.187-.438-.056-.82.23-.665.892-.682 1.11-.688.647-.015 1.347.31 1.92.89zm-.112 2.513a.207.207 0 0 0 .035-.003c.107-.012.305-.036.288-.541v-.015c.006-.477-.254-1.03-.695-1.478-.441-.447-.957-.697-1.418-.687-.27.007-.42.044-.484.23-.056.162-.017.227-.004.249.046.077.156.124.366.158.968.155 1.509.736 1.608 1.727.018.179.119.36.304.36zm-2.814 4.286c-.615-.46-1.22-.986-1.847-1.611a14.26 14.26 0 0 1-1.348-1.555.34.34 0 0 0-.544.407c.432.578.907 1.126 1.412 1.63.651.648 1.28 1.195 1.92 1.674a.339.339 0 0 0 .477-.07.34.34 0 0 0-.07-.475zm-4.158-4.627c.058.1.118.2.178.3a.34.34 0 1 1-.58.353 15.657 15.657 0 0 1-.186-.312.34.34 0 0 1 .588-.34z"/></symbol><symbol viewBox="0 0 40 40" id="soc-vk" xmlns="http://www.w3.org/2000/svg"><path fill-rule="evenodd" clip-rule="evenodd" d="M3 0a3 3 0 0 0-3 3v34a3 3 0 0 0 3 3h34a3 3 0 0 0 3-3V3a3 3 0 0 0-3-3H3zm27.093 22.586c.673.695 1.37 1.413 1.986 2.218.34.446.726.984 1.023 1.61.285.602.29 1.28.012 1.817-.231.445-.624.72-1.079.752a.525.525 0 0 1-.037.002l-3.942-.002c-1.096.091-2.088-.347-2.948-1.302-.38-.422-.744-.864-1.094-1.292l-.022-.026a74.072 74.072 0 0 0-.483-.584 3.378 3.378 0 0 0-.604-.59c-.129-.09-.244-.134-.31-.116-.06.016-.139.108-.207.245-.247.49-.318 1.053-.349 1.749-.055 1.316-.56 1.853-1.8 1.915-.236.012-.469.018-.697.018-2.011 0-3.744-.47-5.281-1.427-1.463-.911-2.73-2.202-3.99-4.06-1.789-2.64-3.357-5.683-5.083-9.865-.242-.585-.25-1.078-.025-1.464.225-.386.636-.587 1.223-.599a98.635 98.635 0 0 1 3.9-.002c.724.012 1.289.46 1.59 1.26.73 1.954 1.57 3.65 2.568 5.186.25.384.508.782.851 1.037a.642.642 0 0 0 .122.075.738.738 0 0 0 .065-.135c.096-.245.155-.54.186-.929.114-1.445.095-2.64-.06-3.756-.078-.574-.33-.875-.818-.976-.139-.028-.56-.116-.703-.552-.14-.431.135-.784.239-.917.357-.456.803-.876 1.646-.876h4.48c.036 0 .072.004.108.012 1.124.241 1.312 1.016 1.409 1.79a.668.668 0 0 1 .005.082l.004 5.42v.018c-.007.24.13.701.247.782.062-.032.182-.172.256-.258l.05-.057c1.085-1.255 1.835-2.762 2.424-4.07a28.1 28.1 0 0 0 .8-2.01c.281-.771.798-1.155 1.542-1.142l4.307.004c.148 0 .308.003.476.034.343.064.831.203 1.095.673.263.47.154 1.005.049 1.366-.368 1.262-1.054 2.296-1.718 3.297l-.077.116c-.34.512-.695 1.022-1.038 1.515a71.858 71.858 0 0 0-1.16 1.701c-.251.381-.36.639-.344.813.016.176.171.415.488.752.232.247.473.495.705.735l.013.013zm1.882 5.169c.034-.005.101-.024.156-.129.066-.128.098-.374-.032-.647-.247-.522-.587-.995-.887-1.389-.573-.747-1.215-1.409-1.894-2.11l-.001-.001c-.24-.247-.488-.503-.73-.76-1.023-1.087-1.095-1.914-.275-3.16a67.92 67.92 0 0 1 1.18-1.73l.007-.01v-.001c.338-.485.686-.984 1.015-1.481l.077-.116c.64-.965 1.244-1.876 1.557-2.948.062-.214.063-.316.06-.352-.028-.02-.113-.066-.318-.104a1.693 1.693 0 0 0-.287-.016l-4.311-.004h-.01c-.255-.006-.361.047-.478.367-.234.64-.51 1.381-.836 2.098-.626 1.39-1.427 2.996-2.617 4.372l-.045.052c-.253.294-.724.841-1.436.588a.51.51 0 0 1-.02-.007c-.781-.313-1.01-1.455-1.001-1.97l-.004-5.37c-.025-.191-.066-.437-.137-.54-.017-.025-.067-.096-.315-.157h-4.421a.83.83 0 0 0-.426.092c.65.321 1.061.949 1.18 1.818.167 1.212.189 2.498.067 4.044-.042.522-.128.934-.27 1.3-.221.569-.548.778-.784.853-.236.076-.615.092-1.081-.256-.51-.38-.857-.913-1.135-1.341-1.05-1.614-1.93-3.39-2.693-5.433-.161-.43-.374-.49-.562-.494a97.658 97.658 0 0 0-3.861.002.893.893 0 0 0-.275.039c.005.05.024.142.085.29 1.693 4.1 3.223 7.072 4.962 9.639 1.163 1.716 2.32 2.9 3.643 3.723 1.52.947 3.274 1.355 5.365 1.248.435-.022.565-.093.604-.133.03-.031.101-.152.12-.612.034-.75.116-1.545.487-2.282.286-.569.66-.775.922-.847.265-.072.689-.083 1.2.278.341.241.607.535.822.791.17.202.338.407.5.605l.013.016c.342.417.696.848 1.058 1.25.638.708 1.298 1.005 2.075.935a.48.48 0 0 1 .046-.002l3.94.002zM9.116 14.794a66.65 66.65 0 0 1-.246-.538c-.139-.304-.477-.43-.757-.279-.28.15-.394.52-.256.824l.251.547a.56.56 0 0 0 .505.338.525.525 0 0 0 .254-.066c.278-.153.39-.523.25-.826zm.894 1.842a41.458 41.458 0 0 0 2.647 4.536.651.651 0 0 1-.119.86.531.531 0 0 1-.79-.13 42.684 42.684 0 0 1-2.726-4.67c-.151-.298-.052-.672.22-.836.273-.165.617-.057.768.24z"/></symbol><symbol viewBox="0 0 32 32" id="soc-wa" xmlns="http://www.w3.org/2000/svg"><path fill-rule="evenodd" clip-rule="evenodd" d="M0 3a3 3 0 0 1 3-3h26a3 3 0 0 1 3 3v26a3 3 0 0 1-3 3H3a3 3 0 0 1-3-3V3zm8.238 20.959c-.096.192 0 .385.097.482.193.096.386.096.579.096l2.894-1.06c1.447.964 3.183 1.446 4.92 1.446 5.113 0 9.262-4.148 9.262-9.261 0-5.114-4.149-9.262-9.262-9.262s-9.262 4.148-9.262 9.262c0 1.93.58 3.859 1.737 5.402l-.965 2.895zm.193-8.394c0-4.63 3.763-8.297 8.297-8.297 4.534 0 8.297 3.763 8.297 8.297 0 4.534-3.763 8.297-8.297 8.297a8.65 8.65 0 0 1-4.63-1.35c-.097-.097-.194-.097-.29-.097h-.193l-2.22.868.773-2.219c.079-.159.028-.252-.047-.388a2.607 2.607 0 0 1-.05-.094 8.44 8.44 0 0 1-1.64-5.017zM18.767 21.3a34.522 34.522 0 0 0-.206-.042 1.805 1.805 0 0 0-.15-.05c-.894-.282-5.407-1.706-7.086-6.124 0 0-1.254-2.509.386-4.149.675-.675 1.254-.965 1.737-.965.386 0 .771.29.868.483l.965 2.315c.193.29.386 1.061-.386 1.737-.35.349-.304.382-.006.6l.102.075.097.096c.482.676 1.543 2.027 2.99 2.509h.097c.193 0 .29-.097.29-.097s.578-1.06 1.543-1.06c.193 0 .386.096.579.192l1.447.772c.017.017.047.04.085.07.174.139.528.42.687.895.096.482 0 .964-.29 1.543-.579.869-1.447 1.351-2.604 1.351-.412 0-.754-.07-1.145-.151zm-5.32-10.365c-.096 0-.482 0-1.06.676-1.158 1.254-.194 3.183-.097 2.99 1.736 4.245 6.464 5.5 6.657 5.5 1.35.289 2.315.096 2.797-.773l.044-.083c.1-.188.233-.438.15-.688-.097-.193-.29-.29-.29-.29l-1.447-.675c-.386-.193-.869.29-.965.579-.29.386-.675.579-1.158.579h-.386c-1.736-.483-2.99-2.123-3.473-2.798l-.096-.097c-.482-.579-.772-1.157.193-2.026.24-.24.214-.413.199-.52-.003-.023-.006-.042-.006-.059l-1.061-2.315z"/></symbol><symbol viewBox="0 0 40 40" id="soc-yb" xmlns="http://www.w3.org/2000/svg"><path fill-rule="evenodd" clip-rule="evenodd" d="M3 0a3 3 0 0 0-3 3v34a3 3 0 0 0 3 3h34a3 3 0 0 0 3-3V3a3 3 0 0 0-3-3H3zm17.407 28.62c1.436 0 2.834-.021 4.157-.062.312-.01.57.212.581.494.01.282-.233.518-.543.528-1.335.04-2.746.062-4.195.062-4.204 0-7.942-.174-9.996-.465-1.334-.189-2.269-.596-2.942-1.28-.693-.704-1.09-1.682-1.251-3.08-.29-2.522-.29-6.47 0-8.992.16-1.398.558-2.377 1.251-3.08.673-.685 1.608-1.091 2.942-1.28.366-.052.793-.101 1.27-.146.308-.03.585.175.617.455.032.282-.192.533-.502.562-.457.043-.865.09-1.212.139-2.138.303-2.988 1.207-3.247 3.457-.283 2.46-.283 6.317 0 8.778.26 2.25 1.109 3.154 3.247 3.457 2 .283 5.673.452 9.823.452zm14.19-12.795c-.16-1.398-.558-2.377-1.25-3.08-.674-.685-1.609-1.091-2.942-1.28-2.056-.291-5.793-.465-9.998-.465-1.448 0-2.859.021-4.193.062-.311.01-.555.246-.544.528.01.282.27.504.582.494 1.322-.04 2.72-.061 4.156-.061 4.15 0 7.822.169 9.823.452 2.138.303 2.988 1.207 3.247 3.457.283 2.461.283 6.317 0 8.778-.26 2.25-1.109 3.154-3.247 3.457-.347.05-.755.096-1.212.139-.31.03-.534.28-.502.561.03.263.274.459.56.459l.058-.003c.476-.045.904-.094 1.27-.146 1.333-.189 2.268-.595 2.941-1.28.693-.703 1.09-1.682 1.251-3.08.29-2.521.29-6.47 0-8.992zm-16.517.152l6.966 3.909a.502.502 0 0 1 .268.435.503.503 0 0 1-.268.435l-6.965 3.909a.606.606 0 0 1-.57.011.506.506 0 0 1-.29-.446v-7.818c0-.185.111-.356.29-.447a.613.613 0 0 1 .57.012zm.268 1.352v5.984l5.332-2.992-5.332-2.992zm-4.365-5.152h.038c.31-.02.545-.263.524-.545-.02-.281-.29-.495-.6-.476-.31.019-.544.262-.523.544.02.27.267.477.56.477zM26.27 29.01c-.02-.281.214-.525.524-.544.31-.018.579.195.6.477.02.281-.214.525-.525.544a.803.803 0 0 1-.038 0c-.294 0-.541-.207-.561-.477z"/></symbol><symbol viewBox="0 0 44 44" id="view" xmlns="http://www.w3.org/2000/svg"><path fill-rule="evenodd" clip-rule="evenodd" d="M43 22c0 11.598-9.402 21-21 21S1 33.598 1 22 10.402 1 22 1s21 9.402 21 21zm1 0c0 12.15-9.85 22-22 22S0 34.15 0 22 9.85 0 22 0s22 9.85 22 22zm-4.968 0c0 9.407-7.625 17.032-17.032 17.032S4.968 31.407 4.968 22 12.593 4.968 22 4.968 39.032 12.593 39.032 22zm-11.443.798h-4.79v4.79a.798.798 0 1 1-1.597 0v-4.79h-4.79a.798.798 0 1 1 0-1.597h4.79v-4.79a.798.798 0 0 1 1.596 0v4.79h4.79a.799.799 0 0 1 0 1.597z"/></symbol></svg>