<svg version="1" xmlns="http://www.w3.org/2000/svg" width="933.333" height="933.333" viewBox="0 0 700.000000 700.000000"><path d="M342.9 6.7c-4.6 3.7-8.6 7.1-8.9 7.4-1.3 1.5-21.2 15.9-27 19.6-23.1 14.4-43.8 20.6-79 23.9-3.6.4-7.2.8-8 .9-.8.2-2 .4-2.5.4-.9.1-1.3 23-.6 29.8.1.8 3.1 1.2 9.9 1.2 20 .1 30.1 4.1 35.1 13.9 4.2 8.3.8 28.6-8.1 48.2-1.2 2.5-3.8 9.2-6 15-2.1 5.8-4.3 11.4-4.7 12.5-.9 1.9-3.4 8.7-9.2 25-1.6 4.4-3.3 8.9-3.9 10-.5 1.1-5.2 13.7-10.5 28-23.5 63.1-41.7 112.2-42.6 114-.4 1.1-3.8 10.1-7.5 20s-10.5 28.1-15.1 40.5c-4.7 12.4-10.5 28-13 34.8l-4.5 12.2-12.2 7.1c-30 17.4-48.3 29.2-92.3 59.7L0 553.1v8.5c0 4.6.3 8.4.6 8.4.4 0 21.1-11.3 33.9-18.6 2.2-1.3 6-3.4 8.5-4.7 2.5-1.3 6.3-3.4 8.5-4.7 2.2-1.2 9.1-5.1 15.2-8.6 6.2-3.5 11.5-6.4 11.6-6.4.2 0 4.2-2.2 8.8-4.8 12.3-7.1 34.9-19.3 34.9-18.9 0 .1-.9 2.7-2.1 5.7-1.1 3-2.9 7.7-3.9 10.5-1 2.7-3.2 8.6-4.9 13-1.6 4.4-6.5 17.7-10.9 29.5-13.3 35.6-16.8 42.9-27 55.9-18.7 24.1-29 29.1-66.4 32.6l-6.8.7V700h197.8l.1-24.3.1-24.3-16.5-.1c-20.6-.1-27.6-1.3-32.2-5.6-3.5-3.1-2.9-8.2 2.8-25.7 2.7-8.5 6.6-20.5 8.6-26.5 1.9-6.1 5-14.8 6.8-19.5 1.8-4.7 12-32.3 22.7-61.4l19.5-52.9 5.9-2.4c3.2-1.3 7.9-3.3 10.3-4.4 2.4-1.1 6.6-2.9 9.4-4 2.8-1.1 6.9-2.9 9.2-3.9 4.2-1.9 24.3-9.9 43.5-17.2 35.2-13.5 110.5-38.6 111.8-37.4 1.4 1.5 41.8 108.6 57.7 153.1 2.5 7.1 5.7 15.9 7 19.5 4.6 12.7 16.6 46.5 17.5 49.5 6.4 21.2 7.4 28.7 4.3 33-3.4 4.7-8.4 5.7-28.2 5.8-10 0-18.1.3-18.2.6-.1.8-.1 45.3 0 46.8.1 1 26.7 1.3 129.6 1.3H699v-48.9h-7.3c-16.5-.1-27.9-2.4-36.9-7.4-22.3-12.4-42.9-44.1-54.3-83.7-2.8-9.6-7.6-23.7-10.2-30-.3-.8-.7-2-.9-2.5-.1-.6-11.1-30.5-24.4-66.5-13.3-36-24.7-67.1-25.4-69-.7-1.9-3.4-9.4-6-16.5-2.6-7.2-5.3-14.5-6.2-16.4-.8-1.8-1.3-3.5-1.1-3.7.2-.2 4.6-1.4 9.8-2.5 5.2-1.1 10.1-2.2 10.9-2.4.8-.2 5.3-1.3 10-2.3 4.7-1.1 13.7-3.2 20-4.6 12.2-2.8 60.8-13 73-15.2 1.4-.3 3.2-.7 4-.9.8-.2 3.1-.7 5-1 1.9-.3 9.4-1.7 16.5-3 7.2-1.3 14.4-2.7 16-2.9 1.7-.3 4.2-.8 5.8-1.2l2.7-.6v-25.3c0-23.6-.1-25.3-1.7-24.9-4.8 1-27.4 5.5-29.9 6-11.3 1.9-61.7 13.2-80.9 18-7.7 2-15.1 3.8-16.5 4-1.4.3-5.6 1.3-9.5 2.4-3.8 1-14 3.6-22.5 5.9-8.5 2.2-18.5 4.9-22.1 5.9l-6.6 1.8-9.7-26.5c-5.4-14.6-10.1-27.5-10.5-28.6-1.9-4.5-4.2-10.8-9.9-26.5-12.7-34.9-49.3-134.6-50.2-136.5-.5-1.1-5.5-14.6-11.1-30s-13.9-36.1-18.4-46l-8.1-18-20.6-.3-20.6-.2-8.3 6.7zm-19.3 179.6c.3 1.2 1.9 5.6 3.5 9.7s7.4 19.9 13 35c5.6 15.1 16.9 45.5 25.1 67.5 20.2 53.6 19.9 52.8 19 53.5-.4.4-5.4 2.3-11.2 4.4-16.8 6-56.9 21.3-64.5 24.6-1.1.5-11.2 4.8-22.5 9.6-21.8 9.2-23.5 9.9-37.5 16.4-4.9 2.3-11.5 5.3-14.5 6.6-3 1.4-6.3 2.9-7.3 3.4-.9.6-1.7.9-1.7.7 0-.4 2-6 7.3-20.7 1.9-5.2 4.9-13.6 6.6-18.5 1.8-5 3.8-10.6 4.5-12.5 2-4.9 4.7-12.3 10.2-27.5 10.3-28.8 14.5-40.1 15.3-42 .5-1.1 1.9-4.9 3.1-8.5 1.2-3.6 2.6-7.4 3.1-8.5.5-1.1 2.5-6.5 4.4-12 2-5.5 3.9-10.9 4.4-12 .5-1.1 1.7-4.3 2.6-7 1-2.8 2.1-5.9 2.6-7 .7-1.7 4.4-11.7 20.1-54.7 1.1-3.1 2.2-3.4 8.9-3 3.9.3 4.9.8 5.5 2.5z"/></svg>