<svg width="30" height="12" viewBox="0 0 30 12" xmlns="http://www.w3.org/2000/svg"><path d="M25.1291 11.4471L29.7865 6.51751C30.0711 6.21533 30.0711 5.72641 29.7866 5.42418L29.7857 5.42317L25.1291 0.494534C24.8434 0.192089 24.3801 0.192089 24.0943 0.494534C23.8086 0.796981 23.8086 1.28734 24.0943 1.58979L27.5018 5.19633L0.731708 5.19634C0.327597 5.19634 0 5.54308 0 5.9708C0 6.39852 0.327598 6.74526 0.731709 6.74526L27.5018 6.74525L24.0943 10.3518C23.8086 10.6542 23.8086 11.1446 24.0943 11.4471C24.1301 11.4849 24.1686 11.5179 24.2091 11.5463C24.412 11.6881 24.6669 11.7117 24.8871 11.6172C24.9752 11.5794 25.0577 11.5227 25.1291 11.4471Z"/></svg>