<svg width="38" height="39" viewBox="0 0 38 39" xmlns="http://www.w3.org/2000/svg"><path d="M18.8392 20.6423C18.8855 20.6423 18.9317 20.6423 18.9872 20.6423C19.0057 20.6423 19.0242 20.6423 19.0427 20.6423C19.0705 20.6423 19.1075 20.6423 19.1352 20.6423C21.8459 20.603 24.0384 19.7925 25.6574 18.2423C29.2191 14.8271 28.6271 8.97242 28.5623 8.41372C28.331 4.21947 25.9997 2.21284 24.0754 1.27642C22.6415 0.576065 20.967 0.198347 19.0982 0.16687H19.0335C19.0242 0.16687 19.0057 0.16687 18.9965 0.16687H18.941C17.9141 0.16687 15.8973 0.308514 13.9638 1.24494C12.021 2.18137 9.65269 4.18799 9.42141 8.41372C9.35665 8.97242 8.76457 14.8271 12.3263 18.2423C13.936 19.7925 16.1286 20.603 18.8392 20.6423ZM11.8915 8.61045C11.8915 8.58684 11.9008 8.56323 11.9008 8.54749C12.206 2.90533 16.9149 2.2994 18.9317 2.2994H18.9687C18.9872 2.2994 19.015 2.2994 19.0427 2.2994C21.5406 2.34662 25.7869 3.21222 26.0737 8.54749C26.0737 8.5711 26.0737 8.59471 26.083 8.61045C26.0922 8.66553 26.7398 14.0165 23.7979 16.8337C22.6322 17.9511 21.078 18.5019 19.0335 18.5177C19.015 18.5177 19.0057 18.5177 18.9872 18.5177C18.9687 18.5177 18.9595 18.5177 18.941 18.5177C16.9057 18.5019 15.3422 17.9511 14.1858 16.8337C11.2532 14.0323 11.8823 8.65766 11.8915 8.61045Z M37.9974 30.3528C37.9974 30.345 37.9974 30.3371 37.9974 30.3292C37.9974 30.2663 37.9882 30.2033 37.9882 30.1325C37.9327 28.5744 37.8124 24.931 33.7973 23.7664C33.7696 23.7585 33.7326 23.7506 33.7048 23.7428C29.5325 22.8378 26.0633 20.7918 26.0263 20.7682C25.462 20.4299 24.6849 20.5479 24.2871 21.0279C23.8893 21.5079 24.028 22.1689 24.5923 22.5073C24.7496 22.6017 28.4316 24.7815 33.0387 25.7887C35.1943 26.4419 35.4348 28.4013 35.4996 30.1955C35.4996 30.2663 35.4996 30.3292 35.5088 30.3922C35.5181 31.1004 35.4626 32.1942 35.3145 32.8237C33.8158 33.5477 27.9413 36.0501 19.0046 36.0501C10.1049 36.0501 4.19333 33.5398 2.68538 32.8159C2.53736 32.1863 2.4726 31.0925 2.4911 30.3843C2.4911 30.3214 2.50036 30.2584 2.50036 30.1876C2.56511 28.3934 2.80565 26.434 4.96119 25.7809C9.56831 24.7736 13.2503 22.586 13.4076 22.4994C13.9719 22.1611 14.1107 21.5001 13.7129 21.0201C13.3151 20.54 12.538 20.422 11.9736 20.7604C11.9366 20.784 8.48592 22.83 4.2951 23.7349C4.25809 23.7428 4.23034 23.7506 4.20259 23.7585C0.187543 24.931 0.0672768 28.5744 0.0117693 30.1246C0.0117693 30.1955 0.0117691 30.2584 0.00251786 30.3214C0.00251786 30.3292 0.00251786 30.3371 0.00251786 30.345C-0.00673339 30.7542 -0.0159844 32.8552 0.474332 33.9097C0.566844 34.1143 0.733367 34.2874 0.955397 34.4054C1.23293 34.5628 7.88459 38.1669 19.0138 38.1669C30.1431 38.1669 36.7947 34.555 37.0723 34.4054C37.2851 34.2874 37.4608 34.1143 37.5533 33.9097C38.0159 32.8631 38.0067 30.762 37.9974 30.3528Z"/></svg>