<svg width="38" height="38" viewBox="0 0 38 38" xmlns="http://www.w3.org/2000/svg"><path d="M37.6492 17.1453L19.7667 0.38621C19.7354 0.353446 19.7042 0.328872 19.6651 0.304299C19.2743 -0.0888768 18.649 -0.105259 18.2348 0.279725L0.352303 17.0388C-0.0853807 17.4484 -0.116644 18.1446 0.266329 18.6033C0.477355 18.8491 0.766538 18.9719 1.05572 18.9719C1.30583 18.9719 1.55593 18.8818 1.75914 18.6934L4.97924 15.6709V35.215C4.97924 36.7468 6.16724 38 7.6366 38C7.66005 38 7.67568 38 7.69913 38C7.72258 38 7.73821 38 7.76165 38H13.2796C14.6552 38 15.7728 36.8287 15.7728 35.387V25.4511C15.7728 25.23 15.9448 25.0498 16.1558 25.0498H21.8535C22.0645 25.0498 22.2365 25.23 22.2365 25.4511V35.387C22.2365 36.8287 23.3541 38 24.7297 38H30.3727C31.8577 38 33.03 36.4683 33.03 34.5106V15.7774L36.2501 18.7999C36.4534 18.9883 36.7035 19.0784 36.9536 19.0784C37.2427 19.0784 37.5319 18.9556 37.743 18.7098C38.1181 18.2511 38.079 17.5549 37.6492 17.1453ZM30.912 34.4942C30.912 35.2887 30.5368 35.772 30.3649 35.772H24.7219C24.5109 35.772 24.3389 35.5918 24.3389 35.3706V25.4511C24.3389 24.0095 23.2212 22.8382 21.8457 22.8382H16.148C14.7724 22.8382 13.6547 24.0095 13.6547 25.4511V35.387C13.6547 35.6082 13.4828 35.7884 13.2718 35.7884H7.75384C7.73039 35.7884 7.71476 35.7884 7.69131 35.7884C7.66786 35.7884 7.65223 35.7884 7.62879 35.7884C7.33179 35.7884 7.08168 35.5345 7.08168 35.215V13.6886L18.946 2.58144L30.912 13.7951V34.4942Z"/></svg>