<svg width="38" height="39" viewBox="0 0 38 39" xmlns="http://www.w3.org/2000/svg"><path d="M25.8114 6.81278H3.75121C1.68124 6.81278 0 8.15909 0 9.81667V35.163C0 36.8206 1.68124 38.1669 3.75121 38.1669H25.8114C27.8814 38.1669 29.5626 36.8206 29.5626 35.163V9.81667C29.5529 8.15909 27.8717 6.81278 25.8114 6.81278ZM26.929 35.1552C26.929 35.6533 26.4237 36.0579 25.8017 36.0579H3.74149C3.11953 36.0579 2.61418 35.6533 2.61418 35.1552V9.81667C2.61418 9.31862 3.11953 8.91395 3.74149 8.91395H25.8017C26.4237 8.91395 26.929 9.31862 26.929 9.81667V35.1552Z M34.2485 0.16687H12.1883C10.1184 0.16687 8.43712 1.51317 8.43712 3.17076C8.43712 3.75442 9.02021 4.22134 9.74907 4.22134C10.4779 4.22134 11.061 3.75442 11.061 3.17076C11.061 2.67271 11.5664 2.26804 12.1883 2.26804H34.2485C34.8705 2.26804 35.3759 2.67271 35.3759 3.17076V28.5171C35.3759 29.0151 34.8705 29.4198 34.2485 29.4198C33.5197 29.4198 32.9366 29.8867 32.9366 30.4704C32.9366 31.054 33.5197 31.521 34.2485 31.521C36.3185 31.521 37.9998 30.1747 37.9998 28.5171V3.17076C37.9998 1.51317 36.3185 0.16687 34.2485 0.16687Z"/></svg>