<svg width="38" height="39" viewBox="0 0 38 39" xmlns="http://www.w3.org/2000/svg"><path d="M37.9903 33.0148L35.2718 8.51291C35.2136 7.96895 34.6408 7.55708 33.9709 7.55708H28.3786C28.301 3.46956 24.1262 0.166901 19 0.166901C13.8738 0.166901 9.69903 3.46956 9.62136 7.55708H4.02913C3.34952 7.55708 2.78641 7.96895 2.72816 8.51291L0.00970896 33.0148C0.00970896 33.0458 0 33.0769 0 33.108C0 35.8978 3.19417 38.1669 7.12621 38.1669H30.8738C34.8058 38.1669 38 35.8978 38 33.108C38 33.0769 38 33.0458 37.9903 33.0148ZM19 2.26506C22.6796 2.26506 25.6796 4.62743 25.7573 7.55708H12.2427C12.3204 4.62743 15.3204 2.26506 19 2.26506ZM30.8738 36.0687H7.12621C4.66019 36.0687 2.66019 34.7632 2.62136 33.1546L5.2233 9.66301H9.61165V12.8491C9.61165 13.4319 10.1942 13.8982 10.9223 13.8982C11.6505 13.8982 12.233 13.4319 12.233 12.8491V9.66301H25.7573V12.8491C25.7573 13.4319 26.3398 13.8982 27.068 13.8982C27.7961 13.8982 28.3786 13.4319 28.3786 12.8491V9.66301H32.767L35.3786 33.1546C35.3398 34.7632 33.3301 36.0687 30.8738 36.0687Z"/></svg>