<svg width="14" height="14" viewBox="0 0 14 14" xmlns="http://www.w3.org/2000/svg"><path d="M7.00007 4.17036C8.56039 4.17036 9.82975 5.4398 9.82975 7.00005C9.82975 7.22522 10.0124 7.40784 10.2375 7.40784C10.4627 7.40784 10.6453 7.22522 10.6453 7.00005C10.6453 4.99008 9.01004 3.35479 7.00007 3.35479C4.99009 3.35479 3.35474 4.99008 3.35474 7.00005C3.35474 9.01002 4.99002 10.6453 7 10.6453C8.29064 10.6453 9.49734 9.95242 10.1492 8.83699C10.2628 8.64254 10.1973 8.39284 10.0029 8.27914C9.80848 8.16564 9.55871 8.23109 9.44501 8.42546C8.93881 9.29167 8.00193 9.82974 6.99993 9.82974C5.43961 9.82974 4.17024 8.5603 4.17024 7.00005C4.17024 5.4398 5.43974 4.17036 7.00007 4.17036Z M13.9801 6.46006C13.7245 3.05784 10.9675 0.290131 7.56705 0.0220121C5.51154 -0.140083 3.50082 0.599096 2.04999 2.05C0.599089 3.5009 -0.14009 5.51175 0.0220045 7.56706C0.289172 10.9549 3.04526 13.711 6.433 13.9781C6.6197 13.9928 6.80572 14 6.99126 14C8.84865 14 10.6309 13.2692 11.9501 11.9501C12.1093 11.7908 12.1093 11.5326 11.9501 11.3735C11.7908 11.2143 11.5326 11.2142 11.3734 11.3734C10.0914 12.6553 8.31418 13.3083 6.49716 13.165C3.50517 12.9291 1.07103 10.495 0.83506 7.5029C0.691792 5.68588 1.34479 3.90848 2.62666 2.62667C3.90854 1.3448 5.6856 0.691528 7.50289 0.835068C10.5062 1.07179 12.9411 3.51632 13.1668 6.52109C13.1977 6.93275 13.1886 7.34631 13.1398 7.75029C13.0881 8.17874 12.8287 8.55261 12.4461 8.75025C12.0998 8.9292 11.7108 8.92852 11.3786 8.74848C11.1806 8.64096 10.933 8.71457 10.8258 8.91262C10.7184 9.1106 10.7919 9.35812 10.9899 9.46544C11.5632 9.77624 12.2303 9.77963 12.8204 9.47488C13.4432 9.15314 13.8654 8.545 13.9495 7.84816C14.0047 7.39151 14.015 6.92453 13.9801 6.46006Z"/></svg>