<svg width="17" height="20" viewBox="0 0 17 20" xmlns="http://www.w3.org/2000/svg"><path d="M8.01677 0C3.59748 0 0 3.59748 0 8.01677C0 8.51992 0.0461215 9.02725 0.142558 9.52201C0.14675 9.55136 0.163522 9.63941 0.197065 9.79036C0.318658 10.3312 0.498952 10.8637 0.733752 11.3711C1.59748 13.4046 3.49686 16.5283 7.66457 19.8742C7.76939 19.9581 7.89518 20 8.02096 20C8.14675 20 8.27254 19.9581 8.37736 19.8742C12.5409 16.5283 14.4444 13.4046 15.3082 11.3711C15.543 10.8637 15.7233 10.3354 15.8449 9.79036C15.8784 9.63941 15.8952 9.55136 15.8994 9.52201C15.9916 9.02725 16.0419 8.51992 16.0419 8.01677C16.0335 3.59748 12.4361 0 8.01677 0ZM14.7757 9.32495C14.7757 9.33333 14.7715 9.34172 14.7715 9.3501C14.7673 9.37107 14.7547 9.43396 14.7338 9.5304C14.7338 9.53459 14.7338 9.53459 14.7338 9.53878C14.6289 10.0084 14.4738 10.4654 14.2683 10.9057C14.2642 10.9099 14.2642 10.9182 14.26 10.9224C13.4759 12.7799 11.7568 15.6143 8.01677 18.7044C4.27673 15.6143 2.55765 12.7799 1.77358 10.9224C1.76939 10.9182 1.76939 10.9099 1.7652 10.9057C1.56394 10.4696 1.4088 10.0084 1.29979 9.53878C1.29979 9.53459 1.29979 9.53459 1.29979 9.5304C1.27463 9.43396 1.26625 9.37107 1.26205 9.3501C1.26205 9.34172 1.25786 9.33333 1.25786 9.32075C1.174 8.88889 1.13208 8.45283 1.13208 8.01258C1.13208 4.21803 4.22222 1.12788 8.01677 1.12788C11.8113 1.12788 14.9015 4.21803 14.9015 8.01258C14.9015 8.45702 14.8595 8.89727 14.7757 9.32495Z M8.01658 3.01468C5.21155 3.01468 2.92644 5.29979 2.92644 8.10483C2.92644 10.9099 5.21155 13.195 8.01658 13.195C10.8216 13.195 13.1067 10.9099 13.1067 8.10483C13.1067 5.29979 10.8216 3.01468 8.01658 3.01468ZM8.01658 12.0629C5.8321 12.0629 4.05851 10.2851 4.05851 8.10483C4.05851 5.92453 5.83629 4.14675 8.01658 4.14675C10.1969 4.14675 11.9747 5.92453 11.9747 8.10483C11.9747 10.2851 10.2011 12.0629 8.01658 12.0629Z"/></svg>