<svg width="18" height="20" viewBox="0 0 18 20" xmlns="http://www.w3.org/2000/svg"><path d="M8.43351 10.7766C8.45422 10.7766 8.47493 10.7766 8.49978 10.7766C8.50806 10.7766 8.51635 10.7766 8.52463 10.7766C8.53705 10.7766 8.55362 10.7766 8.56605 10.7766C9.77955 10.7559 10.7611 10.3293 11.4859 9.51336C13.0804 7.71588 12.8154 4.6345 12.7864 4.34044C12.6828 2.13295 11.6391 1.07683 10.7777 0.583972C10.1357 0.215366 9.38609 0.0165666 8.54948 0H8.52049C8.51635 0 8.50806 0 8.50392 0H8.47907C8.01935 0 7.11647 0.0745496 6.25087 0.567405C5.38112 1.06026 4.32086 2.11638 4.21732 4.34044C4.18833 4.6345 3.92326 7.71588 5.5178 9.51336C6.23844 10.3293 7.22001 10.7559 8.43351 10.7766ZM5.32314 4.44398C5.32314 4.43156 5.32728 4.41913 5.32728 4.41085C5.46395 1.44129 7.57205 1.12239 8.47493 1.12239H8.4915C8.49978 1.12239 8.5122 1.12239 8.52463 1.12239C9.64287 1.14724 11.5439 1.60282 11.6723 4.41085C11.6723 4.42328 11.6723 4.4357 11.6764 4.44398C11.6806 4.47298 11.9705 7.2893 10.6534 8.772C10.1316 9.36012 9.43579 9.65003 8.52049 9.65832C8.51221 9.65832 8.50806 9.65832 8.49978 9.65832C8.4915 9.65832 8.48736 9.65832 8.47907 9.65832C7.56791 9.65003 6.86797 9.36012 6.35027 8.772C5.03737 7.29758 5.319 4.46883 5.32314 4.44398Z M17.0109 15.8873C17.0109 15.8832 17.0109 15.8791 17.0109 15.8749C17.0109 15.8418 17.0067 15.8087 17.0067 15.7714C16.9819 14.9513 16.928 13.0338 15.1306 12.4208C15.1181 12.4166 15.1016 12.4125 15.0891 12.4084C13.2213 11.9321 11.6681 10.8552 11.6516 10.8428C11.3989 10.6647 11.051 10.7269 10.8729 10.9795C10.6949 11.2321 10.757 11.58 11.0096 11.7581C11.08 11.8078 12.7284 12.9551 14.7909 13.4852C15.7559 13.8289 15.8636 14.8602 15.8926 15.8045C15.8926 15.8418 15.8926 15.8749 15.8968 15.9081C15.9009 16.2808 15.8761 16.8565 15.8098 17.1878C15.1388 17.5689 12.5089 18.8859 8.50807 18.8859C4.5238 18.8859 1.87729 17.5647 1.2022 17.1837C1.13594 16.8523 1.10695 16.2767 1.11523 15.9039C1.11523 15.8708 1.11937 15.8376 1.11937 15.8004C1.14836 14.8561 1.25605 13.8248 2.22105 13.4811C4.28359 12.9509 5.93196 11.7995 6.00237 11.754C6.25501 11.5759 6.31714 11.228 6.13904 10.9754C5.96095 10.7227 5.61306 10.6606 5.36042 10.8387C5.34385 10.8511 3.79902 11.9279 1.92285 12.4042C1.90628 12.4084 1.89386 12.4125 1.88143 12.4166C0.0839602 13.0338 0.0301188 14.9513 0.00526895 15.7672C0.00526895 15.8045 0.00526885 15.8376 0.00112721 15.8708C0.00112721 15.8749 0.00112721 15.8791 0.00112721 15.8832C-0.00301444 16.0986 -0.007156 17.2044 0.212351 17.7594C0.253768 17.8671 0.328317 17.9582 0.427717 18.0203C0.551966 18.1031 3.52981 20 8.51221 20C13.4946 20 16.4724 18.099 16.5967 18.0203C16.692 17.9582 16.7706 17.8671 16.8121 17.7594C17.0191 17.2085 17.015 16.1027 17.0109 15.8873Z"/></svg>