<svg width="80" height="80" viewBox="0 0 80 80" xmlns="http://www.w3.org/2000/svg"><circle opacity="0.3" cx="40" cy="40" r="40" fill="#D0CCC7"/><path d="M57.3476 27.9378C57.2893 27.8496 57.2113 27.7769 57.1195 27.7261L45.1752 21.0816C44.8588 20.9055 44.4618 21.0238 44.2887 21.3456C44.1156 21.6675 44.2318 22.0713 44.5486 22.2474L54.3135 27.6794H27.0124L36.7772 22.2474C37.0936 22.0713 37.2099 21.6675 37.0368 21.3456C36.8636 21.0238 36.4667 20.9055 36.1503 21.0816L24.2662 27.6924C22.9802 27.8262 22.0015 28.9275 22 30.2423V54.8328C22.0015 56.0293 22.9547 56.9989 24.1306 57H56.6354C57.8113 56.9989 58.7645 56.0293 58.766 54.8328V30.2423C58.7649 29.2615 58.2145 28.3672 57.3476 27.9378ZM35.6914 29.0083H45.0812C45.0144 29.1147 44.9787 29.2382 44.9784 29.3642V37.1648L44.3587 36.4922C44.2351 36.3584 44.0627 36.2824 43.8819 36.2824C43.7015 36.2824 43.5291 36.3584 43.4055 36.4922L42.133 37.8734L40.8598 36.4922C40.7362 36.3584 40.5638 36.2824 40.3833 36.2824C40.2025 36.2824 40.0301 36.3584 39.9066 36.4922L38.6333 37.8738L37.3597 36.4922C37.2362 36.3584 37.0637 36.2824 36.8833 36.2824C36.7029 36.2824 36.5305 36.3584 36.4069 36.4922L35.7865 37.1652V29.3531C35.7865 29.2315 35.7537 29.1121 35.6914 29.0083ZM57.4596 54.8328C57.4588 55.2955 57.0903 55.6707 56.6354 55.6711H24.1306C23.6757 55.6707 23.3071 55.2955 23.3064 54.8328V30.2423C23.3071 29.5611 23.8499 29.009 24.5195 29.0083H34.576C34.5136 29.1121 34.4805 29.2315 34.4805 29.3531V38.8452C34.4805 39.1178 34.6441 39.3628 34.8935 39.463C35.1428 39.5634 35.4271 39.4986 35.6104 39.2998L36.8837 37.9179L38.1573 39.2994C38.2808 39.4333 38.4533 39.5093 38.6337 39.5093C38.8141 39.5093 38.9869 39.4333 39.1101 39.2994L40.3837 37.9179L41.6569 39.2994C41.7801 39.4333 41.9529 39.5093 42.1334 39.5093C42.3138 39.5093 42.4866 39.4333 42.6098 39.2994L43.8823 37.9183L45.1551 39.2998C45.3385 39.4986 45.6228 39.5634 45.8721 39.463C46.1215 39.3628 46.2851 39.1178 46.2851 38.8452V29.3642C46.2851 29.2382 46.2498 29.1147 46.1827 29.0083H56.2465C56.9161 29.009 57.4588 29.5611 57.4596 30.2423V54.8328Z M31.9847 45.7993H26.3858C26.0249 45.7993 25.7326 46.0967 25.7326 46.4638V49.6911C25.7326 50.0578 26.0249 50.3555 26.3858 50.3555H31.9847C32.3455 50.3555 32.6379 50.0578 32.6379 49.6911V46.4638C32.6379 46.0967 32.3455 45.7993 31.9847 45.7993ZM31.3315 49.0266H27.039V47.1282H31.3315V49.0266Z M43.649 45.7993H35.1574C34.7965 45.7993 34.5042 46.0967 34.5042 46.4638C34.5042 46.8305 34.7965 47.1282 35.1574 47.1282H43.649C44.0099 47.1282 44.3022 46.8305 44.3022 46.4638C44.3022 46.0967 44.0099 45.7993 43.649 45.7993Z M39.4498 48.2673H35.1574C34.7965 48.2673 34.5042 48.5646 34.5042 48.9317C34.5042 49.2984 34.7965 49.5962 35.1574 49.5962H39.4498C39.8107 49.5962 40.103 49.2984 40.103 48.9317C40.103 48.5646 39.8107 48.2673 39.4498 48.2673Z"/></svg>