<svg width="80" height="80" viewBox="0 0 80 80" xmlns="http://www.w3.org/2000/svg"><circle opacity="0.3" cx="40" cy="40" r="40" fill="#D0CCC7"/><path d="M21.0375 54.0712H23.1302C23.5138 56.3396 25.4826 58 27.7879 58C30.0938 58 32.0625 56.3396 32.4461 54.0712H46.7552C47.1388 56.3396 49.1076 58 51.4129 58C53.7188 58 55.6875 56.3396 56.0711 54.0712H58.1625C59.8395 54.0694 61.1982 52.7138 61.2 51.0407V40.9878C61.2 40.9812 61.1991 40.9746 61.1991 40.9681C61.1991 40.954 61.1978 40.9396 61.1969 40.9255C61.196 40.9137 61.1947 40.9014 61.193 40.8896C61.1917 40.8773 61.1895 40.8633 61.1873 40.8501C61.1851 40.837 61.1824 40.8251 61.1798 40.8129C61.1772 40.8006 61.1736 40.7879 61.1701 40.7756C61.1666 40.7633 61.1631 40.751 61.1587 40.7388C61.1547 40.7265 61.1503 40.7147 61.1455 40.7028C61.1411 40.691 61.1363 40.6791 61.131 40.6673C61.1257 40.6559 61.1196 40.6441 61.1143 40.6327C61.1086 40.6213 61.1029 40.6103 61.0959 40.5993C61.0893 40.5879 61.0831 40.5774 61.0765 40.5669C61.0695 40.5559 61.0616 40.5441 61.0537 40.5331C61.0462 40.5217 61.0396 40.5134 61.0321 40.5042C61.0233 40.4928 61.0141 40.4814 61.0049 40.4713C61.0005 40.4661 60.9965 40.4612 60.9921 40.4564L55.1971 34.1565C54.6209 33.5322 53.8097 33.1762 52.9589 33.1753H42.4666V25.0305C42.4644 23.3574 41.1056 22.0022 39.4291 22H21.0375C19.3605 22.0018 18.0018 23.3574 18 25.0305V51.0407C18.0018 52.7138 19.3605 54.0694 21.0375 54.0712ZM27.7875 56.4282C26.0477 56.4282 24.6375 55.0213 24.6375 53.2855C24.6375 51.5502 26.0477 50.1428 27.7875 50.1428C29.5273 50.1428 30.9375 51.5502 30.9375 53.2855C30.9353 55.0204 29.5264 56.4265 27.7875 56.4282ZM51.4125 56.4282C49.6727 56.4282 48.2625 55.0213 48.2625 53.2855C48.2625 51.5502 49.6727 50.1428 51.4125 50.1428C53.1523 50.1428 54.5625 51.5502 54.5625 53.2855C54.5603 55.0204 53.1514 56.4265 51.4125 56.4282ZM59.625 51.0407C59.6241 51.8465 58.9698 52.4989 58.1625 52.4998H56.0698C55.6862 50.2318 53.7174 48.5714 51.4121 48.5714C49.1063 48.5714 47.1375 50.2318 46.7539 52.4998H42.4666V41.7735H59.625V51.0407ZM52.9589 34.7471C53.3685 34.7475 53.7592 34.919 54.0365 35.2197L58.6208 40.203H42.4657V34.7471H52.9589ZM19.575 25.0305C19.5759 24.2251 20.2302 23.5722 21.0375 23.5714H39.4291C40.2363 23.5722 40.8902 24.2251 40.8916 25.0305V52.4998H32.4457C32.0616 50.2318 30.0929 48.5714 27.7875 48.5714C25.4821 48.5714 23.5134 50.2318 23.1293 52.4998H21.0375C20.2302 52.4989 19.5759 51.8465 19.575 51.0407V25.0305Z M30.2331 39.7746C32.2488 39.7746 33.8884 38.1042 33.8884 36.051C33.8884 33.9978 32.2488 32.3274 30.2331 32.3274C28.2177 32.3274 26.5777 33.9978 26.5777 36.051C26.5777 38.1042 28.2177 39.7746 30.2331 39.7746ZM30.2331 33.8987C31.3805 33.8987 32.3134 34.8642 32.3134 36.051C32.3134 37.2383 31.3805 38.2033 30.2331 38.2033C29.0861 38.2033 28.1527 37.2379 28.1527 36.051C28.1527 34.8642 29.0861 33.8987 30.2331 33.8987Z M24.8682 41.8419L29.6591 46.933C29.8081 47.0913 30.0155 47.1811 30.2331 47.1811C30.4506 47.1811 30.6584 47.0913 30.8074 46.933L35.5979 41.8419C36.3458 41.0636 36.9272 40.1421 37.3065 39.1328C37.669 38.1577 37.8215 37.1173 37.7547 36.0795C37.6299 34.1898 36.824 32.4089 35.4854 31.066C34.0937 29.6735 32.204 28.8909 30.2331 28.8909C28.2621 28.8909 26.3725 29.6735 24.9812 31.066C23.6426 32.4089 22.8362 34.1898 22.7118 36.0799C22.6446 37.1177 22.7975 38.1577 23.1596 39.1328C23.5389 40.1421 24.1203 41.0641 24.8682 41.8419ZM24.2833 36.1839C24.3826 34.6726 25.0269 33.2485 26.0969 32.1744C27.1929 31.0778 28.6809 30.4614 30.2331 30.4614C31.7852 30.4614 33.2736 31.0778 34.3696 32.1744C35.4397 33.2485 36.0839 34.6726 36.1833 36.1839C36.2351 37.0029 36.1138 37.824 35.8269 38.5935C35.5201 39.4033 35.0517 40.1429 34.4496 40.7664L30.2331 45.2472L26.0165 40.7664C25.4145 40.1429 24.946 39.4037 24.6393 38.5939C24.3527 37.8245 24.231 37.0033 24.2833 36.1839Z"/></svg>