<svg width="80" height="80" viewBox="0 0 80 80" xmlns="http://www.w3.org/2000/svg"><circle opacity="0.3" cx="40" cy="40" r="40" fill="#D0CCC7"/><path d="M21.6238 23.2475H26.3089C27.985 23.2496 29.3428 24.6075 29.3446 26.2831V49.1866C27.0751 49.4636 25.3907 51.4251 25.46 53.7109C25.5292 55.9964 27.3288 57.8524 29.6112 57.9916C31.8936 58.1312 33.9062 56.5081 34.2529 54.2477H58.1723C58.5169 54.2477 58.7961 53.9685 58.7961 53.6239C58.7961 53.2797 58.5169 53.0001 58.1723 53.0001H34.265C34.0078 51.0666 32.517 49.5284 30.5924 49.2113V26.2835C30.5896 23.919 28.6735 22.0028 26.3089 22H21.6238C21.2792 22 21 22.2792 21 22.6238C21 22.9684 21.2792 23.2475 21.6238 23.2475ZM33.0565 53.5766C33.0565 55.3306 31.6346 56.7525 29.8803 56.7525C28.1263 56.7525 26.7044 55.3306 26.7044 53.5766C26.7044 51.8222 28.1263 50.4003 29.8803 50.4003C31.6335 50.4024 33.0544 51.8233 33.0565 53.5766Z M37.4895 51.51H52.1211C53.558 51.5083 54.7223 50.3439 54.724 48.9067V38.8966H55.4982C55.8424 38.8966 56.1219 38.6174 56.1219 38.2728V35.5104C56.1202 34.0736 54.9559 32.9089 53.5186 32.9075H51.5725L51.757 32.7181C52.3846 32.093 52.6303 31.18 52.4013 30.324C52.1726 29.4681 51.5039 28.7994 50.648 28.5707C49.7924 28.3421 48.8794 28.5878 48.2539 29.2154L44.8591 32.6106L42.3699 30.1214C41.5217 29.2739 40.1882 29.1559 39.2041 29.8412C38.2201 30.5263 37.8682 31.818 38.3687 32.9078H36.0916C34.6547 32.9092 33.49 34.0739 33.4883 35.5108V38.2732C33.4883 38.6178 33.7678 38.8969 34.112 38.8969H34.8862V48.9067C34.8879 50.3439 36.0523 51.5083 37.4895 51.51ZM36.1337 48.9067V38.8966H41.7284V50.2625H37.4895C36.7411 50.2614 36.1344 49.6551 36.1337 48.9067ZM44.8072 34.155C44.8114 34.155 44.8159 34.1557 44.8197 34.1557C44.8236 34.1557 44.8284 34.155 44.8326 34.155H46.7603V37.6491H42.9759V34.155H44.8072ZM46.7603 38.8966V50.2625H42.9759V38.8966H46.7603ZM53.4769 48.9067C53.4758 49.6551 52.8695 50.2614 52.1211 50.2625H48.0078V38.8966H53.4769V48.9067ZM54.8744 35.5104V37.6491H48.0082V34.155H53.519C54.2674 34.1557 54.8737 34.7624 54.8744 35.5104ZM49.1359 30.0978C49.6173 29.6195 50.3956 29.622 50.8743 30.1033C51.3525 30.5851 51.3501 31.3634 50.8683 31.842L49.8304 32.9075H47.492C47.4206 32.8943 47.3472 32.8943 47.2754 32.9075H46.3266L49.1359 30.0978ZM39.7499 32.7418C39.2696 32.2618 39.2696 31.4835 39.7496 31.0035C40.2296 30.5235 41.0079 30.5235 41.4879 31.0035L43.3922 32.9075H42.4604C42.3887 32.8943 42.3156 32.8943 42.2439 32.9075H39.9149L39.7499 32.7418ZM34.7358 35.5104C34.7369 34.7624 35.3432 34.1557 36.0916 34.155H41.7284V37.6491H34.7358V35.5104Z"/></svg>