<svg width="80" height="80" viewBox="0 0 80 80" xmlns="http://www.w3.org/2000/svg"><circle opacity="0.3" cx="40" cy="40" r="40" fill="#D0CCC7"/><path d="M26.9801 60H52.06C53.1533 60 54.0398 59.1046 54.0398 57.9999V26.6666H56.68C57.409 26.6666 58 26.0696 58 25.3333V23.3334C57.9976 21.4932 56.5214 20.0021 54.6999 20H26.9801C25.8864 20 25 20.8954 25 22.0001V57.9999C25 59.1046 25.8864 60 26.9801 60ZM54.6999 21.3333C55.7933 21.3333 56.68 22.2287 56.68 23.3334V25.3333H30.2799V23.3334C30.2775 22.6096 30.0397 21.907 29.6028 21.3333H54.6999ZM26.32 22.0001C26.32 21.6318 26.6155 21.3333 26.9801 21.3333C28.0735 21.3333 28.9599 22.2287 28.9599 23.3334V25.3333C28.9599 26.0696 29.5509 26.6666 30.2799 26.6666H52.7198V57.9999C52.7198 58.3682 52.4243 58.6667 52.06 58.6667H26.9801C26.6155 58.6667 26.32 58.3682 26.32 57.9999V22.0001Z M30.2799 36.6666H34.2398C34.9689 36.6666 35.5601 36.0696 35.5601 35.3333V34.6667C35.5601 34.2984 35.2643 33.9999 34.9 33.9999C34.5356 33.9999 34.2398 34.2984 34.2398 34.6667V35.3333H30.2799V31.3333H32.26C32.6244 31.3333 32.9199 31.0349 32.9199 30.6668C32.9199 30.2985 32.6244 30 32.26 30H30.2799C29.5509 30 28.9599 30.5969 28.9599 31.3333V35.3333C28.9599 36.0696 29.5509 36.6666 30.2799 36.6666Z M30.2799 46.0001H34.2398C34.9689 46.0001 35.5601 45.4031 35.5601 44.6667V40.6668C35.5601 39.9304 34.9689 39.3332 34.2398 39.3332H30.2799C29.5509 39.3332 28.9599 39.9304 28.9599 40.6668V44.6667C28.9599 45.4031 29.5509 46.0001 30.2799 46.0001ZM30.2799 40.6668H34.2398V44.6667H30.2799V40.6668Z M30.2799 55.3333H34.2398C34.9689 55.3333 35.5601 54.7363 35.5601 53.9999V50C35.5601 49.2636 34.9689 48.6667 34.2398 48.6667H30.2799C29.5509 48.6667 28.9599 49.2636 28.9599 50V53.9999C28.9599 54.7363 29.5509 55.3333 30.2799 55.3333ZM30.2799 50H34.2398V53.9999H30.2799V50Z M38.2001 32.6666H41.4998C41.8645 32.6666 42.16 32.3682 42.16 32.0001C42.16 31.6318 41.8645 31.3333 41.4998 31.3333H38.2001C37.8354 31.3333 37.5399 31.6318 37.5399 32.0001C37.5399 32.3682 37.8354 32.6666 38.2001 32.6666Z M44.1398 32.6666H50.74C51.1043 32.6666 51.3998 32.3682 51.3998 32.0001C51.3998 31.6318 51.1043 31.3333 50.74 31.3333H44.1398C43.7754 31.3333 43.48 31.6318 43.48 32.0001C43.48 32.3682 43.7754 32.6666 44.1398 32.6666Z M38.2001 35.3333H44.7999C45.1643 35.3333 45.4601 35.0348 45.4601 34.6667C45.4601 34.2984 45.1643 33.9999 44.7999 33.9999H38.2001C37.8354 33.9999 37.5399 34.2984 37.5399 34.6667C37.5399 35.0348 37.8354 35.3333 38.2001 35.3333Z M50.74 33.9999H47.4399C47.0755 33.9999 46.7801 34.2984 46.7801 34.6667C46.7801 35.0348 47.0755 35.3333 47.4399 35.3333H50.74C51.1043 35.3333 51.3998 35.0348 51.3998 34.6667C51.3998 34.2984 51.1043 33.9999 50.74 33.9999Z M38.2001 42.0001H41.4998C41.8645 42.0001 42.16 41.7017 42.16 41.3333C42.16 40.9653 41.8645 40.6668 41.4998 40.6668H38.2001C37.8354 40.6668 37.5399 40.9653 37.5399 41.3333C37.5399 41.7017 37.8354 42.0001 38.2001 42.0001Z M50.74 40.6668H44.1398C43.7754 40.6668 43.48 40.9653 43.48 41.3333C43.48 41.7017 43.7754 42.0001 44.1398 42.0001H50.74C51.1043 42.0001 51.3998 41.7017 51.3998 41.3333C51.3998 40.9653 51.1043 40.6668 50.74 40.6668Z M38.2001 44.6667H44.7999C45.1643 44.6667 45.4601 44.3683 45.4601 43.9999C45.4601 43.6319 45.1643 43.3334 44.7999 43.3334H38.2001C37.8354 43.3334 37.5399 43.6319 37.5399 43.9999C37.5399 44.3683 37.8354 44.6667 38.2001 44.6667Z M50.74 43.3334H47.4399C47.0755 43.3334 46.7801 43.6319 46.7801 43.9999C46.7801 44.3683 47.0755 44.6667 47.4399 44.6667H50.74C51.1043 44.6667 51.3998 44.3683 51.3998 43.9999C51.3998 43.6319 51.1043 43.3334 50.74 43.3334Z M38.2001 51.3333H41.4998C41.8645 51.3333 42.16 51.0349 42.16 50.6668C42.16 50.2985 41.8645 50 41.4998 50H38.2001C37.8354 50 37.5399 50.2985 37.5399 50.6668C37.5399 51.0349 37.8354 51.3333 38.2001 51.3333Z M50.74 50H44.1398C43.7754 50 43.48 50.2985 43.48 50.6668C43.48 51.0349 43.7754 51.3333 44.1398 51.3333H50.74C51.1043 51.3333 51.3998 51.0349 51.3998 50.6668C51.3998 50.2985 51.1043 50 50.74 50Z M38.2001 53.9999H44.7999C45.1643 53.9999 45.4601 53.7015 45.4601 53.3334C45.4601 52.9651 45.1643 52.6666 44.7999 52.6666H38.2001C37.8354 52.6666 37.5399 52.9651 37.5399 53.3334C37.5399 53.7015 37.8354 53.9999 38.2001 53.9999Z M50.74 52.6666H47.4399C47.0755 52.6666 46.7801 52.9651 46.7801 53.3334C46.7801 53.7015 47.0755 53.9999 47.4399 53.9999H50.74C51.1043 53.9999 51.3998 53.7015 51.3998 53.3334C51.3998 52.9651 51.1043 52.6666 50.74 52.6666Z M32.0667 32.1954C31.8077 31.9427 31.3959 31.9464 31.1413 32.2034C30.8869 32.4606 30.8832 32.8763 31.1334 33.1381L32.4534 34.4714C32.5772 34.5963 32.7449 34.6667 32.9199 34.6667H32.9748C33.1682 34.6503 33.3446 34.549 33.4573 34.3893L36.7571 29.7226C36.8943 29.5288 36.9185 29.2758 36.8206 29.0591C36.723 28.8422 36.5181 28.6945 36.2834 28.6716C36.0486 28.6487 35.8196 28.7543 35.6828 28.9481L32.8362 32.9739L32.0667 32.1954Z"/></svg>