<svg width="80" height="80" viewBox="0 0 80 80" xmlns="http://www.w3.org/2000/svg"><circle opacity="0.3" cx="40" cy="40" r="40" fill="#D0CCC7"/><path d="M28.2386 36.1291C27.8823 36.1291 27.5934 35.8392 27.5934 35.4839H26.3031C26.3031 36.3237 26.8443 37.0335 27.5934 37.3006V38.7097H28.8837V37.3006C29.6325 37.0335 30.1741 36.3237 30.1741 35.4839C30.1741 34.4169 29.3056 33.5484 28.2386 33.5484C27.8823 33.5484 27.5934 33.2586 27.5934 32.9032C27.5934 32.5479 27.8823 32.2581 28.2386 32.2581C28.5946 32.2581 28.8837 32.5479 28.8837 32.9032H30.1741C30.1741 32.0634 29.6325 31.3537 28.8837 31.0865V29.6774H27.5934V31.0865C26.8443 31.3537 26.3031 32.0634 26.3031 32.9032C26.3031 33.9702 27.1713 34.8387 28.2386 34.8387C28.5946 34.8387 28.8837 35.1285 28.8837 35.4839C28.8837 35.8392 28.5946 36.1291 28.2386 36.1291Z M52.755 20H35.9808C34.2019 20 32.755 21.4472 32.755 23.2258V28.7232C31.527 27.7076 29.9529 27.0968 28.2388 27.0968C24.3257 27.0968 21.1421 30.2807 21.1421 34.1935C21.1421 35.9079 21.7529 37.482 22.7685 38.7097H21L22.2374 44.8954C22.4173 45.7967 23.2155 46.4516 24.1354 46.4516H35.3356C35.6916 46.4516 35.9808 46.7414 35.9808 47.0968C35.9808 47.4521 35.6916 47.7419 35.3356 47.7419H23.7227C22.2995 47.7419 21.1421 48.8993 21.1421 50.3226C21.1421 51.7458 22.2995 52.9032 23.7227 52.9032C25.1457 52.9032 26.3034 51.7458 26.3034 50.3226C26.3034 49.8504 26.1663 49.4134 25.9446 49.0323H30.5335C30.3111 49.4134 30.1743 49.8504 30.1743 50.3226C30.1743 51.7458 31.3317 52.9032 32.755 52.9032V56.7742C32.755 58.5528 34.2019 60 35.9808 60H52.755C54.5336 60 55.9808 58.5528 55.9808 56.7742V23.2258C55.9808 21.4472 54.5336 20 52.755 20ZM35.9808 21.2903H52.755C53.822 21.2903 54.6905 22.1588 54.6905 23.2258V23.871H34.0453V23.2258C34.0453 22.1588 34.9135 21.2903 35.9808 21.2903ZM28.2388 28.3871C31.4407 28.3871 34.0453 30.9923 34.0453 34.1935C34.0453 37.3948 31.4407 40 28.2388 40C25.0367 40 22.4324 37.3948 22.4324 34.1935C22.4324 30.9923 25.0367 28.3871 28.2388 28.3871ZM23.5025 44.6425L22.5742 40H24.1716C25.3246 40.8102 26.7258 41.2903 28.2395 41.2903C29.7528 41.2903 31.1534 40.8102 32.307 40H35.6503L34.7903 45.1613H24.1354C23.8283 45.1613 23.5627 44.9433 23.5025 44.6425ZM25.013 50.3226C25.013 51.0342 24.4344 51.6129 23.7227 51.6129C23.0111 51.6129 22.4324 51.0342 22.4324 50.3226C22.4324 49.6109 23.0111 49.0323 23.7227 49.0323C24.4344 49.0323 25.013 49.6109 25.013 50.3226ZM31.4647 50.3226C31.4647 49.6109 32.0433 49.0323 32.755 49.0323C33.4666 49.0323 34.0453 49.6109 34.0453 50.3226C34.0453 51.0342 33.4666 51.6129 32.755 51.6129C32.0433 51.6129 31.4647 51.0342 31.4647 50.3226ZM35.3356 50.3226C35.3356 49.8504 35.1986 49.4134 34.9768 49.0323H35.3356C36.4026 49.0323 37.2711 48.1637 37.2711 47.0968C37.2711 46.2903 36.775 45.5995 36.0721 45.309L38.0328 33.5484H41.7872C42.8542 33.5484 43.7227 32.6799 43.7227 31.6129C43.7227 30.5459 42.8542 29.6774 41.7872 29.6774H37.3697L35.8645 38.7097H33.7092C34.7245 37.482 35.3356 35.9079 35.3356 34.1935C35.3356 32.6799 34.8555 31.2793 34.0453 30.1257V25.1613H54.6905V53.5484H34.0453V52.5444C34.813 52.0968 35.3356 51.2736 35.3356 50.3226ZM38.2477 32.2581L38.4625 30.9677H41.7872C42.1432 30.9677 42.4324 31.2576 42.4324 31.6129C42.4324 31.9682 42.1432 32.2581 41.7872 32.2581H38.2477ZM52.755 58.7097H35.9808C34.9135 58.7097 34.0453 57.8412 34.0453 56.7742V54.8387H54.6905V56.7742C54.6905 57.8412 53.822 58.7097 52.755 58.7097Z M42.4323 56.1291H46.3033V57.4194H42.4323V56.1291Z M53.4005 26.4516H35.3359V29.0458H36.6263V27.7419H52.1101V50.9677H36.6263V52.2581H53.4005V26.4516Z"/></svg>