<svg width="80" height="80" viewBox="0 0 80 80" xmlns="http://www.w3.org/2000/svg"><circle opacity="0.3" cx="40" cy="40" r="40" fill="#D0CCC7"/><path d="M37.767 29.3286C35.5983 29.3286 33.834 31.093 33.834 33.2618V36.038C33.834 38.2066 35.5984 39.971 37.767 39.971C39.9357 39.971 41.7001 38.2067 41.7001 36.038V33.2618C41.7001 31.093 39.9357 29.3286 37.767 29.3286ZM37.767 38.5829C36.4407 38.5829 35.3487 37.5628 35.2329 36.2664C35.9179 36.8451 36.8022 37.1949 37.767 37.1949C38.7319 37.1949 39.6162 36.8451 40.3013 36.2663C40.1854 37.5628 39.0935 38.5829 37.767 38.5829ZM37.767 35.8067C36.3637 35.8067 35.2222 34.665 35.2222 33.2618C35.2222 31.8584 36.3638 30.7167 37.767 30.7167C39.1703 30.7167 40.312 31.8584 40.312 33.2618C40.312 34.665 39.1703 35.8067 37.767 35.8067Z M37.7662 31.6423C37.3829 31.6423 37.0722 31.953 37.0722 32.3364V34.1872C37.0722 34.5705 37.3829 34.8813 37.7662 34.8813C38.1495 34.8813 38.4603 34.5706 38.4603 34.1872V32.3364C38.4603 31.9529 38.1495 31.6423 37.7662 31.6423Z M50.2602 21C46.8157 21 44.0136 23.8022 44.0136 27.2465V30.0209C44.0136 30.0215 44.0135 30.0221 44.0135 30.0227C44.0135 33.467 46.8157 36.2692 50.26 36.2692C53.7005 36.2692 56.5 33.473 56.5061 30.0339C56.5061 30.0302 56.5067 30.0266 56.5067 30.0229V27.2465C56.5067 23.8022 53.7045 21 50.2602 21ZM50.26 34.8812C48.0606 34.8812 46.199 33.4116 45.6025 31.4033C46.7473 32.6847 48.4108 33.4932 50.2602 33.4932C52.1092 33.4932 53.7725 32.685 54.9171 31.4039C54.3206 33.4119 52.4591 34.8812 50.26 34.8812ZM50.2602 32.1051C47.5812 32.1051 45.4017 29.9255 45.4017 27.2466C45.4017 24.5676 47.5813 22.3882 50.2602 22.3882C52.9391 22.3882 55.1185 24.5677 55.1185 27.2466C55.1185 29.9255 52.9391 32.1051 50.2602 32.1051Z M50.2594 24.7017C49.876 24.7017 49.5654 25.0122 49.5653 25.3955L49.5645 29.0976C49.5645 29.4808 49.8752 29.7917 50.2585 29.7918C50.6418 29.7918 50.9526 29.4811 50.9527 29.0979L50.9534 25.3958C50.9535 25.0125 50.6427 24.7018 50.2594 24.7017Z M62.969 44.4865C62.0166 42.8376 59.9041 42.2654 58.25 43.2041C57.9493 43.3523 54.1097 45.2393 50.9452 46.5709C50.5919 46.7196 50.4261 47.1266 50.5747 47.4799C50.7233 47.8332 51.1302 47.9989 51.4837 47.8504C54.8012 46.4543 58.8432 44.4595 58.8836 44.4395C58.8969 44.4329 58.9099 44.426 58.9227 44.4187C59.9172 43.8454 61.1931 44.187 61.7671 45.181C62.4318 46.3305 61.3939 47.5927 60.8859 48.1082C57.4401 50.8878 47.9048 58.0159 44.6998 58.0159C41.1473 58.0159 31.1785 55.904 28.7406 55.3758V44.0388C33.5744 43.3286 36.1353 44.2194 41.5017 46.0895C43.1343 46.6584 44.9838 47.3028 47.2318 48.0216C47.5669 48.1676 48.4966 48.6908 48.1422 49.8737C47.9269 50.5927 47.2325 51.2793 46.2157 51.089C44.8493 50.8325 36.8081 49.7418 36.4664 49.6956C36.0867 49.6438 35.7369 49.9103 35.6855 50.2902C35.634 50.6701 35.9002 51.0197 36.2801 51.0711C36.3634 51.0824 44.6277 52.2032 45.9598 52.4533C46.1665 52.4921 46.3672 52.5104 46.5612 52.5104C48.0347 52.5104 49.1184 51.4528 49.4722 50.2721C49.8444 49.0295 49.4576 47.4565 47.7574 46.7367C47.755 46.7356 47.7525 46.7345 47.75 46.7335C47.7478 46.7325 47.7458 46.7315 47.7436 46.7306C47.7342 46.7267 47.7247 46.7239 47.7153 46.7204C47.7057 46.7169 47.6965 46.7128 47.6866 46.7097C45.4411 45.9924 43.5911 45.3477 41.9587 44.7789C36.607 42.914 33.7866 41.9329 28.7407 42.6372V42.0569C28.7407 41.6735 28.4299 41.3629 28.0466 41.3629H25.965V40.6692C25.965 40.2858 25.6542 39.9751 25.2709 39.9751H16.6941C16.3108 39.9751 16 40.2858 16 40.6692V55.9336C16 56.317 16.3108 56.6277 16.6941 56.6277C17.0774 56.6277 17.3881 56.317 17.3881 55.9336V41.3631H24.5769V58.0159H23.1896V57.3222C23.1896 56.9388 22.8788 56.6282 22.4955 56.6282C22.1122 56.6282 21.8015 56.9388 21.8015 57.3222V58.0159H16.6941C16.3108 58.0159 16 58.3266 16 58.71C16 59.0934 16.3108 59.404 16.6941 59.404H25.2709C25.6542 59.404 25.965 59.0934 25.965 58.71V57.981H28.0465C28.4298 57.981 28.7406 57.6704 28.7406 57.287V56.7965C31.6445 57.424 41.0957 59.404 44.6998 59.404C46.5966 59.404 49.9599 57.714 54.9818 54.2378C58.6036 51.7307 61.7562 49.1895 61.7876 49.1642C61.8068 49.1486 61.8251 49.1321 61.8425 49.1147C63.3505 47.6049 63.7715 45.8746 62.969 44.4865ZM27.3524 55.923C27.3524 55.9236 27.3524 55.9243 27.3524 55.9248V56.5931H25.965V42.7509H27.3525L27.3524 55.923Z"/></svg>