<svg width="47" height="23" viewBox="0 0 47 23" xmlns="http://www.w3.org/2000/svg"><circle cx="11.5" cy="11.5" r="11.5" transform="rotate(-180 11.5 11.5)" /><path d="M12.6569 18.7017L6.29172 12.219C5.9028 11.8216 5.90276 11.1786 6.29158 10.7812L6.29289 10.7798L12.6569 4.2983C13.0474 3.90056 13.6805 3.90057 14.0711 4.2983C14.4616 4.69604 14.4616 5.3409 14.0711 5.73864L9.41421 10.4815L46 10.4815C46.5523 10.4815 47 10.9375 47 11.5C47 12.0625 46.5523 12.5185 46 12.5185L9.41421 12.5185L14.0711 17.2614C14.4616 17.6591 14.4616 18.304 14.0711 18.7017C14.0222 18.7514 13.9696 18.7949 13.9142 18.8322C13.6369 19.0186 13.2886 19.0497 12.9877 18.9254C12.8673 18.8757 12.7545 18.8011 12.6569 18.7017Z" fill="#8F2229"/></svg>