<svg width="24" height="24" viewBox="0 0 24 24" xmlns="http://www.w3.org/2000/svg"><path d="M19.9846 19.2883L18.8394 6.39264C18.8148 6.10634 18.5735 5.88957 18.2913 5.88957H15.9355C15.9028 3.73824 14.1441 2 11.9846 2C9.82505 2 8.06636 3.73824 8.03364 5.88957H5.67781C5.39151 5.88957 5.15429 6.10634 5.12975 6.39264L3.98456 19.2883C3.98456 19.3047 3.98047 19.3211 3.98047 19.3374C3.98047 20.8057 5.32607 22 6.98251 22H16.9866C18.643 22 19.9886 20.8057 19.9886 19.3374C19.9886 19.3211 19.9886 19.3047 19.9846 19.2883ZM11.9846 3.10429C13.5347 3.10429 14.7985 4.34765 14.8312 5.88957H9.13793C9.17065 4.34765 10.4345 3.10429 11.9846 3.10429ZM16.9866 20.8957H6.98251C5.94366 20.8957 5.10112 20.2086 5.08476 19.362L6.18088 6.99796H8.02955V8.67485C8.02955 8.9816 8.27495 9.22699 8.5817 9.22699C8.88844 9.22699 9.13384 8.9816 9.13384 8.67485V6.99796H14.8312V8.67485C14.8312 8.9816 15.0766 9.22699 15.3833 9.22699C15.6901 9.22699 15.9355 8.9816 15.9355 8.67485V6.99796H17.7841L18.8844 19.362C18.868 20.2086 18.0214 20.8957 16.9866 20.8957Z"/></svg>