<svg width="80" height="80" viewBox="0 0 80 80" fill="none" xmlns="http://www.w3.org/2000/svg">
<circle opacity="0.5" cx="40" cy="42" r="34" fill="#D0CCC7"/>
<path d="M63.4192 45.5072C63.4033 45.4712 63.3868 45.4358 63.3679 45.4016C63.2812 45.2191 63.194 45.0366 63.1049 44.856C61.687 41.9702 60.0293 39.3951 58.1934 37.1906C58.139 37.1063 58.075 37.0294 58.0017 36.9617C55.4358 33.9374 52.5287 31.6327 49.4385 30.213C49.2352 29.1864 49.1309 28.1403 49.1309 27.0941C49.1309 26.0382 49.2352 24.9799 49.4415 23.9478L50.1312 20.4834C50.2576 19.8486 49.845 19.2316 49.2102 19.1058C48.5754 18.9789 47.959 19.3915 47.8326 20.0262L47.1429 23.4894C46.9067 24.6716 46.7871 25.8844 46.7871 27.0941C46.7871 27.818 46.8304 28.5419 46.9159 29.2609C45.3021 28.7805 43.6511 28.5339 41.9989 28.5168C41.9897 28.5168 41.9806 28.5162 41.9714 28.5162C41.9196 28.5132 41.8689 28.512 41.8182 28.512C41.7676 28.512 41.7163 28.5132 41.6644 28.5162C41.6547 28.5162 41.6443 28.5168 41.6345 28.5175C39.9841 28.5345 38.3356 28.7805 36.7236 29.2603C36.9525 27.3419 36.8762 25.4083 36.4941 23.49L34.3793 12.8729C34.3719 12.8345 34.3909 12.7966 34.4257 12.7808L38.1299 11.1279C39.6344 10.4541 40.6982 9.02161 40.9045 7.38831L40.979 6.80542H42.6569L42.7307 7.38953C42.9401 9.02283 44.0033 10.4547 45.5066 11.1279L49.2096 12.7808C49.2438 12.796 49.2639 12.8339 49.2566 12.8711L48.7219 15.5579C48.5956 16.1932 49.0076 16.8103 49.6423 16.936C50.2771 17.0624 50.8942 16.6504 51.0205 16.0156L51.5552 13.3295C51.7786 12.2119 51.2073 11.106 50.1654 10.6409L46.4636 8.98804C45.7013 8.64685 45.1617 7.92053 45.0562 7.0929L44.881 5.71472C44.8499 5.47424 44.7595 5.25513 44.6271 5.06836V1.75781C44.6265 0.788574 43.8385 0 42.8693 0H40.7666C39.7974 0 39.0094 0.788574 39.0094 1.75781V5.06714C38.8763 5.25452 38.7854 5.47424 38.7549 5.71472L38.5791 7.09351C38.4747 7.92053 37.9352 8.64685 37.1729 8.98804L33.4692 10.6409C32.431 11.1053 31.8597 12.2095 32.0801 13.3282L34.1949 23.9478C34.6106 26.0327 34.6112 28.1366 34.1998 30.2118C31.109 31.6309 28.2019 33.9355 25.6366 36.9592C25.5615 37.0282 25.495 37.1069 25.4401 37.193C23.6053 39.397 21.9495 41.9702 20.5316 44.8535C16.9128 52.2162 15 61.0425 15 70.3772C15 71.0248 15.5249 71.5491 16.1719 71.5491H40.6458V73.197H38.9081C35.882 73.197 33.421 75.6586 33.421 78.6841V78.8281C33.421 79.4757 33.9453 80 34.5929 80H49.043C49.6906 80 50.2148 79.4757 50.2148 78.8281V78.6841C50.2148 75.6586 47.7533 73.197 44.7278 73.197H42.9895V71.5491H67.4652C68.1122 71.5491 68.6371 71.0248 68.6371 70.3772C68.6371 61.3177 66.8341 52.7368 63.4192 45.5072ZM41.3531 2.34375H42.2827V4.46167H41.3531V2.34375ZM47.699 77.6562H35.9369C36.3641 76.4264 37.5348 75.5408 38.9081 75.5408H41.8054C41.8097 75.5408 41.8134 75.5414 41.8176 75.5414C41.8219 75.5414 41.8256 75.5408 41.8298 75.5408H44.7278C46.1017 75.5408 47.2717 76.4264 47.699 77.6562ZM56.3257 69.2053H48.9319C48.924 67.2467 48.8959 65.3113 48.8483 63.41H56.1017C56.2286 65.3101 56.3043 67.2455 56.3257 69.2053ZM27.5342 63.41H28.3832C29.0308 63.41 29.5551 62.8857 29.5551 62.2382C29.5551 61.5912 29.0308 61.0663 28.3832 61.0663H27.7197C27.8998 59.0851 28.1366 57.1484 28.429 55.2722H35.1215C35.0122 57.1515 34.9237 59.0869 34.8572 61.0663H32.7972C32.1503 61.0663 31.6254 61.5912 31.6254 62.2382C31.6254 62.8857 32.1503 63.41 32.7972 63.41H34.7876C34.7406 65.3113 34.7125 67.2467 34.7046 69.2053H27.3108C27.3322 67.2455 27.4072 65.3101 27.5342 63.41ZM19.198 55.2722H26.0602C25.7745 57.1527 25.5426 59.0881 25.3674 61.0663H18.0255C18.3215 59.0863 18.7128 57.1509 19.198 55.2722ZM22.0471 47.1338H27.7271C27.2388 48.9807 26.8115 50.918 26.449 52.9285H19.8602C20.4797 50.9174 21.2085 48.9801 22.0471 47.1338ZM26.991 38.9935H30.5432C30.2301 39.6906 29.9261 40.4199 29.6332 41.181C29.1901 42.3303 28.7769 43.5364 28.3936 44.79H23.1964C24.3329 42.6422 25.6079 40.6995 26.991 38.9935ZM46.5881 69.2053H37.0477C37.0557 67.2485 37.085 65.3131 37.1326 63.41H46.5033C46.5515 65.3131 46.5802 67.2485 46.5881 69.2053ZM37.2021 61.0663C37.2705 59.0875 37.3602 57.1515 37.4701 55.2722H46.1658C46.2756 57.1515 46.3654 59.0875 46.4337 61.0663H37.2021ZM37.6208 52.9285C37.7612 50.9131 37.9266 48.9746 38.1158 47.1338H45.52C45.7092 48.9746 45.8746 50.9131 46.015 52.9285H37.6208ZM33.1311 38.9935H36.8427C36.7114 39.7516 36.582 40.5634 36.4551 41.4331C36.2982 42.5043 36.1517 43.6261 36.015 44.79H30.8484C31.1536 43.8354 31.4777 42.912 31.8201 42.0239C32.2369 40.9418 32.6752 39.931 33.1311 38.9935ZM51.8158 42.0239C52.1582 42.912 52.4823 43.8354 52.7881 44.79H47.6208C47.4841 43.6261 47.3376 42.5043 47.1814 41.4331C47.0538 40.5634 46.9244 39.7516 46.7932 38.9935H50.5048C50.9607 39.931 51.3989 40.9418 51.8158 42.0239ZM39.223 38.9935H44.4128C44.6082 40.0818 44.8035 41.3135 44.9945 42.7094C45.0873 43.3844 45.1758 44.0784 45.2606 44.79H38.3752C38.4601 44.0784 38.5492 43.3844 38.6414 42.7094C38.8324 41.3135 39.0277 40.0818 39.223 38.9935ZM39.6893 36.6498C40.6598 32.265 41.546 31.156 41.8182 30.9064C42.0905 31.156 42.9761 32.265 43.9471 36.6498H39.6893ZM46.347 36.6498C45.9174 34.6082 45.473 33.0676 45.025 31.9092C46.4935 32.8711 47.9187 34.4757 49.2352 36.6498H46.347ZM37.2894 36.6498H34.4006C35.7172 34.4757 37.1423 32.8711 38.6108 31.9092C38.1628 33.0676 37.7185 34.6082 37.2894 36.6498ZM35.7593 47.1338C35.5725 48.9789 35.4083 50.9155 35.2698 52.9285H28.83C29.2047 50.9106 29.646 48.9728 30.152 47.1338H35.7593ZM47.8766 47.1338H53.4845C53.9899 48.9728 54.4312 50.9106 54.8065 52.9285H48.3661C48.2275 50.9155 48.0634 48.9789 47.8766 47.1338ZM55.9094 47.1338H61.5894C62.4274 48.9801 63.1567 50.9174 63.7756 52.9285H57.1869C56.8243 50.918 56.3971 48.9813 55.9094 47.1338ZM55.2423 44.79C54.859 43.5364 54.4458 42.3303 54.0027 41.181C53.7097 40.4193 53.4058 39.6906 53.0927 38.9935H56.6449C58.028 40.6995 59.303 42.6416 60.4395 44.79H55.2423ZM51.9348 36.6498C51.1371 35.1776 50.2899 33.894 49.4006 32.8088C51.1938 33.7616 52.915 35.0568 54.527 36.6498H51.9348ZM31.701 36.6498H29.1089C30.7214 35.0568 32.4426 33.761 34.2358 32.8076C33.3466 33.8934 32.4988 35.177 31.701 36.6498ZM48.7793 61.0663C48.7122 59.0869 48.6237 57.1515 48.5144 55.2722H55.2069C55.4999 57.1484 55.7367 59.0851 55.9167 61.0663H48.7793ZM57.5757 55.2722H64.4385C64.9237 57.1509 65.3149 59.0863 65.6116 61.0663H58.269C58.0933 59.0881 57.8613 57.1527 57.5757 55.2722ZM17.7216 63.41H25.1862C25.0616 65.3119 24.9884 67.2473 24.967 69.2053H17.3541C17.3889 67.2437 17.5134 65.3094 17.7216 63.41ZM58.6688 69.2053C58.6481 67.2473 58.5742 65.3119 58.4497 63.41H65.9149C66.1237 65.3094 66.2476 67.2437 66.283 69.2053H58.6688Z" fill="#8F2229"/>
</svg>
