<svg width="80" height="80" viewBox="0 0 80 80" fill="none" xmlns="http://www.w3.org/2000/svg">
<ellipse opacity="0.5" cx="41.559" cy="40" rx="33.643" ry="34" fill="#D0CCC7"/>
<path d="M42.6351 54.054L25.6716 36.9092C25.1491 36.3988 24.3174 36.4061 23.8033 36.9256C23.2892 37.4452 23.282 38.285 23.787 38.8138L40.7505 55.9586C41.2737 56.469 42.1047 56.4617 42.6189 55.9422C43.133 55.4226 43.1401 54.5828 42.6351 54.054Z" fill="#8F2229"/>
<path d="M20.0223 42.6256C19.6872 42.2751 19.1919 42.135 18.726 42.258C18.26 42.3816 17.8963 42.7493 17.7739 43.2202C17.6522 43.6911 17.7908 44.1915 18.1377 44.5302L35.0973 61.6718C35.4318 62.0223 35.927 62.1624 36.393 62.0394C36.8589 61.9158 37.2233 61.5481 37.345 61.0772C37.4667 60.6063 37.3281 60.1059 36.9812 59.7678L20.0223 42.6256Z" fill="#8F2229"/>
<path d="M78.7265 51.5733C77.9957 51.4859 77.3332 52.014 77.2473 52.7532C76.3707 60.1336 69.7615 65.4134 62.4534 64.5709C58.1493 64.0651 54.3625 61.4621 52.3165 57.6015L70.0876 39.6432C70.8711 38.8514 71.2947 37.7662 71.2563 36.6468L70.8216 23.9064C76.4501 22.5319 80.3039 17.2903 79.9811 11.4475C79.659 5.60478 75.252 0.828779 69.5071 0.0961341C63.7621 -0.636511 58.3198 2.88269 56.5705 8.46105L42.8979 7.98555C41.7884 7.93952 40.7114 8.36766 39.9311 9.16541L1.16894 48.3389C-0.389646 49.9186 -0.389646 52.4743 1.16894 54.0541L25.6715 78.8167C27.2327 80.3944 29.7642 80.3944 31.3254 78.8167L50.3531 59.5871C53.8965 65.4844 60.7549 68.4557 67.4246 66.9852C74.0943 65.514 79.1033 59.9251 79.894 53.0722C79.9363 52.717 79.8373 52.3593 79.618 52.0778C79.3987 51.7963 79.0779 51.6148 78.7265 51.5733ZM68.0019 2.69788C72.6145 2.70774 76.5269 6.12303 77.2089 10.7333C77.8902 15.3436 75.1356 19.7651 70.7273 21.137L70.439 12.7096C70.3622 10.5893 68.68 8.88919 66.5826 8.81027L59.3708 8.5597C60.8064 5.01814 64.2151 2.70314 68.0019 2.69788ZM29.4408 76.9127C28.9202 77.4382 28.0768 77.4382 27.5562 76.9127L3.05485 52.1495C2.80431 51.8969 2.66374 51.5543 2.66374 51.1965C2.66374 50.8394 2.80431 50.4961 3.05485 50.2435L41.817 11.07C42.0793 10.8076 42.4366 10.6656 42.8055 10.6767L56.0558 11.1378C56.0291 11.4646 56.007 11.7922 56.007 12.1262C56.0076 13.2463 56.1625 14.361 56.4664 15.4383C56.2406 15.5935 56.0271 15.7671 55.8293 15.9578C53.7469 18.0617 53.7469 21.4737 55.8287 23.5776C57.9105 25.6822 61.2866 25.6822 63.3684 23.5776C65.4502 21.4737 65.4502 18.0617 63.3678 15.9578C62.2048 14.8266 60.5994 14.286 58.9972 14.486C58.7909 13.7165 58.6816 12.9233 58.6725 12.1262C58.6725 11.8244 58.6894 11.5251 58.7174 11.2305L66.4901 11.4995C67.1904 11.5238 67.7526 12.092 67.7767 12.7997L68.5934 36.7383C68.6058 37.1118 68.4646 37.4735 68.2029 37.7373L29.4408 76.9127ZM57.5486 18.0657C57.8434 18.5971 58.1766 19.1048 58.5456 19.5855C58.8332 19.9802 59.3102 20.1867 59.7918 20.1229C60.2727 20.0597 60.6821 19.7368 60.8597 19.2804C61.0374 18.8246 60.9554 18.3064 60.6463 17.9289C60.4491 17.6724 60.2942 17.3896 60.125 17.1206C61.0881 17.3166 61.8665 18.0321 62.1502 18.9825C62.4346 19.9328 62.1782 20.964 61.4832 21.6664C60.4289 22.6845 58.7682 22.6845 57.7139 21.6664C56.7397 20.6904 56.6675 19.1232 57.5486 18.0604V18.0657Z" fill="#8F2229"/>
</svg>
