<svg width="40" height="40" viewBox="0 0 40 40" xmlns="http://www.w3.org/2000/svg"><path d="M20 40C31.0457 40 40 31.0457 40 20C40 8.9543 31.0457 0 20 0C8.9543 0 0 8.9543 0 20C0 31.0457 8.9543 40 20 40Z"/><path d="M25.918 11.3622L33.6459 19.2328C34.118 19.7152 34.118 20.4959 33.646 20.9784L33.6444 20.9801L25.918 28.8492C25.4438 29.3321 24.6752 29.3321 24.2009 28.8492C23.7268 28.3664 23.7268 27.5834 24.2009 27.1006L29.8549 21.3423H7.48462C6.81409 21.3423 6 21.0163 6 20.3333C6 19.6504 6.37708 18.8691 7.0476 18.8691H29.8549L24.2009 13.1109C23.7268 12.628 23.7268 11.8451 24.2009 11.3622C24.2603 11.3018 24.3242 11.249 24.3914 11.2037C24.7281 10.9774 25.151 10.9396 25.5163 11.0905C25.6625 11.1509 25.7994 11.2414 25.918 11.3622Z" fill="#8F2229"/></svg>