<svg width="17" height="19" viewBox="0 0 17 19" xmlns="http://www.w3.org/2000/svg"><circle cx="9" cy="10" r="7" fill="#D0CCC7"/><path d="M3.50601 3.8269C6.28626 1.24965 10.447 1.21025 13.2657 3.56287L11.0315 3.64957C10.7431 3.66139 10.5201 3.90571 10.5316 4.20127C10.5431 4.48894 10.7739 4.71357 11.0507 4.71357C11.0584 4.71357 11.0623 4.71357 11.07 4.71357L14.5001 4.58352C14.7808 4.5717 15 4.3392 15 4.05152V4.01211C15 4.00423 15 4.00029 15 3.99241V3.98847L14.8731 0.512735C14.8616 0.21718 14.6193 -0.0113836 14.3347 0.000438679C14.0463 0.0122609 13.8233 0.256587 13.8348 0.552143L13.9156 2.73137C12.5197 1.56097 10.8008 0.883165 8.96268 0.788587C6.68618 0.670365 4.49813 1.47034 2.80999 3.03875C0.487352 5.19434 -0.497078 8.47304 0.241244 11.5941C0.298926 11.8384 0.510424 12 0.744995 12C0.787295 12 0.825749 11.9961 0.868049 11.9842C1.14492 11.9133 1.31796 11.6256 1.24875 11.3419C0.602715 8.59914 1.46409 5.71846 3.50601 3.8269Z M16.7596 7.40579C16.6906 7.12205 16.4109 6.94471 16.135 7.01564C15.8591 7.08658 15.6866 7.37427 15.7556 7.65801C16.4032 10.4009 15.541 13.2817 13.5062 15.1734C12.0768 16.5015 10.2834 17.1556 8.49766 17.1556C6.79239 17.1556 5.09095 16.5606 3.71907 15.3862L5.97232 15.1773C6.2559 15.1497 6.46666 14.8936 6.43984 14.598C6.41301 14.3024 6.16393 14.0896 5.87652 14.1172L2.46981 14.4325C2.18624 14.4601 1.97548 14.7162 2.0023 15.0118L2.30887 18.5153C2.33186 18.7911 2.55795 19 2.82236 19C2.83769 19 2.85302 19 2.86835 18.9961C3.15192 18.9685 3.36269 18.7123 3.33586 18.4167L3.15192 16.2847C4.54296 17.4433 6.24823 18.1172 8.06847 18.2118C8.21408 18.2197 8.3597 18.2236 8.50149 18.2236C10.613 18.2236 12.621 17.4276 14.1998 15.9615C16.5143 13.8059 17.4954 10.5309 16.7596 7.40579Z"/></svg>