<svg width="12" height="12" viewBox="0 0 12 12" xmlns="http://www.w3.org/2000/svg"><path d="M11.6255 1.72697H8.81831V1.3199C8.81831 0.592105 8.15257 0 7.33426 0H4.66574C3.84743 0 3.18169 0.592105 3.18169 1.3199V1.72697H0.37448C0.166436 1.72697 0 1.875 0 2.06003C0 2.24507 0.166436 2.39309 0.37448 2.39309H1.05132V10.2188C1.05132 11.2007 1.95007 12 3.05409 12H8.94591C10.0499 12 10.9487 11.2007 10.9487 10.2188V2.39309H11.6255C11.8336 2.39309 12 2.24507 12 2.06003C12 1.875 11.8336 1.72697 11.6255 1.72697ZM3.93065 1.3199C3.93065 0.959704 4.26075 0.666118 4.66574 0.666118H7.33426C7.73925 0.666118 8.06935 0.959704 8.06935 1.3199V1.72697H3.93065V1.3199ZM10.1997 10.2188C10.1997 10.8331 9.63661 11.3339 8.94591 11.3339H3.05409C2.36338 11.3339 1.80028 10.8331 1.80028 10.2188V2.39309H10.2025V10.2188H10.1997Z M5.99973 10.1398C6.20777 10.1398 6.37421 9.99178 6.37421 9.80675V3.92023C6.37421 3.7352 6.20777 3.58717 5.99973 3.58717C5.79169 3.58717 5.62525 3.7352 5.62525 3.92023V9.80428C5.62525 9.98931 5.79169 10.1398 5.99973 10.1398Z M3.55622 9.7722C3.76427 9.7722 3.9307 9.62418 3.9307 9.43914V4.28536C3.9307 4.10032 3.76427 3.9523 3.55622 3.9523C3.34818 3.9523 3.18174 4.10032 3.18174 4.28536V9.43914C3.18174 9.62418 3.35095 9.7722 3.55622 9.7722Z M8.44398 9.7722C8.65202 9.7722 8.81846 9.62418 8.81846 9.43914V4.28536C8.81846 4.10032 8.65202 3.9523 8.44398 3.9523C8.23593 3.9523 8.0695 4.10032 8.0695 4.28536V9.43914C8.0695 9.62418 8.23593 9.7722 8.44398 9.7722Z"/></svg>