<svg width="13" height="12" viewBox="0 0 13 12" xmlns="http://www.w3.org/2000/svg"><path d="M11.2241 0.776733C10.1909 -0.258911 8.51093 -0.258911 7.47787 0.776733L0.609383 7.64267C0.555683 7.69633 0.52244 7.7654 0.512211 7.83953L0.0033419 11.6087C-0.0120009 11.7161 0.0263561 11.8235 0.100513 11.8977C0.164441 11.9617 0.253941 12 0.343441 12C0.358783 12 0.374127 12 0.389469 11.9975L2.66021 11.6906C2.84943 11.665 2.9824 11.4911 2.95683 11.3019C2.93126 11.1127 2.75737 10.9797 2.56815 11.0053L0.747467 11.2507L1.10291 8.622L3.86973 11.3889C3.93366 11.4528 4.02316 11.4911 4.11266 11.4911C4.20215 11.4911 4.29165 11.4553 4.35559 11.3889L11.2241 4.52293C11.7253 4.02173 12.0014 3.35688 12.0014 2.64855C12.0014 1.94023 11.7253 1.27537 11.2241 0.776733ZM7.6108 1.62059L8.76407 2.77385L2.49655 9.0414L1.34328 7.88813L7.6108 1.62059ZM4.11521 10.6575L2.98752 9.5298L9.25507 3.26227L10.3827 4.38996L4.11521 10.6575ZM10.8635 3.89643L8.10433 1.13729C8.45467 0.848326 8.89193 0.689786 9.3522 0.689786C9.87647 0.689786 10.3674 0.894359 10.7382 1.26259C11.109 1.63081 11.311 2.12434 11.311 2.64855C11.311 3.11139 11.1525 3.54611 10.8635 3.89643Z"/></svg>