<svg width="20" height="20" viewBox="0 0 20 20" xmlns="http://www.w3.org/2000/svg"><path d="M19.8227 18.98L14.9623 14.1197C16.2661 12.6208 17.0555 10.6652 17.0555 8.52772C17.0555 3.82262 13.2284 0 8.52773 0C3.82262 0 0 3.82705 0 8.52772C0 13.2284 3.82706 17.0554 8.52773 17.0554C10.6652 17.0554 12.6209 16.2661 14.1198 14.9623L18.9801 19.8226C19.0954 19.9379 19.2506 20 19.4014 20C19.5521 20 19.7074 19.9424 19.8227 19.8226C20.0533 19.592 20.0533 19.2106 19.8227 18.98ZM1.19291 8.52772C1.19291 4.48337 4.48338 1.19734 8.5233 1.19734C12.5677 1.19734 15.8537 4.48781 15.8537 8.52772C15.8537 12.5676 12.5677 15.8625 8.5233 15.8625C4.48338 15.8625 1.19291 12.5721 1.19291 8.52772Z"/></svg>