<svg width="80" height="80" viewBox="0 0 80 80" fill="none" xmlns="http://www.w3.org/2000/svg">
<circle opacity="0.5" cx="40" cy="40" r="34" fill="#D0CCC7"/>
<path d="M77.3114 59.1522H73.6297V55.4291H75.7945C77.277 55.4291 78.4831 54.223 78.4831 52.7405V49.707C78.4831 48.2245 77.277 47.0184 75.7945 47.0184H73.6297V42.0819H75.7945C77.277 42.0819 78.4831 40.8758 78.4831 39.3933V26.9563C78.4831 25.4738 77.277 24.2677 75.7945 24.2677H73.5348C72.9733 20.8313 69.9834 18.2008 66.3908 18.2008H66.0459V15.7078C66.9444 15.2592 67.5627 14.3305 67.5627 13.2598V7.28453C67.5627 6.21391 66.9442 5.28516 66.0459 4.83656V1.93031C66.0461 0.865938 65.1803 0 64.1159 0H59.5658C58.5014 0 57.6355 0.865938 57.6355 1.93031V4.83672C56.737 5.28531 56.1188 6.21406 56.1188 7.28469V13.26C56.1188 14.3306 56.7372 15.2594 57.6355 15.708V18.2008H52.3956V7.99719C52.3956 6.09656 50.8494 4.55016 48.9486 4.55016C47.0478 4.55016 45.5016 6.09641 45.5016 7.99719V18.2008H22.0609V16.0359C22.0609 14.5534 20.8548 13.3473 19.3723 13.3473H16.3391C14.8566 13.3473 13.6505 14.5534 13.6505 16.0359V18.2008H13.3056C9.31422 18.2008 6.06687 21.4481 6.06687 25.4395V42.1234C6.06687 44.4422 7.95344 46.3288 10.2722 46.3288H13.6505V48.4936C13.6505 49.9761 14.8566 51.1822 16.3391 51.1822H16.6839V53.0853H16.3391C15.6919 53.0853 15.1672 53.61 15.1672 54.2572C15.1672 54.9044 15.6919 55.4291 16.3391 55.4291H16.6839V57.0294H5.18234C4.27938 57.0294 3.43547 57.4741 2.92516 58.2186C2.72734 58.507 2.58938 58.8258 2.51359 59.1578C1.11219 59.2483 0 60.417 0 61.8408V72.382C0 73.8645 1.20609 75.0706 2.68859 75.0706H10.617V77.3114C10.617 78.7939 11.8231 80 13.3056 80H21.1927C22.6752 80 23.8812 78.7939 23.8812 77.3114V75.0706H56.1188V77.3114C56.1188 78.7939 57.3248 80 58.8073 80H66.6944C68.1769 80 69.383 78.7939 69.383 77.3114V75.0706H77.3114C78.7939 75.0706 80 73.8645 80 72.382V61.8408C80 60.3583 78.7939 59.1522 77.3114 59.1522ZM73.6297 26.6114H75.7945C75.9847 26.6114 76.1394 26.7661 76.1394 26.9563V39.3934C76.1394 39.5836 75.9847 39.7383 75.7945 39.7383H73.6297V26.6114ZM73.6297 49.3622H75.7945C75.9847 49.3622 76.1394 49.5169 76.1394 49.707V52.7405C76.1394 52.9306 75.9847 53.0853 75.7945 53.0853H73.6297V49.3622ZM59.9792 2.34375H63.7023V4.55016H59.9792V2.34375ZM58.4625 11.4441H61.8408C62.488 11.4441 63.0127 10.9194 63.0127 10.2722C63.0127 9.625 62.488 9.10031 61.8408 9.10031H58.4625V7.28453C58.4625 7.06922 58.6378 6.89391 58.8531 6.89391H64.8284C65.0438 6.89391 65.2191 7.06922 65.2191 7.28453V13.2598C65.2191 13.4752 65.0438 13.6505 64.8284 13.6505H58.8531C58.6378 13.6505 58.4625 13.4752 58.4625 13.2598V11.4441ZM63.7023 15.9942V18.2006H59.9792V15.9942H63.7023ZM48.9487 6.89391C49.5572 6.89391 50.052 7.38875 50.052 7.99719V18.2008H47.8456V7.99719C47.8456 7.38891 48.3403 6.89391 48.9487 6.89391ZM15.9942 16.0358C15.9942 15.8456 16.1489 15.6909 16.3391 15.6909H19.3725C19.5627 15.6909 19.7173 15.8456 19.7173 16.0358V18.2006H15.9942V16.0358ZM20.4758 30.748C20.4758 32.1927 19.3005 33.368 17.8558 33.368C16.4111 33.368 15.2358 32.1927 15.2358 30.748C15.2358 29.3033 16.4111 28.128 17.8558 28.128C19.3005 28.128 20.4758 29.3034 20.4758 30.748ZM10.2722 43.9852C9.24578 43.985 8.41062 43.1498 8.41062 42.1234V25.4395C8.41062 22.7405 10.6066 20.5445 13.3056 20.5445H16.6839V25.9241C14.5106 26.4522 12.892 28.4147 12.892 30.7481C12.892 33.0816 14.5106 35.0441 16.6839 35.5722V40.6069C16.6839 41.2541 17.2086 41.7788 17.8558 41.7788C18.503 41.7788 19.0277 41.2541 19.0277 40.6069V35.5722C21.2009 35.0441 22.8195 33.0816 22.8195 30.7481C22.8195 28.4147 21.2009 26.4522 19.0277 25.9241V20.5445H66.3909C69.09 20.5445 71.2859 22.7405 71.2859 25.4395V59.0764H42.9919V42.1234C42.9919 39.8047 41.1053 37.9181 38.7866 37.9181H26.1063C24.1086 37.9181 22.3744 39.3398 21.9825 41.2988L21.7445 42.4886C21.5711 43.3558 20.8034 43.9852 19.9191 43.9852H10.2722ZM16.3391 48.8384C16.1489 48.8384 15.9942 48.6838 15.9942 48.4936V46.3288H19.7173V48.4936C19.7173 48.6838 19.5627 48.8384 19.3725 48.8384H16.3391ZM21.5375 77.3114C21.5375 77.5016 21.3828 77.6562 21.1927 77.6562H13.3056C13.1155 77.6562 12.9608 77.5016 12.9608 77.3114V75.0706H21.5375V77.3114ZM67.0392 77.3114C67.0392 77.5016 66.8845 77.6562 66.6944 77.6562H58.8073C58.6172 77.6562 58.4625 77.5016 58.4625 77.3114V75.0706H67.0392V77.3114ZM77.6562 65.2191H58.6556C58.0084 65.2191 57.4837 65.7438 57.4837 66.3909C57.4837 67.0381 58.0084 67.5628 58.6556 67.5628H77.6562V72.382C77.6562 72.5722 77.5016 72.7269 77.3114 72.7269H2.68859C2.49844 72.7269 2.34375 72.5722 2.34375 72.382V61.8408C2.34375 61.6506 2.49844 61.4959 2.68859 61.4959H3.06078C3.32188 61.8161 3.65531 62.0766 4.04109 62.2536L16.7145 68.0673C17.4398 68.4002 18.2717 68.4 18.9969 68.0673L31.6703 62.2536C32.4058 61.9163 32.9512 61.2756 33.167 60.4958C33.3827 59.7159 33.2441 58.8859 32.7866 58.2186C32.2761 57.4739 31.4322 57.0294 30.5294 57.0294H22.2163C21.5691 57.0294 21.0444 57.5541 21.0444 58.2013C21.0444 58.8484 21.5691 59.3731 22.2163 59.3731H30.5294C30.6591 59.3731 30.7803 59.437 30.8536 59.5439C30.9436 59.675 30.9264 59.805 30.9083 59.8709C30.89 59.9367 30.838 60.0569 30.6933 60.1233L18.0197 65.937C17.9156 65.9848 17.7964 65.9848 17.692 65.937L5.01844 60.1233C4.87391 60.057 4.82188 59.9367 4.80359 59.8709C4.78531 59.8052 4.76828 59.6752 4.85828 59.5439C4.93156 59.437 5.05266 59.3733 5.18234 59.3733H16.6841V60.3242C16.6841 60.9714 17.2087 61.4961 17.8559 61.4961C18.5031 61.4961 19.0278 60.9714 19.0278 60.3242V51.1823H19.3727C20.8552 51.1823 22.0613 49.9762 22.0613 48.4937V45.7391C23.06 45.1455 23.8031 44.1473 24.043 42.9481L24.2809 41.7583C24.4544 40.8912 25.222 40.2619 26.1064 40.2619H38.7867C39.8131 40.2619 40.6483 41.097 40.6483 42.1234V59.1522H35.728C35.0808 59.1522 34.5561 59.6769 34.5561 60.3241C34.5561 60.9713 35.0808 61.4959 35.728 61.4959H77.3114C77.5016 61.4959 77.6562 61.6506 77.6562 61.8408V65.2191Z" fill="#8F2229"/>
<path d="M57.2906 53.9123C62.1184 53.9123 66.0461 49.9846 66.0461 45.1568C66.0461 40.329 62.1184 36.4014 57.2906 36.4014C52.4628 36.4014 48.5352 40.329 48.5352 45.1568C48.5352 49.9846 52.4628 53.9123 57.2906 53.9123ZM57.2906 38.7451C60.8261 38.7451 63.7023 41.6214 63.7023 45.1568C63.7023 48.6923 60.8261 51.5686 57.2906 51.5686C53.7552 51.5686 50.8789 48.6923 50.8789 45.1568C50.8789 41.6214 53.7552 38.7451 57.2906 38.7451Z" fill="#8F2229"/>
<path d="M52.7861 31.1615H63.3116C64.8193 31.1615 66.046 29.9348 66.046 28.4271V27.002C66.046 25.4943 64.8193 24.2676 63.3116 24.2676H52.7861C51.2785 24.2676 50.0518 25.4943 50.0518 27.002V28.4271C50.0518 29.9348 51.2785 31.1615 52.7861 31.1615ZM52.3955 27.002C52.3955 26.7866 52.5708 26.6113 52.7861 26.6113H63.3116C63.5269 26.6113 63.7022 26.7866 63.7022 27.002V28.4271C63.7022 28.6424 63.5269 28.8177 63.3116 28.8177H52.7861C52.5708 28.8177 52.3955 28.6424 52.3955 28.4271V27.002Z" fill="#8F2229"/>
<path d="M57.2908 49.3623C59.6095 49.3623 61.4961 47.4757 61.4961 45.157C61.4961 42.8382 59.6095 40.9517 57.2908 40.9517C54.972 40.9517 53.0854 42.8382 53.0854 45.157C53.0854 47.4757 54.972 49.3623 57.2908 49.3623ZM57.2908 43.2954C58.3172 43.2954 59.1523 44.1306 59.1523 45.157C59.1523 46.1834 58.3172 47.0185 57.2908 47.0185C56.2644 47.0185 55.4292 46.1834 55.4292 45.157C55.4292 44.1306 56.2644 43.2954 57.2908 43.2954Z" fill="#8F2229"/>
<path d="M54.3332 65.219H29.9897C29.3426 65.219 28.8179 65.7437 28.8179 66.3909C28.8179 67.0381 29.3426 67.5627 29.9897 67.5627H54.333C54.9802 67.5627 55.5049 67.0381 55.5049 66.3909C55.5049 65.7437 54.9804 65.219 54.3332 65.219Z" fill="#8F2229"/>
</svg>
