<svg width="40" height="40" viewBox="0 0 40 40" xmlns="http://www.w3.org/2000/svg"><path d="M20 0C8.95431 0 0 8.95431 0 20C0 31.0457 8.95431 40 20 40C31.0457 40 40 31.0457 40 20C40 8.95431 31.0457 0 20 0Z" /><path d="M14.082 28.6378L6.35414 20.7672C5.88197 20.2848 5.88198 19.5041 6.35402 19.0216L6.35559 19.0199L14.082 11.1508C14.5562 10.6679 15.3248 10.6679 15.7991 11.1508C16.2732 11.6336 16.2732 12.4166 15.7991 12.8994L10.1451 18.6577L32.5154 18.6577C33.1859 18.6577 34 18.9837 34 19.6667C34 20.3496 33.6229 21.1309 32.9524 21.1309L10.1451 21.1309L15.7991 26.8891C16.2732 27.372 16.2732 28.1549 15.7991 28.6378C15.7397 28.6982 15.6758 28.751 15.6086 28.7963C15.2719 29.0226 14.849 29.0604 14.4837 28.9095C14.3375 28.8491 14.2006 28.7586 14.082 28.6378Z" fill="#8F2229"/></svg>