<svg width="80" height="80" viewBox="0 0 80 80" fill="none" xmlns="http://www.w3.org/2000/svg">
<circle opacity="0.5" cx="35" cy="40" r="34" fill="#D0CCC7"/>
<path d="M61.3011 35.3236C61.3011 32.7909 59.2408 30.7308 56.7082 30.7308H48.2672C50.318 28.4256 51.6583 25.8008 51.9172 23.4459C52.0753 22.0076 51.631 20.58 50.6977 19.5289C49.8447 18.5681 48.6783 18.0326 47.4133 18.0209C47.3986 18.0208 47.3839 18.0208 47.3694 18.0208C46.1458 18.0208 44.9974 18.492 44.1307 19.3508C43.2638 20.2097 42.7841 21.3539 42.7785 22.575C42.7339 22.8423 42.2636 23.764 41.1128 24.8584C40.1707 25.7547 38.5432 26.9867 36.1402 27.7668C35.198 28.0728 34.3369 28.6361 33.581 29.4411C33.1842 29.8633 32.5902 30.4464 31.8547 31.0317C31.4938 30.8404 31.0833 30.7311 30.6472 30.7311H22.6305C21.203 30.7311 20.0417 31.8923 20.0417 33.3198V54.6976C20.0417 56.1251 21.203 57.2864 22.6305 57.2864H30.6472C31.6203 57.2864 32.4689 56.7461 32.9111 55.9503H53.3678C55.5321 55.9503 57.2927 54.1897 57.2927 52.0254C57.2927 51.2978 57.0938 50.6159 56.7472 50.0309C57.8749 49.3406 58.6288 48.0972 58.6288 46.6809C58.6288 45.9533 58.4299 45.2714 58.0833 44.6864C59.211 43.9961 59.9649 42.7526 59.9649 41.3364C59.9649 40.5173 59.7127 39.7561 59.2819 39.1261C60.4996 38.299 61.3011 36.9031 61.3011 35.3236ZM56.7082 37.4112H56.04C55.3483 37.4112 54.7874 37.972 54.7874 38.6639C54.7874 39.3556 55.3482 39.9165 56.04 39.9165C56.8228 39.9165 57.4597 40.5534 57.4597 41.3362C57.4597 42.119 56.8228 42.7559 56.04 42.7559H54.7039C54.0122 42.7559 53.4513 43.3167 53.4513 44.0086C53.4513 44.7003 54.0121 45.2612 54.7039 45.2612C55.4868 45.2612 56.1236 45.8981 56.1236 46.6809C56.1236 47.4637 55.4868 48.1006 54.7039 48.1006H53.3678C52.6761 48.1006 52.1152 48.6614 52.1152 49.3533C52.1152 50.045 52.676 50.6059 53.3678 50.6059C54.1507 50.6059 54.7875 51.2428 54.7875 52.0256C54.7875 52.8084 54.1507 53.4453 53.3678 53.4453H33.236V41.3367C33.236 40.645 32.6752 40.084 31.9833 40.084C31.2914 40.084 30.7307 40.6448 30.7307 41.3367V54.6978C30.7307 54.7439 30.6933 54.7812 30.6472 54.7812H22.6305C22.5844 54.7812 22.5471 54.7439 22.5471 54.6978V33.3193C22.5471 33.2733 22.5844 33.2359 22.6305 33.2359H30.6472C30.6933 33.2359 30.7307 33.2733 30.7307 33.3193V35.9917C30.7307 36.6834 31.2914 37.2443 31.9833 37.2443C32.6752 37.2443 33.236 36.6836 33.236 35.9917V33.3193C33.236 33.2586 33.231 33.199 33.2267 33.1393C34.166 32.4123 34.9171 31.6773 35.4071 31.1558C35.8707 30.6618 36.3775 30.3234 36.9136 30.1495C39.8621 29.1923 41.8463 27.6511 42.9914 26.5267C44.4267 25.1175 45.2835 23.6484 45.2835 22.5967C45.2835 22.0411 45.5002 21.5203 45.8938 21.1303C46.2922 20.7354 46.8199 20.5268 47.39 20.5261C48.0922 20.5326 48.5572 20.8918 48.8239 21.1922C49.2811 21.707 49.5061 22.4473 49.4266 23.1722C49.153 25.6611 47.1625 28.7376 44.3557 31.0098C43.9433 31.3437 43.786 31.9012 43.963 32.4014C44.14 32.9015 44.6132 33.2359 45.1438 33.2359H56.7078C57.8591 33.2359 58.7955 34.1723 58.7955 35.3236C58.7955 36.4748 57.8593 37.4112 56.7082 37.4112Z" fill="#8F2229"/>
<path d="M26.639 49.4229C25.9473 49.4229 25.3798 49.9903 25.3798 50.6821C25.3798 51.3738 25.9473 51.9413 26.639 51.9413C27.3307 51.9413 27.8982 51.3738 27.8982 50.6821C27.8984 49.9905 27.3309 49.4229 26.639 49.4229Z" fill="#8F2229"/>
<path d="M77.7672 39.9999L79.9191 34.3057C80.0758 33.8915 80.0019 33.4254 79.7249 33.0796L75.9188 28.329L76.2057 22.2485C76.2266 21.8063 76.0122 21.3856 75.6422 21.1426L70.5544 17.8006L68.9485 11.929C68.8316 11.5018 68.4979 11.1681 68.0708 11.0513L62.1993 9.44541L58.8572 4.35775C58.6141 3.9876 58.1935 3.77416 57.7513 3.79432L51.6708 4.08119L46.9202 0.275098C46.5746 -0.0017772 46.1085 -0.0756835 45.6941 0.080879L39.9999 2.23275L34.306 0.0810353C33.8915 -0.0756835 33.4255 -0.0017772 33.0799 0.275254L28.3293 4.08135L22.2488 3.79447C21.8044 3.77354 21.3858 3.98791 21.1429 4.35791L17.801 9.44572L11.9294 11.0517C11.5022 11.1685 11.1685 11.5023 11.0518 11.9293L9.44583 17.8009L4.35802 21.1428C3.98786 21.3859 3.77364 21.8065 3.79458 22.2487L4.08145 28.3292L0.27536 33.0798C-0.00151476 33.4254 -0.075421 33.8915 0.0811415 34.3059L2.23286 39.9999L0.0809853 45.694C-0.0757335 46.1082 -0.00182727 46.5743 0.275204 46.9201L4.0813 51.6707L3.79442 57.7512C3.77349 58.1934 3.98786 58.6142 4.35786 58.8571L9.44567 62.1992L11.0516 68.0707C11.1685 68.4979 11.5022 68.8317 11.9293 68.9484L17.8008 70.5543L21.1427 75.6421C21.3858 76.0123 21.8072 76.2251 22.2486 76.2056L28.3291 75.9187L33.0797 79.7248C33.4254 80.0018 33.8916 80.0757 34.3058 79.919L40.0001 77.7671L45.6943 79.919C45.838 79.9732 45.9879 79.9998 46.1369 79.9998C46.4176 79.9998 46.6946 79.9056 46.9202 79.7248L51.6708 75.9187L57.7513 76.2056C58.1949 76.2253 58.6141 76.0121 58.8572 75.6421L62.1993 70.5543L68.0708 68.9484C68.498 68.8315 68.8318 68.4978 68.9485 68.0707L70.5544 62.1992L75.6422 58.8571C76.0124 58.614 76.2266 58.1934 76.2057 57.7512L75.9188 51.6707L79.7249 46.9201C80.0018 46.5745 80.0757 46.1084 79.9191 45.694L77.7672 39.9999ZM75.2565 40.4428L77.323 45.9114L73.6677 50.4737C73.4769 50.7117 73.3796 51.0112 73.394 51.3159L73.6696 57.1554L68.7835 60.3649C68.5286 60.5323 68.3433 60.7871 68.2629 61.0815L66.7205 66.7204L61.0816 68.2628C60.7874 68.3432 60.5327 68.5284 60.3651 68.7834L57.1555 73.6695L51.316 73.3939C51.0111 73.3798 50.7118 73.4768 50.4738 73.6676L45.9115 77.3229L40.4429 75.2564C40.3002 75.2024 40.1501 75.1756 40.0001 75.1756C39.8501 75.1756 39.6999 75.2026 39.5572 75.2564L34.0886 77.3229L29.5263 73.6676C29.2883 73.4768 28.9883 73.3798 28.6841 73.3939L22.8446 73.6695L19.635 68.7834C19.4677 68.5285 19.2129 68.3432 18.9185 68.2628L13.2796 66.7204L11.7372 61.0815C11.6568 60.7873 11.4716 60.5326 11.2166 60.3649L6.33052 57.1554L6.60614 51.3159C6.62052 51.011 6.52317 50.7117 6.33239 50.4737L2.67708 45.9114L4.7438 40.4428C4.85161 40.1574 4.85161 39.8424 4.7438 39.5571L2.67708 34.0885L6.33239 29.5262C6.52317 29.2882 6.62052 28.9887 6.60614 28.684L6.33052 22.8445L11.2166 19.6349C11.4715 19.4676 11.6568 19.2128 11.7372 18.9184L13.2796 13.2795L18.9185 11.7371C19.2127 11.6567 19.4674 11.4715 19.635 11.2165L22.8446 6.33041L28.6841 6.60604C28.9885 6.62025 29.2883 6.52307 29.5263 6.33229L34.0886 2.67697L39.5572 4.74369C39.8427 4.8515 40.1576 4.8515 40.4429 4.74369L45.9115 2.67697L50.4738 6.33229C50.7118 6.52322 51.0115 6.62041 51.316 6.60604L57.1555 6.33041L60.3651 11.2165C60.5324 11.4713 60.7872 11.6567 61.0816 11.7371L66.7205 13.2795L68.2629 18.9184C68.3433 19.2126 68.5285 19.4673 68.7835 19.6349L73.6696 22.8445L73.394 28.684C73.3796 28.9888 73.4769 29.2882 73.6677 29.5262L77.323 34.0885L75.2563 39.5571C75.1487 39.8426 75.1486 40.1574 75.2565 40.4428Z" fill="#8F2229"/>
<path d="M63.5366 18.3708C63.2249 18.0315 62.9016 17.694 62.5752 17.3677C62.2488 17.0415 61.9115 16.718 61.5721 16.4063C61.0626 15.9385 60.2702 15.9722 59.8022 16.4819C59.3344 16.9915 59.3682 17.784 59.8779 18.2518C60.1908 18.5393 60.5024 18.8377 60.8037 19.139C61.1047 19.4401 61.4033 19.7518 61.691 20.0649C61.938 20.334 62.2755 20.4704 62.6141 20.4704C62.9168 20.4704 63.2204 20.3613 63.4608 20.1405C63.9705 19.6729 64.0044 18.8804 63.5366 18.3708Z" fill="#8F2229"/>
<path d="M57.1238 12.9881C51.0832 9.13968 43.8103 7.42936 36.6458 8.17108C29.3763 8.92421 22.5216 12.1901 17.3441 17.3675C11.6461 23.0655 8.32862 30.6348 8.00268 38.6812C7.67877 46.6803 10.3281 54.4466 15.463 60.5491C15.7106 60.8434 16.065 60.9952 16.4222 60.9952C16.7069 60.9952 16.9931 60.8986 17.228 60.7011C17.7572 60.2556 17.8253 59.4655 17.38 58.9362C12.6486 53.313 10.2074 46.1558 10.5058 38.7828C10.8061 31.3669 13.8636 24.3906 19.1153 19.1391C23.8872 14.367 30.2047 11.3569 36.9038 10.663C43.5092 9.97858 50.2117 11.555 55.7775 15.1009C56.3611 15.4726 57.1352 15.3011 57.5069 14.7176C57.8788 14.1341 57.7071 13.3598 57.1238 12.9881Z" fill="#8F2229"/>
<path d="M66.9549 22.8193C66.5832 22.2357 65.8085 22.0641 65.2254 22.4359C64.6418 22.8076 64.4704 23.582 64.8421 24.1652C68.388 29.7312 69.9641 36.434 69.2801 43.039C68.5861 49.7381 65.576 56.0554 60.8041 60.8276C55.5524 66.0791 48.5761 69.1368 41.1604 69.4371C33.7886 69.7368 26.63 67.2945 21.0069 62.5632C20.4777 62.1177 19.6875 62.1859 19.2421 62.7152C18.7966 63.2445 18.8647 64.0346 19.3941 64.4801C25.163 69.334 32.4177 71.9671 39.9513 71.967C40.3871 71.967 40.8246 71.958 41.2621 71.9404C49.3085 71.6146 56.8777 68.2971 62.5758 62.5991C67.7533 57.4216 71.0194 50.5668 71.7722 43.2973C72.5141 36.1323 70.8033 28.8598 66.9549 22.8193Z" fill="#8F2229"/>
</svg>
