<svg width="12" height="10" viewBox="0 0 12 10" xmlns="http://www.w3.org/2000/svg"><path d="M11.8795 4.32151L6.57986 0.0733994C6.48149 -0.00553504 6.34377 -0.0222787 6.22819 0.0303443C6.1126 0.0829672 6.03883 0.197781 6.03883 0.322162V2.56103C3.46647 2.65192 1.69829 3.53455 0.778534 5.18739C-0.0133377 6.613 -0.00596004 8.30171 0.00141765 9.41876C0.00141765 9.50965 0.00141765 9.59576 0.00141765 9.67709C0.00141765 9.823 0.102246 9.95216 0.2498 9.99043C0.276851 9.99761 0.306362 10 0.333414 10C0.451457 10 0.562122 9.9402 0.621144 9.83735C2.41638 6.75891 3.89438 6.6106 6.03637 6.60343V8.83512C6.03637 8.9595 6.11014 9.07431 6.22819 9.12694C6.34623 9.17956 6.48149 9.16282 6.58232 9.08388L11.8795 4.82142C11.9557 4.75923 12 4.66834 12 4.57266C12 4.47698 11.9557 4.3837 11.8795 4.32151ZM6.70282 8.14863V6.28051C6.70282 6.1944 6.66839 6.11308 6.60445 6.05328C6.54297 5.99348 6.4569 5.9576 6.37082 5.9576C5.033 5.9576 4.0075 5.99348 3.01152 6.44556C2.15078 6.83545 1.40564 7.49802 0.670328 8.53852C0.699839 7.58891 0.827719 6.45513 1.36137 5.49595C2.20735 3.97467 3.84519 3.22121 6.37082 3.19968C6.55281 3.19729 6.70036 3.05377 6.70036 2.87677V1.00626L11.1442 4.57266L6.70282 8.14863Z"/></svg>