<svg width="8" height="9" viewBox="0 0 8 9" xmlns="http://www.w3.org/2000/svg"><path d="M4.03553 8.35355L7.21751 5.17157C7.41278 4.97631 7.41278 4.65973 7.21751 4.46447C7.02225 4.2692 6.70567 4.2692 6.51041 4.46447L4.18198 6.79289L4.18198 0.5C4.18198 0.223858 3.95812 1.20705e-08 3.68198 0C3.40584 -1.20705e-08 3.18198 0.223858 3.18198 0.5L3.18198 6.79289L0.853554 4.46447C0.658292 4.2692 0.341709 4.2692 0.146446 4.46447C-0.0488155 4.65973 -0.0488155 4.97631 0.146446 5.17157L3.32843 8.35355C3.52374 8.54823 3.84047 8.54862 4.03553 8.35355Z"/></svg>