<svg width="150" height="60" viewBox="0 0 150 60" xmlns="http://www.w3.org/2000/svg"><path d="M112.389 42.6387C112.736 42.6387 112.987 42.6579 113.141 42.6868C113.295 42.7156 113.42 42.8118 113.507 42.9465C113.584 43.0907 113.632 43.3216 113.632 43.6486C113.632 43.7352 113.584 43.8217 113.488 43.8794C113.401 43.9468 113.276 43.9949 113.141 44.0333C112.996 44.0622 112.852 44.0911 112.707 44.1103C112.553 44.1295 112.437 44.1391 112.36 44.1584C112.341 44.1584 112.196 44.1969 111.907 44.2642C111.628 44.3315 111.387 44.3796 111.175 44.4085C110.963 44.4469 110.693 44.4662 110.365 44.4854C109.69 44.5046 109.189 44.5335 108.842 44.5816C108.437 44.6297 108.032 44.6778 107.608 44.7163C107.213 44.7355 106.635 44.7932 105.883 44.8798C105.449 46.9477 105.237 47.9673 105.237 47.9384C105.237 47.9481 105.237 47.9577 105.256 47.9673C105.276 47.9673 105.295 47.9769 105.314 47.9769C105.343 47.9769 105.362 47.9865 105.382 47.9865H105.912C106.133 47.9577 106.49 47.8519 107.001 47.6691C107.502 47.496 107.965 47.3517 108.379 47.2459C109.025 47.0824 109.661 47.0054 110.278 47.0054C110.837 47.0054 111.329 47.0824 111.753 47.2267C112.167 47.371 112.476 47.5537 112.688 47.7845C112.89 48.0058 112.996 48.2366 112.996 48.4867C112.996 48.6502 112.89 48.7945 112.678 48.9291C112.457 49.0542 112.264 49.1215 112.09 49.1215C112.013 49.1215 111.936 49.1023 111.869 49.0638C111.791 49.0349 111.695 48.9676 111.57 48.8811C111.444 48.7849 111.338 48.7175 111.252 48.6791C111.165 48.6406 111.078 48.6117 110.991 48.6117C110.519 48.6117 109.478 48.7464 107.859 49.0061C107.097 49.1311 106.548 49.2466 106.191 49.3716C105.864 49.4774 105.574 49.5543 105.295 49.6024C105.295 49.9198 105.295 50.1603 105.276 50.3046C105.256 50.4585 105.227 50.5931 105.198 50.7182C105.16 50.8528 105.15 50.949 105.15 51.0164C105.15 51.0741 105.17 51.151 105.218 51.2568C105.256 51.3626 105.285 51.4492 105.285 51.5069C105.285 51.5935 105.237 51.8724 105.15 52.3533C105.131 52.4591 105.121 52.613 105.121 52.8246C105.121 52.9978 105.131 53.2767 105.15 53.6422C105.16 53.9211 105.198 54.1039 105.237 54.2097C105.285 54.3251 105.353 54.4021 105.43 54.4501C105.517 54.5079 105.574 54.5559 105.603 54.6233C105.642 54.681 105.661 54.806 105.661 54.9984C105.661 55.2485 105.574 55.4793 105.411 55.6813C105.237 55.8833 105.006 55.9891 104.688 55.9891C104.456 55.9891 104.225 55.8737 104.013 55.6621C103.791 55.4408 103.666 55.21 103.618 54.9695V53.9596C103.55 53.546 103.521 53.2478 103.521 53.0939C103.521 53.0362 103.56 52.9785 103.637 52.9016C103.724 52.8246 103.762 52.7669 103.762 52.7092C103.762 52.5457 103.762 52.4206 103.753 52.3341C103.714 52.1321 103.695 51.9493 103.695 51.7666C103.695 51.5742 103.714 51.3626 103.753 51.151C103.753 51.0644 103.782 50.9009 103.81 50.6605C103.849 50.42 103.868 50.218 103.868 50.0545C103.868 49.9872 103.849 49.8237 103.83 49.5832C103.463 49.7082 103.116 49.7659 102.798 49.7659C102.741 49.7659 102.663 49.7659 102.557 49.7563C102.461 49.7563 102.384 49.7467 102.326 49.7467H101.459C101.15 49.7371 100.938 49.689 100.813 49.5928C100.697 49.5063 100.63 49.3331 100.63 49.0734C100.63 48.6887 100.697 48.429 100.822 48.3039C100.948 48.1693 101.208 48.102 101.594 48.102C101.69 48.102 101.825 48.1212 101.989 48.1693C102.162 48.2174 102.278 48.2366 102.365 48.2366C103.068 48.2366 103.569 48.2078 103.878 48.15C104.013 46.9093 104.109 46.1109 104.157 45.7358C104.215 45.3607 104.283 45.0529 104.36 44.8317C103.965 44.8701 103.319 44.8894 102.413 44.8894C101.941 44.8894 101.545 44.7836 101.227 44.572C100.919 44.3604 100.765 44.0526 100.765 43.6582C100.765 43.2735 101.006 43.0811 101.487 43.0811C101.594 43.0811 101.728 43.0907 101.912 43.11C102.085 43.1292 102.201 43.1388 102.268 43.1388C102.451 43.1388 103.059 43.1773 104.08 43.2542C105.092 43.3408 105.758 43.3793 106.076 43.3793C106.644 43.3793 107.396 43.3504 108.35 43.2927C109.305 43.2254 109.979 43.1388 110.384 43.0138C111.242 42.7637 111.917 42.6387 112.389 42.6387ZM116.746 47.3229C116.948 47.3229 117.122 47.3517 117.247 47.4094C117.372 47.4575 117.498 47.5441 117.633 47.6691C117.758 47.7845 117.845 47.8615 117.902 47.9C117.922 47.9192 117.97 47.9577 118.047 48.0058C118.134 48.0442 118.182 48.102 118.221 48.15C118.249 48.1981 118.259 48.2751 118.259 48.3809C118.259 48.554 118.278 48.6406 118.307 48.6406C118.346 48.6406 118.442 48.6117 118.596 48.554C118.751 48.4867 118.886 48.4578 118.992 48.4578C119.204 48.4578 119.377 48.6598 119.493 49.0542C119.618 49.4582 119.676 49.8718 119.676 50.2853C119.676 50.3527 119.676 50.4585 119.676 50.5835C119.666 50.7182 119.666 50.8144 119.666 50.8817C119.666 50.9202 119.695 51.0067 119.744 51.1222C119.801 51.2376 119.83 51.3915 119.83 51.5935V51.9878C119.927 52.3245 120.023 52.5649 120.11 52.69C120.129 52.7284 120.177 52.7765 120.254 52.8439C120.322 52.9016 120.38 52.9593 120.409 53.017C120.438 53.0747 120.457 53.1613 120.457 53.2671C120.457 53.5845 120.438 53.8057 120.38 53.9307C120.331 54.0654 120.206 54.1231 119.994 54.1231C119.869 54.1231 119.772 54.1135 119.695 54.1039C119.618 54.0943 119.551 54.0654 119.503 54.0365C119.445 53.9981 119.397 53.95 119.329 53.8923C119.262 53.8249 119.223 53.7865 119.204 53.7672C119.001 53.5652 118.895 53.4402 118.876 53.4113C118.847 53.3825 118.837 53.3152 118.837 53.1901C118.837 53.0747 118.809 52.9689 118.741 52.8631C118.731 52.8342 118.712 52.7958 118.703 52.7573C118.693 52.7092 118.674 52.6515 118.664 52.5842C118.654 52.5072 118.645 52.4687 118.645 52.4591C118.635 52.4303 118.606 52.3726 118.568 52.286C118.519 52.1994 118.49 52.1225 118.481 52.0648V51.5069C118.452 51.4877 118.423 51.478 118.394 51.478C118.384 51.478 118.346 51.4973 118.278 51.5261C118.192 51.5742 118.028 51.5935 117.796 51.5935C117.662 51.5935 117.584 51.6127 117.546 51.6512C117.507 51.6896 117.459 51.8051 117.392 52.0071C117.334 52.1706 117.266 52.286 117.189 52.3726C117.112 52.4495 116.977 52.5649 116.794 52.7092C116.601 52.8535 116.418 53.0074 116.254 53.1709C116.052 53.344 115.898 53.4594 115.763 53.4979C115.637 53.546 115.473 53.5652 115.261 53.5652C114.876 53.5652 114.567 53.4306 114.326 53.1517C114.076 52.8727 113.96 52.5938 113.96 52.3148C113.96 52.2187 113.989 52.0455 114.057 51.8147C114.134 51.5935 114.182 51.3722 114.22 51.1606C114.298 50.7855 114.346 50.4681 114.384 50.1988C114.423 49.9295 114.471 49.7563 114.51 49.6601C114.558 49.5736 114.645 49.3908 114.779 49.1215C115.03 48.6214 115.31 48.1981 115.608 47.8519C115.917 47.5056 116.293 47.3229 116.746 47.3229ZM116.669 48.7272C116.466 48.7272 116.322 48.7945 116.216 48.9484C116.11 49.1023 116.004 49.3235 115.907 49.6313C115.801 49.9391 115.724 50.1507 115.657 50.2757C115.57 50.4489 115.493 50.7182 115.445 51.1029C115.387 51.478 115.358 51.8243 115.358 52.1129C115.358 52.1609 115.367 52.1802 115.377 52.1802C115.502 52.1802 115.714 52.0167 116.023 51.6704C116.322 51.3338 116.611 50.9586 116.881 50.5547C117.151 50.1507 117.286 49.8814 117.286 49.7659C117.286 49.7371 117.266 49.6601 117.208 49.5159C117.189 49.4678 117.151 49.3331 117.112 49.1311C117.074 48.9965 117.006 48.9003 116.91 48.8233C116.813 48.756 116.736 48.7272 116.669 48.7272ZM122.192 49.5063C122.433 49.5063 122.626 49.564 122.751 49.6698C122.886 49.7852 122.963 49.9198 122.992 50.0737C123.03 50.2276 123.05 50.4104 123.05 50.6124C123.05 50.824 123.05 50.949 123.059 51.0067C123.069 51.0548 123.098 51.1125 123.127 51.1702C123.156 51.2376 123.175 51.3049 123.175 51.3915C123.204 51.6223 123.223 51.7377 123.242 51.7377C123.262 51.7377 123.281 51.7185 123.3 51.68C123.329 51.6416 123.368 51.5742 123.426 51.4684C123.483 51.3626 123.541 51.276 123.589 51.1799C123.686 51.0164 123.792 50.8721 123.898 50.747C124.004 50.622 124.1 50.5258 124.187 50.4489C124.274 50.3719 124.37 50.295 124.476 50.218C124.582 50.1411 124.679 50.0641 124.775 49.9968C124.804 49.9776 124.91 49.9006 125.074 49.7659C125.247 49.6409 125.373 49.5447 125.45 49.487C125.536 49.4389 125.642 49.3812 125.777 49.3235C125.912 49.2658 126.047 49.2466 126.163 49.2466C126.259 49.2466 126.336 49.2562 126.385 49.2754C126.838 49.4389 127.127 49.6024 127.262 49.7659C127.397 49.9295 127.464 50.1218 127.464 50.3431V50.5547C127.464 50.6701 127.484 50.7855 127.512 50.9009C127.522 50.9298 127.551 50.9779 127.599 51.0644C127.638 51.1414 127.667 51.228 127.676 51.2953C127.696 51.3434 127.696 51.4203 127.705 51.5165C127.715 51.6127 127.715 51.6608 127.734 51.6608C127.792 51.6608 127.937 51.5069 128.158 51.2087C128.38 50.9009 128.631 50.6316 128.9 50.4008C129.18 50.1699 129.527 50.016 129.961 49.9487C130.153 49.9295 130.269 49.9102 130.298 49.9102C130.963 49.9102 131.32 50.2853 131.358 51.0356V51.555C131.358 51.9493 131.416 52.2187 131.541 52.3822C131.57 52.4206 131.628 52.4784 131.725 52.5553C131.821 52.6419 131.898 52.7188 131.937 52.7861C131.975 52.8631 132.004 52.9593 132.004 53.0747C132.004 53.1901 131.917 53.3344 131.734 53.5268C131.561 53.7191 131.416 53.8153 131.31 53.8153C131.098 53.8153 130.925 53.7865 130.79 53.7191C130.664 53.6614 130.549 53.5652 130.423 53.4498C130.308 53.3248 130.221 53.2478 130.192 53.2286C130.067 53.1517 129.98 53.1036 129.922 53.0651C129.855 53.0266 129.806 52.9689 129.778 52.9016C129.739 52.8246 129.729 52.7092 129.729 52.5457C129.729 52.488 129.758 52.4014 129.826 52.3148C129.893 52.2187 129.922 52.1417 129.922 52.1032C129.922 52.0648 129.922 51.9974 129.913 51.9012C129.913 51.8051 129.903 51.7185 129.903 51.6416C129.903 51.6127 129.913 51.555 129.922 51.4877C129.932 51.4203 129.941 51.3722 129.941 51.3434C129.941 51.3049 129.932 51.276 129.903 51.276C129.864 51.276 129.749 51.3915 129.546 51.6223C129.353 51.8435 129.257 51.9686 129.247 51.9686C129.161 52.0648 128.987 52.2571 128.737 52.5553C128.496 52.8535 128.293 53.0651 128.139 53.1901C127.985 53.3248 127.821 53.3921 127.647 53.3921C127.3 53.3921 127.04 53.3055 126.867 53.1324C126.703 52.9689 126.587 52.7669 126.539 52.5553C126.5 52.3341 126.462 52.0744 126.462 51.7762C126.443 51.478 126.423 51.3049 126.394 51.2472C126.385 51.228 126.346 51.1799 126.269 51.1029C126.192 51.0164 126.144 50.9298 126.115 50.8528C126.096 50.8144 126.086 50.7759 126.076 50.7374C126.067 50.6989 126.057 50.6701 126.047 50.6508C126.028 50.622 126.009 50.6028 125.98 50.6028C125.951 50.6028 125.912 50.6316 125.874 50.6701C125.845 50.7182 125.806 50.7759 125.768 50.8528C125.72 50.9298 125.7 50.9779 125.691 50.9875C125.623 51.0452 125.556 51.1029 125.488 51.151C125.411 51.1991 125.344 51.2664 125.286 51.3434C125.276 51.3626 125.247 51.4011 125.199 51.478C125.151 51.5454 125.093 51.6223 125.016 51.7089C124.823 51.9397 124.717 52.084 124.669 52.1706C124.438 52.5457 124.254 52.8342 124.1 53.0362C123.782 53.4691 123.464 53.6807 123.165 53.6807C122.847 53.6807 122.606 53.6037 122.452 53.4402C122.298 53.2863 122.201 53.1132 122.163 52.9208C122.115 52.7284 122.057 52.3726 121.98 51.8628C121.96 51.7281 121.951 51.6127 121.951 51.5357C121.941 51.4588 121.932 51.3819 121.922 51.3145C121.903 51.2376 121.874 51.1318 121.826 51.0067C121.681 50.6605 121.613 50.3623 121.613 50.1122C121.613 49.7082 121.806 49.5063 122.192 49.5063ZM134.915 48.6502C135.272 48.6502 135.484 48.8522 135.561 49.2562V49.8814C135.551 49.9968 135.542 50.1218 135.532 50.2469C135.522 50.3719 135.513 50.4873 135.513 50.5835V51.3338C135.513 52.2764 135.474 52.9208 135.397 53.2767C135.32 53.6326 135.137 53.8153 134.857 53.8153C134.298 53.8153 134.019 53.6999 134.019 53.4691C134.019 53.219 134.038 52.9112 134.076 52.5649C134.105 52.4206 134.125 52.2571 134.134 52.084C134.144 51.9109 134.163 51.7281 134.183 51.5261C134.183 51.5069 134.192 51.4492 134.202 51.3434C134.221 51.2376 134.231 51.151 134.231 51.0837C134.231 50.9394 134.221 50.8721 134.211 50.8721C134.202 50.8721 134.125 50.9298 133.97 51.0452C133.826 51.1702 133.672 51.228 133.517 51.228C133.344 51.228 133.199 51.1606 133.084 51.026C132.968 50.8913 132.91 50.7182 132.91 50.4873C132.91 50.3815 132.939 50.2853 133.007 50.2084C133.074 50.1218 133.19 50.0256 133.334 49.9006C133.469 49.7756 133.585 49.6698 133.672 49.5832C133.807 49.4293 133.932 49.285 134.057 49.1504C134.183 49.0061 134.317 48.8907 134.462 48.7945C134.607 48.6983 134.751 48.6502 134.915 48.6502ZM135.214 46.0051C135.349 46.0051 135.522 46.0821 135.744 46.2456C135.966 46.4187 136.101 46.5726 136.168 46.7073C136.226 46.8227 136.255 46.9381 136.255 47.0343C136.255 47.2555 136.139 47.4287 135.908 47.5537C135.677 47.6787 135.445 47.7461 135.204 47.7461C135.011 47.7461 134.819 47.6787 134.616 47.5633C134.414 47.4383 134.308 47.3132 134.308 47.1593C134.308 46.9093 134.404 46.6496 134.587 46.3899C134.761 46.1302 134.973 46.0051 135.214 46.0051ZM138.694 42.5425C139.224 42.5425 139.494 42.8599 139.494 43.4947C139.494 43.6294 139.484 43.764 139.465 43.8987C139.445 44.0333 139.426 44.2161 139.388 44.4469C139.349 44.6874 139.33 44.8701 139.31 45.0144C139.291 45.1202 139.233 45.6589 139.118 46.6399C139.002 47.621 138.886 48.6694 138.761 49.7852C138.636 50.9105 138.53 51.9012 138.433 52.7765C138.347 53.6518 138.298 54.1616 138.298 54.3059C138.298 54.3732 138.318 54.4694 138.356 54.604C138.395 54.7291 138.414 54.8253 138.414 54.883C138.414 55.0753 138.318 55.21 138.144 55.2966C137.961 55.3831 137.759 55.4216 137.556 55.4216C137.354 55.4216 137.151 55.2485 136.968 54.883C136.785 54.5271 136.698 54.2193 136.698 53.9596C136.698 53.7961 136.718 53.6807 136.756 53.6037C136.795 53.5364 136.852 53.4691 136.93 53.4113C137.016 53.344 137.074 53.2767 137.122 53.2094C137.161 53.1324 137.18 53.017 137.19 52.8631C137.19 52.7669 137.19 52.6803 137.18 52.6034C137.18 52.5361 137.18 52.4784 137.18 52.4495C137.18 52.286 137.228 51.8339 137.344 51.0933C137.431 50.5354 137.508 49.9679 137.575 49.3908C137.643 48.8137 137.691 48.2559 137.739 47.7365C137.787 47.2171 137.836 46.6688 137.884 46.1013C137.932 45.5338 137.961 45.1587 137.99 44.9567C138.009 44.7643 138.019 44.6105 138.019 44.5046C138.019 44.37 138.009 44.1872 138 43.9564C137.98 43.7256 137.971 43.562 137.971 43.4659C137.971 43.1581 138.019 42.9272 138.125 42.7733C138.221 42.6194 138.414 42.5425 138.694 42.5425ZM143.098 47.6114C143.205 47.6114 143.32 47.6691 143.445 47.7749C143.561 47.8807 143.629 47.9865 143.629 48.0827C143.629 48.2078 143.6 48.3136 143.542 48.429C143.494 48.5348 143.388 48.7272 143.233 48.9965C143.07 49.2754 142.944 49.5063 142.848 49.7179C142.568 50.3719 142.424 50.7182 142.424 50.747C142.424 50.7759 142.443 50.7855 142.482 50.7855C142.713 50.7855 143.021 50.6605 143.407 50.42C143.59 50.3142 143.831 50.1026 144.111 49.7948C144.4 49.4774 144.612 49.2658 144.756 49.1311C144.911 49.0061 145.084 48.9388 145.296 48.9388C145.556 48.9388 145.691 49.2273 145.691 49.7852C145.691 49.8429 145.682 49.9198 145.682 50.016C145.672 50.1122 145.672 50.1795 145.672 50.2084C145.672 50.3046 145.662 50.4392 145.643 50.622C145.633 50.7951 145.624 50.9394 145.624 51.0356C145.624 51.1702 145.633 51.3722 145.662 51.6512C145.691 51.9301 145.701 52.1417 145.701 52.286C145.701 52.6803 145.682 53.1324 145.633 53.6422C145.585 54.1616 145.518 54.6714 145.441 55.2004C145.354 55.7198 145.258 56.2007 145.142 56.6528C145.036 57.0952 144.93 57.4607 144.814 57.73C144.486 58.5091 144.139 59.0862 143.773 59.4517C143.407 59.8172 142.954 60 142.404 60C142.106 60 141.788 59.9327 141.431 59.7788C141.084 59.6249 140.766 59.4229 140.477 59.1536C140.188 58.8939 139.995 58.5957 139.898 58.2783C139.841 58.0955 139.754 57.9513 139.638 57.8166C139.513 57.6916 139.416 57.5473 139.359 57.403C139.33 57.3453 139.291 57.1722 139.224 56.874C139.195 56.7297 139.137 56.6239 139.05 56.5566C138.963 56.4893 138.906 56.4315 138.877 56.4027C138.857 56.3642 138.848 56.2488 138.848 56.0468C138.848 55.8063 138.886 55.5851 138.973 55.4024C139.06 55.21 139.185 55.1138 139.339 55.1138C139.551 55.1138 139.773 55.2004 140.024 55.3831C140.274 55.5563 140.39 55.8063 140.39 56.1238C140.39 56.1815 140.39 56.2777 140.39 56.4027C140.38 56.5277 140.38 56.6143 140.38 56.672C140.38 56.7297 140.39 56.7874 140.429 56.8355C140.467 56.8836 140.515 56.9413 140.583 56.999C140.65 57.0567 140.689 57.1048 140.727 57.1433C140.785 57.2203 140.891 57.3934 141.036 57.6531C141.431 58.3456 141.845 58.6823 142.289 58.6823C142.549 58.6823 142.829 58.5476 143.118 58.2687C143.417 57.9897 143.667 57.6146 143.879 57.1337C144.091 56.6432 144.207 56.1141 144.236 55.5274C144.255 55.1331 144.294 54.5944 144.361 53.9115C144.419 53.2286 144.448 52.7381 144.448 52.4303C144.448 52.3341 144.438 52.209 144.419 52.0551C144.409 51.9012 144.4 51.7858 144.4 51.7089C144.4 51.6704 144.409 51.6223 144.429 51.5646C144.458 51.4973 144.467 51.4396 144.467 51.3915C144.467 51.3145 144.448 51.276 144.419 51.276C144.342 51.276 144.245 51.3338 144.13 51.4396C144.014 51.555 143.937 51.6223 143.889 51.6608C143.812 51.7089 143.706 51.7474 143.561 51.7666C143.407 51.7762 143.33 51.7858 143.33 51.7858C143.253 51.8051 143.166 51.8435 143.05 51.9012C142.935 51.959 142.829 51.9974 142.723 52.0263C142.617 52.0551 142.453 52.0648 142.241 52.0648C141.903 52.0648 141.614 51.9782 141.373 51.7858C141.142 51.6031 141.026 51.4107 141.026 51.2183C141.026 51.0741 141.055 50.9105 141.132 50.7374C141.209 50.5547 141.315 50.3142 141.46 49.9968C141.604 49.689 141.682 49.5063 141.682 49.4389H141.643C141.585 49.4389 141.537 49.4582 141.479 49.487C141.431 49.5159 141.354 49.5543 141.267 49.6024C141.229 49.6217 141.171 49.6409 141.113 49.6601C141.055 49.6698 141.007 49.689 140.959 49.6986C140.939 49.7082 140.882 49.7371 140.776 49.7948C140.669 49.8525 140.583 49.8814 140.525 49.8814C140.313 49.8814 140.139 49.8044 139.985 49.6505C139.841 49.487 139.763 49.3331 139.763 49.1696C139.763 49.0446 139.841 48.9388 139.985 48.8522C140.139 48.7656 140.351 48.6791 140.621 48.5829C140.901 48.4963 141.074 48.429 141.132 48.4001C141.855 48.0539 142.318 47.8423 142.53 47.7461C142.742 47.6595 142.935 47.6114 143.098 47.6114Z" fill="#E31E24"/><path d="M53.9775 19.7467L57.9198 30.7887H58.1704L62.0742 19.7467H67.7033V21.0452H67.0575C66.4599 21.0452 66.1611 21.2953 66.1611 21.7954C66.1611 21.8916 66.1514 21.9782 66.1514 22.0744L66.1032 34.3091C66.1032 34.992 66.3635 35.4248 66.6044 35.6076C66.8454 35.7903 67.3466 35.8865 68.0985 35.8865V37.1177H60.7922V35.8865C61.4284 35.8865 61.7079 35.848 61.8428 35.7999C62.1513 35.6941 62.1995 35.2036 62.1995 34.9824L62.3633 23.9211H62.0742L57.6403 36.781H55.7607L51.1437 23.9211H50.8931L51.0088 34.0013C51.0088 34.3475 51.0088 34.6938 51.0377 35.0401C51.0955 35.6941 51.375 35.8865 52.0305 35.8865H52.6088V37.1177H46.6906V35.8865H47.2785C47.9243 35.8865 48.3581 35.723 48.5605 35.4056C48.7725 35.0882 49.0232 34.6265 49.0135 34.0013L49.0039 23.3055C49.0039 22.7381 49.0135 22.4014 48.9846 21.6319C48.975 21.2376 48.493 21.0452 47.5002 21.0452H47.105V19.7467H53.9775Z M78.5855 19.4101L79 20.3334L83.8002 33.3088C84.0122 34.1552 84.3496 34.8477 84.8315 35.3767C85.0532 35.5883 85.2653 35.7326 85.4677 35.7903C85.6701 35.8576 85.9689 35.8865 86.3834 35.8865V37.1177H79.7904V35.8865H80.5712C80.8314 35.8865 80.9856 35.7999 81.0242 35.6268V35.4344C80.9953 35.4344 80.9567 35.2613 80.8796 34.9247L79.7904 31.8756H73.6408L72.6287 34.5976C72.5998 34.79 72.5034 35.0882 72.3492 35.4921V35.6845C72.436 35.8192 72.648 35.8865 72.995 35.8865H73.6408V37.1177H68.5226V35.8865C69.2262 35.848 69.6889 35.7518 69.9106 35.6076C70.1323 35.4633 70.3829 35.194 70.6624 34.79C70.7877 34.5688 70.8937 34.3475 70.9708 34.1167C71.0576 33.8859 71.0961 33.7704 71.1058 33.7512L75.0095 23.3633C75.2216 22.9689 75.318 22.6034 75.318 22.2667C75.318 21.8724 75.0192 21.68 74.4216 21.68H74.1131V20.9009C74.6529 20.8625 75.0963 20.7951 75.4336 20.7086C75.771 20.6124 76.0891 20.4681 76.4072 20.2757C76.7156 20.0834 77.1012 19.7852 77.5446 19.4101H78.5855ZM76.5036 24.0654L74.1709 30.3366H79.135L76.812 24.0654H76.5036Z M87.328 19.7467H95.4728C97.497 19.7467 99.1934 20.0064 100.572 20.5354C101.941 21.0644 103.001 21.7474 103.743 22.5938C104.495 23.4306 105.015 24.3251 105.304 25.2869C105.594 26.2392 105.738 27.2203 105.738 28.211C105.738 29.673 105.411 31.0965 104.726 32.4527C104.051 33.8089 103.001 34.9247 101.565 35.7999C100.119 36.6752 98.3356 37.1177 96.2054 37.1177H87.328V35.8865H87.781C88.3112 35.8865 88.6967 35.7807 88.928 35.5883C89.1497 35.396 89.2654 35.0401 89.2654 34.5399V22.3245C89.2654 21.8243 89.1497 21.478 88.928 21.3049C88.7064 21.1318 88.3208 21.0452 87.781 21.0452H87.328V19.7467ZM93.333 22.5745V34.3091C93.333 34.8766 93.4583 35.2421 93.7089 35.396C93.9499 35.5499 94.3065 35.6268 94.7692 35.6268H95.521C97.8344 35.5402 99.3766 34.7611 100.148 33.3088C100.919 31.8467 101.304 30.2308 101.304 28.461V27.278C101.275 26.3257 101.102 25.412 100.793 24.5463C100.485 23.671 99.9164 22.9208 99.0874 22.2956C98.2585 21.68 97.1211 21.3434 95.6656 21.2953H94.7017C94.2583 21.2953 93.921 21.3722 93.6896 21.5165C93.4487 21.6608 93.333 22.0167 93.333 22.5745Z M118.664 19.7467L119.454 23.95H118.606C118.346 23.2575 117.893 22.6419 117.266 22.1032C116.63 21.5646 115.753 21.2953 114.654 21.2953H112.775C112.225 21.2953 111.859 21.3722 111.647 21.5357C111.444 21.6993 111.338 22.0455 111.338 22.5745V27.0856H113.083C114.057 27.0856 114.751 27.0375 115.175 26.9509C115.599 26.8548 115.859 26.7393 115.965 26.5951C116.061 26.4508 116.167 26.1911 116.254 25.8256C116.264 25.7679 116.274 25.7005 116.283 25.6428C116.293 25.5755 116.312 25.4986 116.341 25.412H117.122V30.2501H116.341C116.312 30.1347 116.302 30.0385 116.293 29.9711C116.283 29.8942 116.264 29.8269 116.254 29.7499C116.177 29.4037 116.004 29.1151 115.724 28.9035C115.445 28.6823 114.895 28.5765 114.066 28.5765H111.338V34.3091C111.338 34.7996 111.444 35.1459 111.647 35.3382C111.859 35.5306 112.225 35.6268 112.775 35.6268H114.953C115.493 35.6268 116.004 35.5787 116.495 35.4825C116.987 35.3767 117.517 35.117 118.076 34.713C118.635 34.2995 119.127 33.6743 119.56 32.8567H120.409L119.512 37.1177H105.324V35.8865H105.835C106.789 35.8865 107.271 35.5018 107.271 34.7323V22.3245C107.271 21.8916 107.194 21.5742 107.03 21.3626C106.876 21.151 106.48 21.0452 105.835 21.0452H105.324V19.7467H118.664Z M121.97 32.1353V22.3245C121.97 21.8243 121.854 21.478 121.633 21.3049C121.411 21.1318 121.025 21.0452 120.486 21.0452H120.033V19.7467H127.985V21.0452H127.474C126.924 21.0452 126.539 21.1222 126.336 21.2953C126.144 21.4684 126.038 21.8147 126.038 22.3245V31.5486C126.038 34.5111 127.397 35.9923 130.115 35.9923C131.281 35.9923 132.207 35.7999 132.852 35.4152C133.508 35.0305 133.961 34.463 134.221 33.7031C134.481 32.9433 134.607 31.9525 134.607 30.731V22.3822C134.607 22.0167 134.558 21.7474 134.472 21.5646C134.375 21.3915 134.202 21.2568 133.942 21.1895C133.672 21.1125 133.248 21.0644 132.669 21.0452V19.7467H138.086V21.0452H137.575C137.036 21.0452 136.669 21.1222 136.457 21.2953C136.255 21.478 136.149 21.8147 136.149 22.3245V30.8945C136.149 32.4335 135.946 33.6743 135.542 34.6361C135.137 35.5979 134.462 36.3097 133.517 36.781C132.563 37.2427 131.291 37.4832 129.691 37.4832C127.416 37.4832 125.7 37.1273 124.553 36.4348C123.406 35.7326 122.683 35.0016 122.404 34.2321C122.115 33.4626 121.97 32.7605 121.97 32.1353Z M148.448 24.0077H147.609C147.291 23.2863 146.858 22.6996 146.299 22.2283C145.73 21.757 145.142 21.4203 144.535 21.2087C143.918 20.9971 143.359 20.9009 142.867 20.9009C142.202 20.9009 141.691 21.1029 141.335 21.5261C140.968 21.9493 140.785 22.411 140.785 22.9112C140.785 23.5364 140.978 24.0269 141.363 24.3828C141.759 24.7387 142.289 25.085 142.954 25.4408C144.756 26.3642 146.164 27.1722 147.166 27.8743C148.169 28.5668 148.891 29.269 149.335 29.9615C149.778 30.6637 150 31.462 150 32.3854C150 33.4146 149.682 34.3187 149.075 35.0978C148.458 35.8769 147.638 36.4636 146.626 36.8676C145.614 37.2812 144.535 37.4832 143.397 37.4832C141.797 37.4832 139.879 37.0792 137.653 36.2712L137.199 32.6066H138.009C138.453 33.3761 139.002 34.0109 139.667 34.5207C140.332 35.0305 141.016 35.4056 141.691 35.646C142.385 35.8769 142.983 35.9923 143.513 35.9923C144.371 35.9923 145.036 35.7903 145.489 35.3863C145.952 34.9824 146.173 34.4437 146.173 33.7512C146.173 33.0587 145.865 32.4623 145.248 31.9333C144.621 31.4235 143.58 30.7695 142.106 29.9904C140.978 29.394 140.082 28.865 139.416 28.3937C138.751 27.932 138.212 27.3742 137.807 26.7105C137.392 26.0564 137.199 25.2581 137.199 24.3155C137.199 22.9016 137.701 21.7281 138.732 20.7951C139.754 19.8718 141.209 19.4101 143.118 19.4101C143.908 19.4101 144.785 19.5255 145.749 19.7659C146.703 19.9968 147.532 20.3142 148.226 20.7086L148.448 24.0077Z" fill="#2B2A29"/><path fill-rule="evenodd" clip-rule="evenodd" d="M0 35.7326C3.35432 32.7028 6.80504 30.7118 10.2076 28.2975C11.904 27.0856 13.7065 25.941 15.6246 24.8541L21.8127 8.37768C22.2465 7.52164 22.4682 6.75216 22.4682 6.05002C22.4682 5.22283 21.832 4.80923 20.5597 4.80923H19.9139V3.14524C21.0609 3.06829 21.9862 2.92401 22.6995 2.74126C23.4224 2.53928 24.0972 2.2411 24.7622 1.82751C25.4273 1.41391 26.2273 0.798333 27.172 0H29.3696L30.266 1.96217L35.7313 16.7458C62.2478 9.36839 99.6369 9.15678 145.084 17.621C124.158 13.5043 72.8987 10.2437 36.5795 19.0349L40.4254 29.4325C40.8688 31.2408 41.6013 32.7028 42.6231 33.8185C43.0857 34.2706 43.5387 34.5688 43.9629 34.7034C44.387 34.8285 45.0328 34.8958 45.8906 34.8958V37.5024H31.9336V34.8958H33.5818C34.1505 34.8958 34.4686 34.713 34.5457 34.3572V33.934C34.4975 33.934 34.4011 33.5781 34.2372 32.8567C31.4323 25.0176 31.0371 24.1039 29.7841 20.8721C26.1502 21.9782 22.7188 23.2286 19.5476 24.6329C18.9114 26.3642 18.1307 28.4899 16.762 32.1545C16.6945 32.5777 16.5017 33.2029 16.1644 34.059V34.4726C16.3475 34.7515 16.8102 34.8958 17.5331 34.8958H18.9114V37.5024H8.07737V34.8958C9.55211 34.8092 10.5353 34.6072 11.0076 34.2995C11.4895 34.0109 12.01 33.4242 12.598 32.5777C12.8679 32.1064 13.0799 31.6351 13.2631 31.1542C13.4366 30.6637 13.5233 30.404 13.5522 30.3751L14.8438 26.9317C14.4968 27.1145 14.1499 27.2972 13.8221 27.4896C9.92803 29.7018 4.11579 32.6355 0 35.7326ZM20.3573 22.3918C23.0658 21.1029 25.9478 19.9295 29.0033 18.8522C28.2611 16.9093 27.2298 14.1872 25.6297 9.84931H24.9647C22.2658 17.1209 21.2537 19.9198 20.3573 22.3918Z" fill="#E31E24"/></svg>