<svg width="26" height="15" viewBox="0 0 26 15" xmlns="http://www.w3.org/2000/svg"><path d="M22.4259 3.91614C17.2044 -1.30538 8.70912 -1.30538 3.4876 3.91614L0 7.4033L3.57412 10.9774C6.18466 13.588 9.61385 14.8937 13.0435 14.8937C16.4731 14.8937 19.9019 13.5884 22.5128 10.9774L26.0004 7.48982L22.4259 3.91614ZM21.8914 10.3564C17.0124 15.2349 9.07409 15.2349 4.19513 10.3564L1.24203 7.4033L4.10861 4.53671C8.98757 -0.341799 16.9259 -0.341799 21.8049 4.53671L24.758 7.48982L21.8914 10.3564Z M12.5484 3.9201C10.8531 3.9201 9.47403 5.29915 9.47403 6.99442C9.47403 7.23685 9.67079 7.43361 9.91322 7.43361C10.1557 7.43361 10.3524 7.23685 10.3524 6.99442C10.3524 5.78358 11.3375 4.79847 12.5484 4.79847C12.7908 4.79847 12.9875 4.60172 12.9875 4.35928C12.9875 4.11685 12.7912 3.9201 12.5484 3.9201Z M12.9876 1.72415C9.83946 1.72415 7.27811 4.2855 7.27811 7.43361C7.27811 10.5817 9.83946 13.1431 12.9876 13.1431C16.1357 13.1431 18.697 10.5817 18.697 7.43361C18.697 4.2855 16.1361 1.72415 12.9876 1.72415ZM12.9876 12.2647C10.3239 12.2647 8.15649 10.0973 8.15649 7.43361C8.15649 4.76993 10.3239 2.60253 12.9876 2.60253C15.6512 2.60253 17.8186 4.76993 17.8186 7.43361C17.8186 10.0973 15.6517 12.2647 12.9876 12.2647Z"/></svg>