<svg width="26" height="26" viewBox="0 0 26 26" xmlns="http://www.w3.org/2000/svg"><path d="M19.1641 18.5859C19.725 18.5859 20.1797 18.1312 20.1797 17.5703C20.1797 17.0094 19.725 16.5547 19.1641 16.5547C18.6031 16.5547 18.1484 17.0094 18.1484 17.5703C18.1484 18.1312 18.6031 18.5859 19.1641 18.5859Z M23.7344 18.3828C24.2953 18.3828 24.75 17.9281 24.75 17.3672V13.6094C24.75 11.3693 22.9276 9.54688 20.6875 9.54688H19.4669V5.96507C19.4669 2.67592 16.7332 0 13.3731 0C10.013 0 7.27937 2.67592 7.27937 5.96507V9.54688H6.0625C3.82244 9.54688 2 11.3693 2 13.6094V21.9375C2 24.1776 3.82244 26 6.0625 26H20.6875C22.9276 26 24.75 24.1776 24.75 21.9375C24.75 21.3766 24.2953 20.9219 23.7344 20.9219C23.1734 20.9219 22.7188 21.3766 22.7188 21.9375C22.7188 23.0575 21.8075 23.9688 20.6875 23.9688H6.0625C4.94247 23.9688 4.03125 23.0575 4.03125 21.9375V13.6094C4.03125 12.4893 4.94247 11.5781 6.0625 11.5781H20.6875C21.8075 11.5781 22.7188 12.4893 22.7188 13.6094V17.3672C22.7188 17.9281 23.1734 18.3828 23.7344 18.3828ZM17.4356 9.54688H9.31062V5.96507C9.31062 3.79595 11.1331 2.03125 13.3731 2.03125C15.6132 2.03125 17.4356 3.79595 17.4356 5.96507V9.54688Z M11.4961 18.5859C12.057 18.5859 12.5117 18.1312 12.5117 17.5703C12.5117 17.0094 12.057 16.5547 11.4961 16.5547C10.9352 16.5547 10.4805 17.0094 10.4805 17.5703C10.4805 18.1312 10.9352 18.5859 11.4961 18.5859Z M7.6875 18.5859C8.24841 18.5859 8.70312 18.1312 8.70312 17.5703C8.70312 17.0094 8.24841 16.5547 7.6875 16.5547C7.12659 16.5547 6.67188 17.0094 6.67188 17.5703C6.67188 18.1312 7.12659 18.5859 7.6875 18.5859Z M15.3047 18.5859C15.8656 18.5859 16.3203 18.1312 16.3203 17.5703C16.3203 17.0094 15.8656 16.5547 15.3047 16.5547C14.7438 16.5547 14.2891 17.0094 14.2891 17.5703C14.2891 18.1312 14.7438 18.5859 15.3047 18.5859Z"/></svg>