<svg width="26" height="26" viewBox="0 0 26 26" xmlns="http://www.w3.org/2000/svg"><path d="M10.3945 23.9688H5.0625C3.94247 23.9688 3.03125 23.0575 3.03125 21.9375V13.6094C3.03125 12.4893 3.94247 11.5781 5.0625 11.5781H19.6875C20.8075 11.5781 21.7188 12.4893 21.7188 13.6094V14.6758C21.7188 15.2367 22.1734 15.6914 22.7344 15.6914C23.2953 15.6914 23.75 15.2367 23.75 14.6758V13.6094C23.75 11.3693 21.9276 9.54688 19.6875 9.54688H18.4669V5.96507C18.4669 2.67592 15.7332 0 12.3731 0C9.01303 0 6.27937 2.67592 6.27937 5.96507V9.54688H5.0625C2.82244 9.54688 1 11.3693 1 13.6094V21.9375C1 24.1776 2.82244 26 5.0625 26H10.3945C10.9555 26 11.4102 25.5453 11.4102 24.9844C11.4102 24.4234 10.9555 23.9688 10.3945 23.9688ZM8.31062 5.96507C8.31062 3.79595 10.1331 2.03125 12.3731 2.03125C14.6132 2.03125 16.4356 3.79595 16.4356 5.96507V9.54688H8.31062V5.96507Z M10.4961 18.5859C11.057 18.5859 11.5117 18.1312 11.5117 17.5703C11.5117 17.0094 11.057 16.5547 10.4961 16.5547C9.93518 16.5547 9.48047 17.0094 9.48047 17.5703C9.48047 18.1312 9.93518 18.5859 10.4961 18.5859Z M25.1396 20.4904C25.1039 20.4396 24.9814 20.2662 24.9053 20.1705C24.5652 19.7428 23.769 18.7412 22.6611 17.857C21.2406 16.7232 19.7789 16.1484 18.3164 16.1484C16.854 16.1484 15.3922 16.7232 13.9718 17.8569C12.8637 18.7412 12.0675 19.7427 11.7279 20.17C11.6516 20.2659 11.529 20.4394 11.4932 20.4903C11.2471 20.8406 11.247 21.3077 11.4931 21.6579C11.5289 21.7089 11.6515 21.8825 11.7276 21.978C12.0675 22.4057 12.8637 23.4072 13.9717 24.2915C15.3922 25.4252 16.854 26 18.3164 26C19.7789 26 21.2406 25.4252 22.6611 24.2916C23.769 23.4073 24.5653 22.4058 24.9054 21.9779C24.9815 21.8821 25.1039 21.7089 25.1396 21.6581C25.3858 21.3078 25.3858 20.8407 25.1396 20.4904ZM18.3164 23.9688C16.8079 23.9688 15.2268 22.9956 13.6119 21.0742C15.2267 19.1529 16.8078 18.1797 18.3164 18.1797C19.8248 18.1797 21.4061 19.1531 23.0209 21.0743C21.406 22.9955 19.8249 23.9688 18.3164 23.9688Z M6.6875 18.5859C7.24841 18.5859 7.70312 18.1312 7.70312 17.5703C7.70312 17.0094 7.24841 16.5547 6.6875 16.5547C6.12659 16.5547 5.67188 17.0094 5.67188 17.5703C5.67188 18.1312 6.12659 18.5859 6.6875 18.5859Z M18.3672 23.0039C19.4329 23.0039 20.2969 22.14 20.2969 21.0742C20.2969 20.0085 19.4329 19.1445 18.3672 19.1445C17.3015 19.1445 16.4375 20.0085 16.4375 21.0742C16.4375 22.14 17.3015 23.0039 18.3672 23.0039Z"/></svg>