<svg width="40" height="40" viewBox="0 0 40 40" xmlns="http://www.w3.org/2000/svg"><path fill-rule="evenodd" clip-rule="evenodd" d="M3 0C1.34315 0 0 1.34315 0 3V37C0 38.6569 1.34315 40 3 40H37C38.6569 40 40 38.6569 40 37V3C40 1.34315 38.6569 0 37 0H3ZM14.4866 15C14.4866 12.2425 16.92 10 19.9122 10C22.9043 10 25.3377 12.2425 25.3377 15C25.3377 17.7575 22.9043 20 19.9122 20C16.92 20 14.4866 17.7575 14.4866 15ZM15.843 15C15.843 17.0675 17.6687 18.75 19.9122 18.75C22.1556 18.75 23.9813 17.0675 23.9813 15C23.9813 12.9325 22.1556 11.25 19.9122 11.25C17.6687 11.25 15.843 12.9325 15.843 15ZM18.6715 23.6704C16.6691 23.4289 14.734 22.6004 13.1984 21.1862C12.9339 20.9424 12.9339 20.5462 13.1984 20.3024C13.4629 20.0587 13.8928 20.0587 14.1573 20.3024C17.3299 23.2274 22.4909 23.2274 25.6662 20.3024C25.9307 20.0587 26.3607 20.0587 26.6252 20.3024C26.8897 20.5462 26.8897 20.9424 26.6252 21.1862C25.0912 22.5998 23.1573 23.4283 21.1558 23.6702L25.2165 29.0162C25.4321 29.3 25.3575 29.6887 25.051 29.8862C24.9303 29.9637 24.796 30 24.6604 30C24.4474 30 24.2372 29.9075 24.1056 29.7337L19.913 24.215L15.7218 29.7337C15.5075 30.0162 15.0843 30.085 14.7778 29.8862C14.4699 29.6887 14.3967 29.2987 14.611 29.0162L18.6715 23.6704Z"/></svg>