<svg width="40" height="40" viewBox="0 0 40 40" xmlns="http://www.w3.org/2000/svg"><path fill-rule="evenodd" clip-rule="evenodd" d="M3 0C1.34315 0 0 1.34315 0 3V37C0 38.6569 1.34315 40 3 40H37C38.6569 40 40 38.6569 40 37V3C40 1.34315 38.6569 0 37 0H3ZM12.9297 30C11.3142 30 10 28.6858 10 27.0703V12.9297C10 11.3142 11.3142 10 12.9297 10H27.0703C28.6858 10 30 11.3142 30 12.9297V27.0703C30 28.6858 28.6858 30 27.0703 30H12.9297ZM12.9297 11.1719C11.9604 11.1719 11.1719 11.9604 11.1719 12.9297V27.0703C11.1719 28.0396 11.9604 28.8281 12.9297 28.8281H27.0703C28.0396 28.8281 28.8281 28.0396 28.8281 27.0703V12.9297C28.8281 11.9604 28.0396 11.1719 27.0703 11.1719H12.9297ZM20 25.2734C22.9077 25.2734 25.2734 22.9077 25.2734 20C25.2734 17.0923 22.9077 14.7266 20 14.7266C17.0923 14.7266 14.7266 17.0923 14.7266 20C14.7266 22.9077 17.0923 25.2734 20 25.2734ZM20 15.8984C22.2617 15.8984 24.1016 17.7383 24.1016 20C24.1016 22.2617 22.2617 24.1016 20 24.1016C17.7383 24.1016 15.8984 22.2617 15.8984 20C15.8984 17.7383 17.7383 15.8984 20 15.8984ZM27.6172 14.1406C27.6172 15.1099 26.8286 15.8984 25.8594 15.8984C24.8901 15.8984 24.1016 15.1099 24.1016 14.1406C24.1016 13.1714 24.8901 12.3828 25.8594 12.3828C26.8286 12.3828 27.6172 13.1714 27.6172 14.1406ZM26.4453 14.1406C26.4453 13.8176 26.1824 13.5547 25.8594 13.5547C25.5363 13.5547 25.2734 13.8176 25.2734 14.1406C25.2734 14.4637 25.5363 14.7266 25.8594 14.7266C26.1824 14.7266 26.4453 14.4637 26.4453 14.1406Z"/></svg>