<svg width="32" height="32" viewBox="0 0 32 32" xmlns="http://www.w3.org/2000/svg"><path fill-rule="evenodd" clip-rule="evenodd" d="M0 3C0 1.34315 1.34315 0 3 0H29C30.6569 0 32 1.34315 32 3V29C32 30.6569 30.6569 32 29 32H3C1.34315 32 0 30.6569 0 29V3ZM20.8477 11.7805L12.9516 16.6438C12.5047 16.9196 12.2933 17.4644 12.4372 17.9683L13.291 20.9683C13.364 21.224 13.5916 21.3941 13.8535 21.3941C13.8681 21.3941 13.8828 21.3935 13.8976 21.3924C14.1775 21.3721 14.3991 21.1636 14.4363 20.8856L14.6583 19.2407C14.6882 19.0194 14.7949 18.8135 14.9583 18.6614L21.4743 12.6044C21.6713 12.4218 21.6973 12.1228 21.535 11.9089C21.3725 11.6949 21.0772 11.6396 20.8477 11.7805ZM14.4373 18.1013C14.1445 18.3738 13.9538 18.7421 13.9002 19.1383L13.7926 19.9362L13.1728 17.7586C13.1225 17.5822 13.1966 17.3914 13.353 17.2949L19.1375 13.7323L14.4373 18.1013ZM24.399 8.46064C24.7005 8.34416 25.0409 8.40172 25.2876 8.61082C25.5347 8.82025 25.6473 9.14717 25.5816 9.46403L22.4531 24.5127C22.3919 24.8071 22.1878 25.0478 21.9071 25.1563C21.8033 25.1964 21.6951 25.2162 21.5877 25.2162C21.4043 25.2162 21.223 25.1587 21.0693 25.047L16.7988 21.9465C16.6801 21.8603 16.5178 21.8649 16.4041 21.9576L14.0364 23.8878C13.8093 24.0735 13.5055 24.134 13.2241 24.0494C12.9427 23.9647 12.7225 23.7465 12.6353 23.4657L11.0469 18.3574L6.97487 16.8376C6.62759 16.7075 6.40233 16.3842 6.40053 16.0139C6.39877 15.644 6.62076 15.3189 6.96602 15.1858L24.399 8.46064ZM21.7042 24.3572L24.8326 9.3086C24.845 9.2489 24.8132 9.2114 24.7931 9.19434C24.7732 9.17747 24.7313 9.15234 24.6747 9.1742L24.6744 9.17432L7.24137 15.8994C7.17837 15.9237 7.16532 15.9731 7.16551 16.0102C7.1657 16.0477 7.17923 16.0973 7.24283 16.1211L11.4902 17.7063C11.601 17.7477 11.6865 17.8381 11.7216 17.9511L13.3658 23.2386C13.3821 23.291 13.4221 23.3101 13.4445 23.3169C13.4668 23.3236 13.5105 23.3297 13.5527 23.2952L15.9209 21.3646C16.1204 21.2021 16.3645 21.1201 16.6089 21.1201C16.8329 21.1201 17.0574 21.189 17.2483 21.3276L21.519 24.4282C21.5644 24.4612 21.6088 24.4516 21.6313 24.4429C21.6537 24.4342 21.6928 24.4116 21.7042 24.3572ZM22.4306 16.6639C22.2241 16.6191 22.0205 16.7501 21.9757 16.9565L21.9176 17.2243C21.8728 17.4307 22.0038 17.6344 22.2102 17.6792C22.2376 17.6851 22.2648 17.688 22.2917 17.688C22.4678 17.688 22.6262 17.5656 22.6652 17.3866L22.7233 17.1188C22.7681 16.9124 22.637 16.7088 22.4306 16.6639ZM21.5931 18.7184C21.6379 18.512 21.8413 18.381 22.048 18.4258C22.2544 18.4706 22.3855 18.6743 22.3406 18.8807L21.461 22.9325C21.422 23.1116 21.2636 23.2339 21.0875 23.2339C21.0607 23.2339 21.0334 23.2311 21.006 23.2252C20.7996 23.1803 20.6686 22.9767 20.7134 22.7703L21.5931 18.7184Z"/></svg>