<svg width="32" height="32" viewBox="0 0 32 32" xmlns="http://www.w3.org/2000/svg"><path fill-rule="evenodd" clip-rule="evenodd" d="M0 3C0 1.34315 1.34315 0 3 0H29C30.6569 0 32 1.34315 32 3V29C32 30.6569 30.6569 32 29 32H3C1.34315 32 0 30.6569 0 29V3ZM8.2382 23.9585C8.14173 24.1514 8.2382 24.3444 8.33466 24.4408C8.52763 24.5373 8.72056 24.5373 8.91352 24.5373L11.8078 23.4761C13.2549 24.4408 14.9914 24.9232 16.728 24.9232C21.8412 24.9232 25.9896 20.7748 25.9896 15.6616C25.9896 10.5484 21.8412 6.4 16.728 6.4C11.6148 6.4 7.46641 10.5484 7.46641 15.6616C7.46641 17.5911 8.04527 19.5206 9.20296 21.0642L8.2382 23.9585ZM8.43116 15.5651C8.43116 10.9343 12.1937 7.26829 16.728 7.26829C21.2623 7.26829 25.0249 11.0308 25.0249 15.5651C25.0249 20.0995 21.2623 23.862 16.728 23.862C15.0879 23.862 13.4478 23.3796 12.0972 22.5113C12.0007 22.4149 11.9042 22.4149 11.8078 22.4149H11.6148L9.39584 23.2832L10.1676 21.0643C10.247 20.9055 10.1958 20.812 10.1214 20.6764C10.1053 20.6472 10.0883 20.6161 10.0712 20.5819C9.01003 19.1347 8.43116 17.3982 8.43116 15.5651ZM18.7666 21.299C18.6997 21.2852 18.6313 21.2711 18.5608 21.257C18.5446 21.2489 18.4931 21.2326 18.4112 21.2068C17.5171 20.9248 13.0043 19.5015 11.3252 15.0826C11.3252 15.0826 10.071 12.5743 11.7111 10.9342C12.3864 10.2588 12.9653 9.96941 13.4476 9.96941C13.8336 9.96941 14.2195 10.2588 14.3159 10.4518L15.2807 12.7672C15.4736 13.0566 15.6666 13.8284 14.8948 14.5037C14.5457 14.8528 14.5913 14.8861 14.8888 15.1035C14.9202 15.1264 14.9544 15.1514 14.9912 15.1791L15.0877 15.2755C15.5701 15.9508 16.6313 17.3015 18.0784 17.7839H18.1749C18.3679 17.7839 18.4643 17.6874 18.4643 17.6874C18.4643 17.6874 19.0432 16.6262 20.008 16.6262C20.2008 16.6262 20.3936 16.7226 20.5865 16.819L20.5868 16.8191L22.0339 17.5909C22.0512 17.6081 22.0806 17.6315 22.1186 17.6615C22.2933 17.7999 22.6472 18.0801 22.8057 18.5557C22.9022 19.0381 22.8057 19.5204 22.5163 20.0993C21.9374 20.9676 21.0691 21.45 19.9115 21.45C19.4996 21.45 19.158 21.3796 18.7666 21.299ZM13.4476 10.9341C13.3511 10.9341 12.9652 10.9341 12.3864 11.6095C11.2287 12.8636 12.1934 14.7932 12.2898 14.6002C14.0264 18.845 18.7536 20.0992 18.9466 20.0992C20.2972 20.3887 21.262 20.1957 21.7444 19.3274C21.7574 19.3014 21.7721 19.2737 21.7877 19.2444C21.8876 19.0564 22.0208 18.8061 21.9373 18.5556C21.8409 18.3627 21.6479 18.2662 21.6479 18.2662L20.2008 17.5909C19.8149 17.398 19.3325 17.8803 19.236 18.1698C18.9466 18.5556 18.5607 18.7486 18.0783 18.7486H17.6924C15.9559 18.2663 14.7017 16.6262 14.2193 15.9508L14.1229 15.8544C13.6405 15.2755 13.3511 14.6967 14.3158 13.8284C14.5558 13.5884 14.5305 13.4147 14.5148 13.3074C14.5116 13.2853 14.5088 13.266 14.5088 13.2495L13.4476 10.9341Z"/></svg>