<svg width="40" height="40" viewBox="0 0 40 40" xmlns="http://www.w3.org/2000/svg"><path fill-rule="evenodd" clip-rule="evenodd" d="M3 0C1.34315 0 0 1.34315 0 3V37C0 38.6569 1.34315 40 3 40H37C38.6569 40 40 38.6569 40 37V3C40 1.34315 38.6569 0 37 0H3ZM17.8089 30H21.0117C21.5467 30 21.982 29.5648 21.982 29.0298V21.8056H24.266C24.8009 21.8056 25.2361 21.3704 25.2361 20.8357L25.2373 17.7402C25.2373 17.3888 25.046 17.0636 24.7382 16.8916C24.5956 16.812 24.4295 16.7697 24.2582 16.7697H21.982V15.545C21.982 15.146 22.0356 15.0015 22.0806 14.9504C22.1079 14.9196 22.2356 14.819 22.7372 14.819L24.3818 14.8184C24.9166 14.8184 25.3516 14.3832 25.3516 13.8483V10.9741C25.3516 10.4401 24.9172 10.0049 24.3831 10.004L21.9405 10C20.433 10 19.1514 10.4973 18.2343 11.4383C17.3214 12.375 16.8387 13.6827 16.8387 15.2197V16.7699H14.9702C14.4352 16.7699 14 17.205 14 17.74V20.8356C14 21.3704 14.4352 21.8057 14.9702 21.8057H16.8387V29.0298C16.8387 29.5648 17.2739 30 17.8089 30ZM20.8094 28.8275H18.0112V21.2808C18.0112 20.9236 17.7207 20.6331 17.3636 20.6331H15.1725V17.9424H17.3636C17.7207 17.9424 18.0112 17.6517 18.0112 17.2946V15.2197C18.0112 12.7234 19.5168 11.1725 21.9396 11.1725L24.1791 11.1761V13.6459L22.7369 13.6465C22.2779 13.6465 21.6195 13.7012 21.2017 14.1745C20.8559 14.566 20.8094 15.087 20.8094 15.545V17.2946C20.8094 17.6518 21.0999 17.9424 21.457 17.9424H24.0647L24.0636 20.6331H21.4571C21.1001 20.6331 20.8094 20.9236 20.8094 21.2808V28.8275Z"/></svg>