<svg width="40" height="40" viewBox="0 0 40 40" xmlns="http://www.w3.org/2000/svg"><path fill-rule="evenodd" clip-rule="evenodd" d="M3 0C1.34315 0 0 1.34315 0 3V37C0 38.6569 1.34315 40 3 40H37C38.6569 40 40 38.6569 40 37V3C40 1.34315 38.6569 0 37 0H3ZM30.0928 22.5859C30.7663 23.2807 31.4627 23.9991 32.0791 24.8037C32.4186 25.2495 32.8047 25.7881 33.1022 26.4139C33.3874 27.0159 33.3916 27.6949 33.1137 28.2309C32.8829 28.6761 32.4898 28.9502 32.0353 28.9832C32.0228 28.9841 32.0102 28.9845 31.9977 28.9845H31.9975L28.0564 28.9825C26.9596 29.0743 25.9679 28.6362 25.1076 27.6811C24.7274 27.2593 24.3645 26.817 24.0136 26.3894L24.0131 26.3888L23.9916 26.3626L23.9915 26.3625C23.8333 26.1698 23.6703 25.9713 23.509 25.7789C23.3425 25.581 23.1401 25.3555 22.9051 25.1893C22.7765 25.0983 22.6609 25.0548 22.5957 25.0725C22.5343 25.0894 22.4565 25.1812 22.3875 25.3183C22.141 25.8078 22.0699 26.3712 22.039 27.0667C21.9839 28.3827 21.4792 28.9201 20.2387 28.9817C20.003 28.9939 19.7703 29 19.5417 29C17.531 29.0001 15.7978 28.5307 14.261 27.5731C12.7983 26.6616 11.5304 25.3714 10.2708 23.5127C8.48198 20.8725 6.91418 17.8303 5.18754 13.6483C4.946 13.0627 4.93775 12.5699 5.16296 12.1835C5.3879 11.7977 5.79936 11.5965 6.38611 11.5854C7.63012 11.5591 8.90617 11.5585 10.2859 11.5835C11.0101 11.5951 11.575 12.0423 11.8754 12.8431C12.6051 14.7972 13.4451 16.4933 14.4437 18.0289L14.444 18.0294C14.6939 18.4135 14.9523 18.8108 15.2953 19.0663C15.3508 19.1077 15.391 19.1295 15.4167 19.1408C15.4329 19.116 15.456 19.0739 15.4824 19.006C15.5776 18.7606 15.6366 18.4656 15.6683 18.0774C15.782 16.6316 15.7631 15.4374 15.6086 14.3211C15.5305 13.7466 15.278 13.4461 14.7899 13.3452C14.6513 13.3166 14.2291 13.2295 14.0874 12.7931C13.9474 12.362 14.222 12.0093 14.3255 11.8763L14.3257 11.8761C14.683 11.4204 15.1288 11 15.9716 11H20.4512C20.4879 11 20.5245 11.0039 20.5605 11.0116C21.6841 11.2531 21.8724 12.0283 21.969 12.8015C21.9724 12.8288 21.9741 12.8564 21.9741 12.8839L21.978 18.3037L21.9777 18.3215C21.9715 18.5628 22.1073 19.0235 22.225 19.104C22.2868 19.0719 22.4071 18.932 22.4811 18.846L22.4812 18.8459L22.4818 18.8452L22.5301 18.7893C23.6162 17.5337 24.3656 16.0268 24.9553 14.7184C25.2636 14.0407 25.5296 13.3262 25.7549 12.7097C26.0364 11.9379 26.5529 11.5535 27.2974 11.567L31.6039 11.5711C31.7522 11.5711 31.9116 11.5737 32.0796 11.6051C32.4235 11.6689 32.9115 11.8081 33.1748 12.278C33.4379 12.7477 33.3288 13.2828 33.2238 13.6444C32.8559 14.9056 32.1695 15.9405 31.5056 16.9413L31.4292 17.0565C31.0889 17.5693 30.7339 18.0793 30.3905 18.5724C30.0042 19.1272 29.6049 19.7008 29.2302 20.2735C28.9796 20.6543 28.8707 20.9119 28.8867 21.0855C28.9029 21.2622 29.0581 21.5013 29.3753 21.8382L29.3754 21.8384C29.6071 22.0848 29.8475 22.3328 30.0803 22.5731L30.0804 22.5731L30.0804 22.5732L30.0928 22.5859ZM31.9747 27.7549C32.0093 27.7503 32.0763 27.7312 32.1306 27.6263C32.197 27.4982 32.2288 27.2516 32.0995 26.9787C31.8516 26.4574 31.5116 25.9843 31.2116 25.5904C30.639 24.843 29.9974 24.1811 29.3182 23.4804L29.3167 23.4788C29.0769 23.2316 28.8291 22.9758 28.5873 22.7187C27.5641 21.6316 27.492 20.8048 28.3119 19.5587C28.6954 18.9724 29.0999 18.3914 29.4912 17.8295L29.4991 17.8182L29.4992 17.818L29.4997 17.8174C29.8365 17.3335 30.1845 16.8336 30.5142 16.3366L30.5907 16.2213L30.5911 16.2207C31.2308 15.2562 31.8351 14.3452 32.1478 13.2731C32.2099 13.0592 32.2106 12.9567 32.2077 12.921C32.1798 12.9018 32.0951 12.8554 31.8897 12.8173C31.8085 12.8022 31.7038 12.8009 31.6035 12.8009L27.2916 12.7967L27.2812 12.7966C27.0273 12.7908 26.921 12.8436 26.8041 13.1642C26.5704 13.8036 26.2941 14.5454 25.9679 15.2625C25.342 16.6511 24.5408 18.2582 23.351 19.6336L23.306 19.6858C23.0532 19.98 22.5822 20.5274 21.8702 20.274C21.8637 20.2717 21.8573 20.2693 21.8508 20.2667C21.0688 19.9536 20.8391 18.8119 20.849 18.2972L20.8453 12.9273C20.8202 12.7355 20.7793 12.4901 20.7077 12.3864L20.7076 12.3863C20.6907 12.3619 20.6414 12.2906 20.3928 12.2298H15.9717C15.7914 12.2298 15.6616 12.2571 15.5463 12.3224C16.1952 12.643 16.6071 13.2706 16.7253 14.1395C16.8932 15.3523 16.9148 16.638 16.7931 18.1845C16.7506 18.7058 16.6646 19.1183 16.5224 19.4847C16.302 20.053 15.9748 20.2622 15.739 20.3375C15.5034 20.4127 15.1245 20.4294 14.6576 20.0812C14.148 19.7013 13.8011 19.1682 13.5225 18.7399L13.5225 18.7398C12.4731 17.1261 11.5925 15.3492 10.8301 13.3074C10.6687 12.8773 10.4555 12.8161 10.2684 12.8131C8.90108 12.7882 7.63836 12.789 6.40697 12.8149C6.25908 12.8179 6.17473 12.8382 6.13156 12.8536C6.13704 12.9033 6.15597 12.9959 6.21729 13.1444C7.90957 17.2432 9.43995 20.2157 11.1793 22.7826C12.3424 24.499 13.4999 25.6822 14.8217 26.5059C16.3412 27.4528 18.0958 27.8607 20.1867 27.7536C20.6218 27.732 20.7522 27.6609 20.7912 27.6206C20.821 27.5898 20.8923 27.4685 20.9115 27.0093C20.9448 26.2586 21.0267 25.4639 21.3977 24.7273C21.6842 24.158 22.0573 23.9524 22.3199 23.8803C22.5851 23.8075 23.0088 23.7966 23.52 24.158C23.8614 24.3995 24.1271 24.6934 24.3421 24.9491C24.5112 25.1507 24.6795 25.3557 24.8425 25.5544L24.8549 25.5695C25.1973 25.9868 25.5514 26.4182 25.9133 26.8198C26.5514 27.5282 27.2112 27.8254 27.9875 27.755C28.0029 27.7535 28.0185 27.7529 28.034 27.7529H28.0344L31.9747 27.7549ZM9.11608 14.7936C9.03316 14.615 8.95097 14.4358 8.86956 14.2563C8.73141 13.9519 8.39312 13.8269 8.11344 13.9773C7.83393 14.1277 7.71925 14.4964 7.85734 14.8009C7.94031 14.9838 8.02405 15.1663 8.10846 15.3483C8.20781 15.5625 8.40657 15.6859 8.61268 15.6859C8.69825 15.6859 8.7852 15.6646 8.86684 15.6197C9.14519 15.4665 9.25672 15.0967 9.11608 14.7936ZM10.0098 16.6363C10.8655 18.3224 11.7315 19.8061 12.6571 21.1721C12.8422 21.4454 12.789 21.8303 12.5382 22.0319C12.4373 22.1131 12.3199 22.1522 12.2034 22.1522C12.0303 22.1522 11.8595 22.0658 11.7488 21.9024C10.7936 20.4928 9.90154 18.9648 9.02172 17.2312C8.8709 16.9341 8.96986 16.56 9.24267 16.3957C9.51548 16.2315 9.85898 16.3391 10.0098 16.6363Z"/></svg>