<svg width="32" height="32" viewBox="0 0 32 32" xmlns="http://www.w3.org/2000/svg"><path fill-rule="evenodd" clip-rule="evenodd" d="M0 3C0 1.34315 1.34315 0 3 0H29C30.6569 0 32 1.34315 32 3V29C32 30.6569 30.6569 32 29 32H3C1.34315 32 0 30.6569 0 29V3ZM21.539 15.0416C21.5601 12.5634 19.4579 10.2927 16.8535 9.97982L16.3247 9.91545C16.3111 9.91378 16.2973 9.91298 16.2836 9.91298C15.7439 9.91298 15.3686 10.2285 15.2798 10.7571C15.2176 11.1277 15.3314 11.3783 15.438 11.5232C15.6888 11.8642 16.0906 11.9192 16.3561 11.9556L16.3614 11.9563L16.365 11.9567C16.4229 11.9648 16.4773 11.9723 16.5158 11.981C18.5816 12.4426 19.2042 13.0913 19.5435 15.1361C19.5494 15.1717 19.553 15.2308 19.5566 15.288L19.5566 15.289L19.5566 15.2891C19.5657 15.4381 19.5808 15.6873 19.6939 15.9164C19.8506 16.2336 20.1459 16.4083 20.5253 16.4083C20.5907 16.4083 20.6599 16.4028 20.7308 16.392C21.0836 16.3384 21.3429 16.1383 21.4611 15.8287C21.5462 15.6058 21.5403 15.3791 21.5356 15.2398L21.5389 15.0446L21.539 15.0416ZM20.8556 15.2544C20.8681 15.6183 20.807 15.6927 20.6285 15.7198C20.5912 15.7254 20.5565 15.7283 20.5252 15.7283C20.3479 15.7283 20.2615 15.6809 20.2353 15.2479L20.2352 15.2463C20.2306 15.1719 20.2259 15.095 20.2143 15.0249C20.0127 13.8103 19.6993 13.0548 19.1662 12.4986C18.6343 11.9437 17.886 11.5904 16.6645 11.3175C16.5982 11.3026 16.5289 11.293 16.4557 11.2829L16.4556 11.2829L16.4542 11.2827L16.4486 11.282C16.2693 11.2574 16.0661 11.2296 15.9858 11.1204C15.9702 11.0992 15.9227 11.0346 15.9503 10.8698C15.9895 10.6369 16.1226 10.5963 16.2646 10.5932L16.7718 10.6549C19.0432 10.9278 20.8763 12.8921 20.859 15.0343L20.8555 15.2368C20.8553 15.2426 20.8554 15.2486 20.8556 15.2544ZM24.0721 15.1591L24.0723 15.1645L24.0723 15.1646C24.0848 15.4421 24.1037 15.8616 23.8062 16.1727C23.6292 16.3579 23.382 16.4559 23.0912 16.4559L23.0872 16.4558L23.0675 16.4556C22.6607 16.4478 22.3543 16.2552 22.202 15.9133C22.0917 15.6657 22.0873 15.3971 22.0847 15.2366L22.0847 15.2365C22.0837 15.1695 22.0826 15.1004 22.0771 15.057C21.6358 11.5669 20.1147 9.99955 16.6522 9.46706C16.614 9.46123 16.557 9.45709 16.5019 9.45313C16.3487 9.44196 16.093 9.42329 15.8635 9.30819C15.5377 9.14474 15.3704 8.84233 15.3925 8.45661C15.4276 7.84594 15.8322 7.46666 16.4485 7.46666L16.457 7.46676L16.8675 7.47699C18.7246 7.53963 20.5745 8.39957 21.946 9.83635C23.3174 11.2731 24.0909 13.1613 24.068 15.0168C24.0675 15.0551 24.0697 15.1045 24.072 15.157L24.0721 15.1591ZM23.093 15.7759C23.2454 15.7755 23.2975 15.721 23.3147 15.7029C23.4114 15.6018 23.4016 15.3857 23.393 15.195L23.3928 15.1895C23.3899 15.1261 23.3873 15.0663 23.388 15.0081C23.4316 11.4776 20.3754 8.2758 16.8476 8.15673L16.4445 8.14666C16.2323 8.14736 16.0879 8.20776 16.0713 8.49551C16.0627 8.64642 16.0813 8.74066 16.5509 8.77493L16.5513 8.77495L16.5514 8.77496C16.6196 8.77988 16.6902 8.78498 16.7553 8.79496C18.6732 9.08994 20.0157 9.69011 20.9802 10.6838C21.9444 11.6772 22.5074 13.0398 22.7517 14.9718C22.7618 15.0523 22.7632 15.1401 22.7646 15.2251L22.7646 15.2255C22.7722 15.6942 22.8632 15.7716 23.0781 15.7758L23.093 15.7759ZM22.4472 19.4303C22.3765 19.3763 22.2964 19.3151 22.2244 19.2572C22.2201 19.2536 22.2156 19.2502 22.211 19.2468L20.7449 18.1821L20.7405 18.179C20.1637 17.7738 19.6344 17.5769 19.1223 17.5769C18.4087 17.5769 17.7969 17.9554 17.3038 18.7021C17.1453 18.9422 17.0043 18.9746 16.8874 18.9746C16.7709 18.9746 16.6245 18.9361 16.4641 18.8633C14.8713 18.141 13.7353 17.0369 13.0878 15.5816C12.7909 14.9144 12.9503 14.6362 13.3257 14.3812C13.6835 14.1383 14.4279 13.633 14.374 12.6436C14.3347 11.9195 13.4357 10.6416 13.1611 10.2672C12.8864 9.89244 11.9374 8.65064 11.2621 8.40239C10.8311 8.24389 10.3799 8.24179 9.9211 8.39616C8.86198 8.75221 8.09791 9.38608 7.71136 10.2293C7.33657 11.0469 7.34964 11.9976 7.74926 12.9785C8.81691 15.5996 10.3189 17.8856 12.2134 19.773C14.4356 21.987 16.6557 23.4595 19.0005 24.2746C19.2328 24.3553 19.6997 24.4965 19.9637 24.5313C19.9785 24.5333 19.9934 24.5342 20.0083 24.5342C20.6727 24.5342 21.4055 24.255 22.0716 23.748C22.731 23.2461 23.2261 22.5971 23.4657 21.9203C23.9427 20.5734 23.0428 19.8855 22.4472 19.4303ZM22.8248 21.6934C22.4273 22.8163 21.1011 23.8396 20.0313 23.8541C19.8319 23.8233 19.4403 23.7076 19.2239 23.6324C16.9777 22.8515 14.8416 21.4316 12.6934 19.2914C10.8637 17.4685 9.41218 15.2583 8.37906 12.722C8.05201 11.9193 8.03487 11.1553 8.32952 10.5126C8.6358 9.84437 9.2611 9.33537 10.1378 9.04063C10.292 8.98879 10.444 8.96279 10.5926 8.96279C10.7412 8.96279 10.8865 8.98872 11.0275 9.04056C11.2853 9.1353 11.8913 9.68539 12.6128 10.6692C13.3347 11.6537 13.6799 12.4019 13.695 12.6804C13.7255 13.2394 13.3406 13.5491 12.9437 13.8185C12.2282 14.3046 12.0721 14.9717 12.4665 15.858C13.1837 17.4699 14.4342 18.6894 16.1831 19.4825C16.4346 19.5967 16.6715 19.6545 16.8874 19.6545C17.2871 19.6545 17.6182 19.4601 17.8712 19.0767C18.2356 18.525 18.6448 18.2569 19.1223 18.2569C19.4892 18.2569 19.89 18.4129 20.3476 18.734L21.8047 19.7921C21.8796 19.8523 21.9587 19.9128 22.0292 19.9666L22.0344 19.9707C22.7002 20.4795 23.1149 20.8743 22.8248 21.6934ZM18.2423 13.3177C18.8055 13.8898 19.1382 14.6199 19.1333 15.2722C19.1635 16.2845 18.5232 16.4706 18.246 16.5036C18.2086 16.5081 18.1691 16.5105 18.1297 16.5105C17.6178 16.5105 17.2055 16.1017 17.1493 15.5385C17.0803 14.8482 16.7792 14.5228 16.1102 14.4154C15.8246 14.3694 15.4711 14.2733 15.2687 13.9353C15.1709 13.7719 15.0819 13.4971 15.2135 13.1155C15.4429 12.4498 16.105 12.4329 16.3225 12.4274L16.3234 12.4274C16.9699 12.412 17.6699 12.7363 18.2423 13.3177ZM18.1297 15.8305C18.1416 15.8305 18.1533 15.8298 18.1645 15.8284L18.1646 15.8284C18.2721 15.8156 18.4701 15.7921 18.4535 15.287C18.4533 15.2819 18.4533 15.2769 18.4533 15.2719C18.4588 14.7948 18.1988 14.2426 17.7578 13.7945C17.3167 13.3466 16.8009 13.097 16.3398 13.1071C16.0694 13.114 15.9204 13.1514 15.8564 13.3371C15.8004 13.4994 15.8393 13.5644 15.8521 13.5859L15.8521 13.586C15.8981 13.6629 16.0076 13.7101 16.2181 13.744C17.1858 13.8993 17.7269 14.4803 17.826 15.4709C17.8438 15.65 17.9446 15.8305 18.1297 15.8305ZM15.3164 20.117C14.701 19.6579 14.0968 19.1308 13.4693 18.5056C12.987 18.0251 12.5335 17.5021 12.1213 16.9512C12.0088 16.8009 11.7958 16.7702 11.6454 16.8827C11.4951 16.9951 11.4644 17.2082 11.5768 17.3585C12.0086 17.9357 12.4838 18.4837 12.9894 18.9873C13.64 19.6355 14.2682 20.1833 14.9098 20.662C14.9708 20.7075 15.0421 20.7295 15.1128 20.7295C15.2165 20.7295 15.3188 20.6822 15.3856 20.5928C15.4979 20.4423 15.4669 20.2293 15.3164 20.117ZM11.1585 15.4902C11.2161 15.5899 11.2759 15.6906 11.3362 15.7896C11.4339 15.9499 11.3831 16.1591 11.2228 16.2568C11.1675 16.2905 11.1064 16.3065 11.0461 16.3065C10.9315 16.3065 10.8196 16.2485 10.7555 16.1433C10.6925 16.04 10.63 15.9347 10.5698 15.8306C10.4758 15.6681 10.5314 15.4601 10.694 15.3661C10.8565 15.2721 11.0645 15.3277 11.1585 15.4902Z"/></svg>