<svg width="40" height="40" viewBox="0 0 40 40" xmlns="http://www.w3.org/2000/svg"><path fill-rule="evenodd" clip-rule="evenodd" d="M3 0C1.34315 0 0 1.34315 0 3V37C0 38.6569 1.34315 40 3 40H37C38.6569 40 40 38.6569 40 37V3C40 1.34315 38.6569 0 37 0H3ZM20.4075 28.6192C21.8433 28.6192 23.2415 28.5986 24.5637 28.5579C24.8756 28.5485 25.1346 28.7695 25.1451 29.0517C25.1557 29.3338 24.9123 29.5702 24.6017 29.5798C23.267 29.6209 21.8559 29.6417 20.4075 29.6417C16.2026 29.6417 12.4653 29.468 10.4105 29.1769C9.0769 28.9882 8.14214 28.5815 7.46898 27.8972C6.77626 27.1933 6.37879 26.2146 6.21764 24.8163C5.92745 22.2954 5.92745 18.3463 6.21764 15.8255C6.37879 14.4272 6.77626 13.4482 7.46898 12.7445C8.14214 12.0603 9.0769 11.6535 10.4105 11.4646C10.7765 11.4129 11.2037 11.3638 11.6803 11.3189C11.9891 11.2895 12.2661 11.4938 12.2982 11.7745C12.3303 12.0555 12.1057 12.3066 11.7963 12.3358C11.3389 12.3789 10.931 12.4256 10.5839 12.475C8.44596 12.7777 7.59649 13.6822 7.3373 15.9317C7.05392 18.3928 7.05392 22.2487 7.3373 24.7098C7.59649 26.9593 8.44596 27.864 10.5839 28.1667C12.5849 28.4501 16.2572 28.6192 20.4075 28.6192ZM34.5974 15.8255C34.4363 14.4274 34.0388 13.4484 33.3463 12.7445C32.6729 12.0603 31.7382 11.6535 30.4046 11.4648C28.3495 11.1737 24.6122 11 20.4075 11C18.9592 11 17.5483 11.021 16.2136 11.0619C15.9027 11.0715 15.6594 11.3079 15.6699 11.59C15.6805 11.8724 15.9397 12.0938 16.2516 12.0838C17.5735 12.0431 18.972 12.0225 20.4077 12.0225C24.5577 12.0225 28.2302 12.1916 30.2314 12.475C32.3691 12.7779 33.2188 13.6824 33.4778 15.9319C33.7614 18.393 33.7614 22.2489 33.4778 24.71C33.2188 26.9595 32.3691 27.864 30.2314 28.1669C29.8842 28.2161 29.4762 28.2628 29.0187 28.3059C28.7096 28.3351 28.4849 28.5863 28.517 28.8672C28.5472 29.1302 28.7914 29.3256 29.0761 29.3256C29.0957 29.3256 29.1152 29.3246 29.135 29.3228C29.6114 29.2779 30.0386 29.229 30.4046 29.1771C31.7382 28.9882 32.6729 28.5817 33.3463 27.8974C34.0388 27.1935 34.4363 26.2146 34.5974 24.8165C34.8876 22.2956 34.8876 18.3463 34.5974 15.8255ZM18.0805 15.977L25.0464 19.886C25.2124 19.979 25.3136 20.1435 25.3136 20.3209C25.3136 20.498 25.2124 20.6625 25.0464 20.7557L18.0805 24.6645C17.99 24.7152 17.8875 24.7408 17.7846 24.7408C17.6903 24.7408 17.596 24.7192 17.5105 24.6761C17.3324 24.5858 17.2218 24.4149 17.2218 24.2296V16.4119C17.2218 16.2266 17.3324 16.0557 17.5105 15.9654C17.6888 15.8752 17.9069 15.8796 18.0805 15.977ZM18.3477 17.3288V23.3129L23.6797 20.3209L18.3477 17.3288ZM13.9829 12.1774C13.9954 12.1774 14.0081 12.177 14.0209 12.1764C14.3311 12.1577 14.5657 11.9141 14.545 11.6323C14.5243 11.3506 14.2557 11.1372 13.9459 11.1561H13.9455C13.6353 11.1749 13.4009 11.4185 13.4216 11.7002C13.4414 11.9704 13.6889 12.1774 13.9829 12.1774ZM26.2699 29.0094C26.2492 28.7277 26.484 28.4841 26.7942 28.4655C27.1048 28.4469 27.3726 28.6598 27.3932 28.9415C27.4139 29.2232 27.1796 29.4668 26.8694 29.4856H26.8689C26.8562 29.4862 26.8436 29.4866 26.8309 29.4866C26.5372 29.4866 26.2896 29.2795 26.2699 29.0094Z"/></svg>
